<svg xmlns="http://www.w3.org/2000/svg" width="1030" height="716" viewBox="0 0 1030 716">
<rect x="0" y="0" width="1030" height="716" fill="#ffffff"/>
<text x="16" y="24" font-family="Inter, Arial, sans-serif" font-size="16" font-weight="700" fill="#111827">i32x4 SIMD vs SWAR</text>
<text x="16" y="42" font-family="Inter, Arial, sans-serif" font-size="12" fill="#4b5563">Blue: SIMD, Green: SWAR</text>
<text x="8" y="70" font-family="Inter, Arial, sans-serif" font-size="11" fill="#111827">bitmask</text>
<rect x="170" y="59" width="484" height="6" fill="#3b82f6" opacity="0.9"/>
<rect x="170" y="67" width="560" height="6" fill="#10b981" opacity="0.9"/>
<text x="738" y="70" font-family="Inter, Arial, sans-serif" font-size="11" fill="#374151">263.2M -> 304.5M (15.7%)</text>
<text x="8" y="90" font-family="Inter, Arial, sans-serif" font-size="11" fill="#111827">abs</text>
<rect x="170" y="79" width="496" height="6" fill="#3b82f6" opacity="0.9"/>
<rect x="170" y="87" width="544" height="6" fill="#10b981" opacity="0.9"/>
<text x="738" y="90" font-family="Inter, Arial, sans-serif" font-size="11" fill="#374151">269.6M -> 296.0M (9.8%)</text>
<text x="8" y="110" font-family="Inter, Arial, sans-serif" font-size="11" fill="#111827">neg</text>
<rect x="170" y="99" width="489" height="6" fill="#3b82f6" opacity="0.9"/>
<rect x="170" y="107" width="538" height="6" fill="#10b981" opacity="0.9"/>
<text x="738" y="110" font-family="Inter, Arial, sans-serif" font-size="11" fill="#374151">266.0M -> 292.7M (10.1%)</text>
<text x="8" y="130" font-family="Inter, Arial, sans-serif" font-size="11" fill="#111827">extract-lane</text>
<rect x="170" y="119" width="476" height="6" fill="#3b82f6" opacity="0.9"/>
<rect x="170" y="127" width="534" height="6" fill="#10b981" opacity="0.9"/>
<text x="738" y="130" font-family="Inter, Arial, sans-serif" font-size="11" fill="#374151">258.9M -> 290.7M (12.3%)</text>
<text x="8" y="150" font-family="Inter, Arial, sans-serif" font-size="11" fill="#111827">all-true</text>
<rect x="170" y="139" width="473" height="6" fill="#3b82f6" opacity="0.9"/>
<rect x="170" y="147" width="510" height="6" fill="#10b981" opacity="0.9"/>
<text x="738" y="150" font-family="Inter, Arial, sans-serif" font-size="11" fill="#374151">257.1M -> 277.2M (7.8%)</text>
<text x="8" y="170" font-family="Inter, Arial, sans-serif" font-size="11" fill="#111827">load</text>
<rect x="170" y="159" width="454" height="6" fill="#3b82f6" opacity="0.9"/>
<rect x="170" y="167" width="467" height="6" fill="#10b981" opacity="0.9"/>
<text x="738" y="170" font-family="Inter, Arial, sans-serif" font-size="11" fill="#374151">246.9M -> 254.0M (2.9%)</text>
<text x="8" y="190" font-family="Inter, Arial, sans-serif" font-size="11" fill="#111827">splat</text>
<rect x="170" y="179" width="437" height="6" fill="#3b82f6" opacity="0.9"/>
<rect x="170" y="187" width="467" height="6" fill="#10b981" opacity="0.9"/>
<text x="738" y="190" font-family="Inter, Arial, sans-serif" font-size="11" fill="#374151">237.7M -> 254.2M (6.9%)</text>
<text x="8" y="210" font-family="Inter, Arial, sans-serif" font-size="11" fill="#111827">sub</text>
<rect x="170" y="199" width="389" height="6" fill="#3b82f6" opacity="0.9"/>
<rect x="170" y="207" width="454" height="6" fill="#10b981" opacity="0.9"/>
<text x="738" y="210" font-family="Inter, Arial, sans-serif" font-size="11" fill="#374151">211.7M -> 246.6M (16.5%)</text>
<text x="8" y="230" font-family="Inter, Arial, sans-serif" font-size="11" fill="#111827">add</text>
<rect x="170" y="219" width="392" height="6" fill="#3b82f6" opacity="0.9"/>
<rect x="170" y="227" width="442" height="6" fill="#10b981" opacity="0.9"/>
<text x="738" y="230" font-family="Inter, Arial, sans-serif" font-size="11" fill="#374151">213.3M -> 240.2M (12.6%)</text>
<text x="8" y="250" font-family="Inter, Arial, sans-serif" font-size="11" fill="#111827">dot-i16x8-s</text>
<rect x="170" y="239" width="401" height="6" fill="#3b82f6" opacity="0.9"/>
<rect x="170" y="247" width="429" height="6" fill="#10b981" opacity="0.9"/>
<text x="738" y="250" font-family="Inter, Arial, sans-serif" font-size="11" fill="#374151">218.2M -> 233.2M (6.8%)</text>
<text x="8" y="270" font-family="Inter, Arial, sans-serif" font-size="11" fill="#111827">eq</text>
<rect x="170" y="259" width="387" height="6" fill="#3b82f6" opacity="0.9"/>
<rect x="170" y="267" width="441" height="6" fill="#10b981" opacity="0.9"/>
<text x="738" y="270" font-family="Inter, Arial, sans-serif" font-size="11" fill="#374151">210.7M -> 239.8M (13.8%)</text>
<text x="8" y="290" font-family="Inter, Arial, sans-serif" font-size="11" fill="#111827">max-u</text>
<rect x="170" y="279" width="395" height="6" fill="#3b82f6" opacity="0.9"/>
<rect x="170" y="287" width="426" height="6" fill="#10b981" opacity="0.9"/>
<text x="738" y="290" font-family="Inter, Arial, sans-serif" font-size="11" fill="#374151">214.6M -> 231.6M (7.9%)</text>
<text x="8" y="310" font-family="Inter, Arial, sans-serif" font-size="11" fill="#111827">ge-u</text>
<rect x="170" y="299" width="373" height="6" fill="#3b82f6" opacity="0.9"/>
<rect x="170" y="307" width="442" height="6" fill="#10b981" opacity="0.9"/>
<text x="738" y="310" font-family="Inter, Arial, sans-serif" font-size="11" fill="#374151">202.7M -> 240.5M (18.6%)</text>
<text x="8" y="330" font-family="Inter, Arial, sans-serif" font-size="11" fill="#111827">max-s</text>
<rect x="170" y="319" width="394" height="6" fill="#3b82f6" opacity="0.9"/>
<rect x="170" y="327" width="421" height="6" fill="#10b981" opacity="0.9"/>
<text x="738" y="330" font-family="Inter, Arial, sans-serif" font-size="11" fill="#374151">214.2M -> 228.9M (6.9%)</text>
<text x="8" y="350" font-family="Inter, Arial, sans-serif" font-size="11" fill="#111827">min-u</text>
<rect x="170" y="339" width="393" height="6" fill="#3b82f6" opacity="0.9"/>
<rect x="170" y="347" width="407" height="6" fill="#10b981" opacity="0.9"/>
<text x="738" y="350" font-family="Inter, Arial, sans-serif" font-size="11" fill="#374151">214.0M -> 221.2M (3.4%)</text>
<text x="8" y="370" font-family="Inter, Arial, sans-serif" font-size="11" fill="#111827">lt-s</text>
<rect x="170" y="359" width="393" height="6" fill="#3b82f6" opacity="0.9"/>
<rect x="170" y="367" width="405" height="6" fill="#10b981" opacity="0.9"/>
<text x="738" y="370" font-family="Inter, Arial, sans-serif" font-size="11" fill="#374151">213.6M -> 220.0M (3.0%)</text>
<text x="8" y="390" font-family="Inter, Arial, sans-serif" font-size="11" fill="#111827">ge-s</text>
<rect x="170" y="379" width="346" height="6" fill="#3b82f6" opacity="0.9"/>
<rect x="170" y="387" width="451" height="6" fill="#10b981" opacity="0.9"/>
<text x="738" y="390" font-family="Inter, Arial, sans-serif" font-size="11" fill="#374151">188.1M -> 245.0M (30.3%)</text>
<text x="8" y="410" font-family="Inter, Arial, sans-serif" font-size="11" fill="#111827">gt-s</text>
<rect x="170" y="399" width="387" height="6" fill="#3b82f6" opacity="0.9"/>
<rect x="170" y="407" width="407" height="6" fill="#10b981" opacity="0.9"/>
<text x="738" y="410" font-family="Inter, Arial, sans-serif" font-size="11" fill="#374151">210.6M -> 221.4M (5.2%)</text>
<text x="8" y="430" font-family="Inter, Arial, sans-serif" font-size="11" fill="#111827">min-s</text>
<rect x="170" y="419" width="394" height="6" fill="#3b82f6" opacity="0.9"/>
<rect x="170" y="427" width="400" height="6" fill="#10b981" opacity="0.9"/>
<text x="738" y="430" font-family="Inter, Arial, sans-serif" font-size="11" fill="#374151">214.4M -> 217.3M (1.4%)</text>
<text x="8" y="450" font-family="Inter, Arial, sans-serif" font-size="11" fill="#111827">ne</text>
<rect x="170" y="439" width="384" height="6" fill="#3b82f6" opacity="0.9"/>
<rect x="170" y="447" width="408" height="6" fill="#10b981" opacity="0.9"/>
<text x="738" y="450" font-family="Inter, Arial, sans-serif" font-size="11" fill="#374151">208.5M -> 221.8M (6.4%)</text>
<text x="8" y="470" font-family="Inter, Arial, sans-serif" font-size="11" fill="#111827">mul</text>
<rect x="170" y="459" width="386" height="6" fill="#3b82f6" opacity="0.9"/>
<rect x="170" y="467" width="403" height="6" fill="#10b981" opacity="0.9"/>
<text x="738" y="470" font-family="Inter, Arial, sans-serif" font-size="11" fill="#374151">209.7M -> 218.9M (4.4%)</text>
<text x="8" y="490" font-family="Inter, Arial, sans-serif" font-size="11" fill="#111827">le-u</text>
<rect x="170" y="479" width="379" height="6" fill="#3b82f6" opacity="0.9"/>
<rect x="170" y="487" width="402" height="6" fill="#10b981" opacity="0.9"/>
<text x="738" y="490" font-family="Inter, Arial, sans-serif" font-size="11" fill="#374151">206.2M -> 218.5M (5.9%)</text>
<text x="8" y="510" font-family="Inter, Arial, sans-serif" font-size="11" fill="#111827">le-s</text>
<rect x="170" y="499" width="377" height="6" fill="#3b82f6" opacity="0.9"/>
<rect x="170" y="507" width="404" height="6" fill="#10b981" opacity="0.9"/>
<text x="738" y="510" font-family="Inter, Arial, sans-serif" font-size="11" fill="#374151">204.8M -> 219.7M (7.3%)</text>
<text x="8" y="530" font-family="Inter, Arial, sans-serif" font-size="11" fill="#111827">gt-u</text>
<rect x="170" y="519" width="368" height="6" fill="#3b82f6" opacity="0.9"/>
<rect x="170" y="527" width="395" height="6" fill="#10b981" opacity="0.9"/>
<text x="738" y="530" font-family="Inter, Arial, sans-serif" font-size="11" fill="#374151">200.3M -> 215.0M (7.3%)</text>
<text x="8" y="550" font-family="Inter, Arial, sans-serif" font-size="11" fill="#111827">lt-u</text>
<rect x="170" y="539" width="370" height="6" fill="#3b82f6" opacity="0.9"/>
<rect x="170" y="547" width="394" height="6" fill="#10b981" opacity="0.9"/>
<text x="738" y="550" font-family="Inter, Arial, sans-serif" font-size="11" fill="#374151">201.1M -> 214.1M (6.5%)</text>
<text x="8" y="570" font-family="Inter, Arial, sans-serif" font-size="11" fill="#111827">replace-lane</text>
<rect x="170" y="559" width="344" height="6" fill="#3b82f6" opacity="0.9"/>
<rect x="170" y="567" width="398" height="6" fill="#10b981" opacity="0.9"/>
<text x="738" y="570" font-family="Inter, Arial, sans-serif" font-size="11" fill="#374151">187.0M -> 216.5M (15.8%)</text>
<text x="8" y="590" font-family="Inter, Arial, sans-serif" font-size="11" fill="#111827">shr-s</text>
<rect x="170" y="579" width="341" height="6" fill="#3b82f6" opacity="0.9"/>
<rect x="170" y="587" width="384" height="6" fill="#10b981" opacity="0.9"/>
<text x="738" y="590" font-family="Inter, Arial, sans-serif" font-size="11" fill="#374151">185.6M -> 209.0M (12.6%)</text>
<text x="8" y="610" font-family="Inter, Arial, sans-serif" font-size="11" fill="#111827">shr-u</text>
<rect x="170" y="599" width="341" height="6" fill="#3b82f6" opacity="0.9"/>
<rect x="170" y="607" width="383" height="6" fill="#10b981" opacity="0.9"/>
<text x="738" y="610" font-family="Inter, Arial, sans-serif" font-size="11" fill="#374151">185.6M -> 208.2M (12.2%)</text>
<text x="8" y="630" font-family="Inter, Arial, sans-serif" font-size="11" fill="#111827">shl</text>
<rect x="170" y="619" width="341" height="6" fill="#3b82f6" opacity="0.9"/>
<rect x="170" y="627" width="383" height="6" fill="#10b981" opacity="0.9"/>
<text x="738" y="630" font-family="Inter, Arial, sans-serif" font-size="11" fill="#374151">185.4M -> 208.2M (12.3%)</text>
<text x="8" y="650" font-family="Inter, Arial, sans-serif" font-size="11" fill="#111827">store</text>
<rect x="170" y="639" width="332" height="6" fill="#3b82f6" opacity="0.9"/>
<rect x="170" y="647" width="348" height="6" fill="#10b981" opacity="0.9"/>
<text x="738" y="650" font-family="Inter, Arial, sans-serif" font-size="11" fill="#374151">180.4M -> 189.3M (4.9%)</text>
<text x="8" y="670" font-family="Inter, Arial, sans-serif" font-size="11" fill="#111827">load-partial</text>
<rect x="170" y="659" width="96" height="6" fill="#3b82f6" opacity="0.9"/>
<rect x="170" y="667" width="93" height="6" fill="#10b981" opacity="0.9"/>
<text x="738" y="670" font-family="Inter, Arial, sans-serif" font-size="11" fill="#374151">52.0M -> 50.6M (-2.7%)</text>
<text x="8" y="690" font-family="Inter, Arial, sans-serif" font-size="11" fill="#111827">store-partial</text>
<rect x="170" y="679" width="79" height="6" fill="#3b82f6" opacity="0.9"/>
<rect x="170" y="687" width="87" height="6" fill="#10b981" opacity="0.9"/>
<text x="738" y="690" font-family="Inter, Arial, sans-serif" font-size="11" fill="#374151">42.9M -> 47.1M (9.8%)</text>
</svg>
