<svg xmlns="http://www.w3.org/2000/svg" width="1100" height="330" viewBox="0 0 1100 330">
<rect width="1100" height="330" fill="transparent"/>
<text x="550" y="40" text-anchor="middle" font-family="Inter,Arial,sans-serif" font-size="25" font-weight="700" fill="#374151">Dedicated Wide-Value Throughput on V8</text>
<text x="550" y="66" text-anchor="middle" font-family="Inter,Arial,sans-serif" font-size="14" font-weight="600" fill="#6b7280">Thu Jul 23 2026 - v0.0.0 - cccaba6 - feat/wide-externref-transform</text>
<text x="550" y="90" text-anchor="middle" font-family="Inter,Arial,sans-serif" font-size="12" fill="#6b7280">Node v24.18.0 / V8 13.6.233.17-node.50 · AMD Ryzen 7 7800X3D 8-Core Processor · median of 7 rounds</text>
<rect x="395" y="108" width="13" height="13" rx="2" fill="#6b7280"/><text x="415" y="119" font-family="Inter,Arial,sans-serif" font-size="14" font-weight="600" fill="#374151">nested compatibility</text>
<rect x="595" y="108" width="13" height="13" rx="2" fill="#2B9EB3"/><text x="615" y="119" font-family="Inter,Arial,sans-serif" font-size="14" font-weight="600" fill="#374151">dedicated raw-width</text>
<line x1="180" y1="137" x2="180" y2="289" stroke="#d1d5db" opacity="0.65"/>
<text x="180" y="130" text-anchor="middle" font-family="Inter,Arial,sans-serif" font-size="12" fill="#6b7280">0.0</text>
<line x1="376.25" y1="137" x2="376.25" y2="289" stroke="#d1d5db" opacity="0.65"/>
<text x="376.25" y="130" text-anchor="middle" font-family="Inter,Arial,sans-serif" font-size="12" fill="#6b7280">1.8</text>
<line x1="572.5" y1="137" x2="572.5" y2="289" stroke="#d1d5db" opacity="0.65"/>
<text x="572.5" y="130" text-anchor="middle" font-family="Inter,Arial,sans-serif" font-size="12" fill="#6b7280">3.5</text>
<line x1="768.75" y1="137" x2="768.75" y2="289" stroke="#d1d5db" opacity="0.65"/>
<text x="768.75" y="130" text-anchor="middle" font-family="Inter,Arial,sans-serif" font-size="12" fill="#6b7280">5.3</text>
<line x1="965" y1="137" x2="965" y2="289" stroke="#d1d5db" opacity="0.65"/>
<text x="965" y="130" text-anchor="middle" font-family="Inter,Arial,sans-serif" font-size="12" fill="#6b7280">7.0</text>
<text x="162" y="180" text-anchor="end" font-family="Inter,Arial,sans-serif" font-size="16" font-weight="700" fill="#374151">v256</text>
<rect x="180" y="153" width="243.5833996405098" height="18" rx="2" fill="#6b7280"/>
<rect x="180" y="176" width="597.9029843836191" height="18" rx="2" fill="#2B9EB3"/>
<text x="980" y="182" font-family="Inter,Arial,sans-serif" font-size="15" font-weight="700" fill="#374151">2.45×</text>
<text x="162" y="252" text-anchor="end" font-family="Inter,Arial,sans-serif" font-size="16" font-weight="700" fill="#374151">v512</text>
<rect x="180" y="225" width="168.3407146412028" height="18" rx="2" fill="#6b7280"/>
<rect x="180" y="248" width="526.3663298170212" height="18" rx="2" fill="#2B9EB3"/>
<text x="980" y="254" font-family="Inter,Arial,sans-serif" font-size="15" font-weight="700" fill="#374151">3.13×</text>
<text x="572.5" y="312" text-anchor="middle" font-family="Inter,Arial,sans-serif" font-size="13" font-weight="700" fill="#374151">Million immutable expression chains/s — higher is better</text>
</svg>
