<svg xmlns="http://www.w3.org/2000/svg" width="1030" height="816" viewBox="0 0 1030 816">
<rect x="0" y="0" width="1030" height="816" fill="#ffffff"/>
<text x="16" y="24" font-family="Inter, Arial, sans-serif" font-size="16" font-weight="700" fill="#111827">i8x16 SIMD vs SWAR</text>
<text x="16" y="42" font-family="Inter, Arial, sans-serif" font-size="12" fill="#4b5563">Blue: SIMD, Green: SWAR</text>
<text x="8" y="70" font-family="Inter, Arial, sans-serif" font-size="11" fill="#111827">load</text>
<rect x="170" y="59" width="544" height="6" fill="#3b82f6" opacity="0.9"/>
<rect x="170" y="67" width="468" height="6" fill="#10b981" opacity="0.9"/>
<text x="738" y="70" font-family="Inter, Arial, sans-serif" font-size="11" fill="#374151">292.5M -> 251.4M (-14.1%)</text>
<text x="8" y="90" font-family="Inter, Arial, sans-serif" font-size="11" fill="#111827">extract-lane-u</text>
<rect x="170" y="79" width="543" height="6" fill="#3b82f6" opacity="0.9"/>
<rect x="170" y="87" width="454" height="6" fill="#10b981" opacity="0.9"/>
<text x="738" y="90" font-family="Inter, Arial, sans-serif" font-size="11" fill="#374151">291.5M -> 243.9M (-16.3%)</text>
<text x="8" y="110" font-family="Inter, Arial, sans-serif" font-size="11" fill="#111827">splat</text>
<rect x="170" y="99" width="560" height="6" fill="#3b82f6" opacity="0.9"/>
<rect x="170" y="107" width="432" height="6" fill="#10b981" opacity="0.9"/>
<text x="738" y="110" font-family="Inter, Arial, sans-serif" font-size="11" fill="#374151">300.9M -> 231.9M (-22.9%)</text>
<text x="8" y="130" font-family="Inter, Arial, sans-serif" font-size="11" fill="#111827">extract-lane-s</text>
<rect x="170" y="119" width="535" height="6" fill="#3b82f6" opacity="0.9"/>
<rect x="170" y="127" width="444" height="6" fill="#10b981" opacity="0.9"/>
<text x="738" y="130" font-family="Inter, Arial, sans-serif" font-size="11" fill="#374151">287.5M -> 238.4M (-17.1%)</text>
<text x="8" y="150" font-family="Inter, Arial, sans-serif" font-size="11" fill="#111827">bitmask</text>
<rect x="170" y="139" width="538" height="6" fill="#3b82f6" opacity="0.9"/>
<rect x="170" y="147" width="420" height="6" fill="#10b981" opacity="0.9"/>
<text x="738" y="150" font-family="Inter, Arial, sans-serif" font-size="11" fill="#374151">289.2M -> 225.5M (-22.0%)</text>
<text x="8" y="170" font-family="Inter, Arial, sans-serif" font-size="11" fill="#111827">neg</text>
<rect x="170" y="159" width="537" height="6" fill="#3b82f6" opacity="0.9"/>
<rect x="170" y="167" width="321" height="6" fill="#10b981" opacity="0.9"/>
<text x="738" y="170" font-family="Inter, Arial, sans-serif" font-size="11" fill="#374151">288.5M -> 172.3M (-40.3%)</text>
<text x="8" y="190" font-family="Inter, Arial, sans-serif" font-size="11" fill="#111827">abs</text>
<rect x="170" y="179" width="547" height="6" fill="#3b82f6" opacity="0.9"/>
<rect x="170" y="187" width="243" height="6" fill="#10b981" opacity="0.9"/>
<text x="738" y="190" font-family="Inter, Arial, sans-serif" font-size="11" fill="#374151">293.7M -> 130.7M (-55.5%)</text>
<text x="8" y="210" font-family="Inter, Arial, sans-serif" font-size="11" fill="#111827">all-true</text>
<rect x="170" y="199" width="519" height="6" fill="#3b82f6" opacity="0.9"/>
<rect x="170" y="207" width="266" height="6" fill="#10b981" opacity="0.9"/>
<text x="738" y="210" font-family="Inter, Arial, sans-serif" font-size="11" fill="#374151">278.8M -> 142.7M (-48.8%)</text>
<text x="8" y="230" font-family="Inter, Arial, sans-serif" font-size="11" fill="#111827">popcnt</text>
<rect x="170" y="219" width="469" height="6" fill="#3b82f6" opacity="0.9"/>
<rect x="170" y="227" width="279" height="6" fill="#10b981" opacity="0.9"/>
<text x="738" y="230" font-family="Inter, Arial, sans-serif" font-size="11" fill="#374151">252.1M -> 149.8M (-40.6%)</text>
<text x="8" y="250" font-family="Inter, Arial, sans-serif" font-size="11" fill="#111827">store</text>
<rect x="170" y="239" width="383" height="6" fill="#3b82f6" opacity="0.9"/>
<rect x="170" y="247" width="328" height="6" fill="#10b981" opacity="0.9"/>
<text x="738" y="250" font-family="Inter, Arial, sans-serif" font-size="11" fill="#374151">205.6M -> 176.3M (-14.3%)</text>
<text x="8" y="270" font-family="Inter, Arial, sans-serif" font-size="11" fill="#111827">avgr-u</text>
<rect x="170" y="259" width="437" height="6" fill="#3b82f6" opacity="0.9"/>
<rect x="170" y="267" width="274" height="6" fill="#10b981" opacity="0.9"/>
<text x="738" y="270" font-family="Inter, Arial, sans-serif" font-size="11" fill="#374151">234.9M -> 147.0M (-37.4%)</text>
<text x="8" y="290" font-family="Inter, Arial, sans-serif" font-size="11" fill="#111827">add</text>
<rect x="170" y="279" width="440" height="6" fill="#3b82f6" opacity="0.9"/>
<rect x="170" y="287" width="262" height="6" fill="#10b981" opacity="0.9"/>
<text x="738" y="290" font-family="Inter, Arial, sans-serif" font-size="11" fill="#374151">236.2M -> 140.5M (-40.5%)</text>
<text x="8" y="310" font-family="Inter, Arial, sans-serif" font-size="11" fill="#111827">sub</text>
<rect x="170" y="299" width="440" height="6" fill="#3b82f6" opacity="0.9"/>
<rect x="170" y="307" width="254" height="6" fill="#10b981" opacity="0.9"/>
<text x="738" y="310" font-family="Inter, Arial, sans-serif" font-size="11" fill="#374151">236.7M -> 136.5M (-42.3%)</text>
<text x="8" y="330" font-family="Inter, Arial, sans-serif" font-size="11" fill="#111827">replace-lane</text>
<rect x="170" y="319" width="386" height="6" fill="#3b82f6" opacity="0.9"/>
<rect x="170" y="327" width="289" height="6" fill="#10b981" opacity="0.9"/>
<text x="738" y="330" font-family="Inter, Arial, sans-serif" font-size="11" fill="#374151">207.6M -> 155.2M (-25.2%)</text>
<text x="8" y="350" font-family="Inter, Arial, sans-serif" font-size="11" fill="#111827">eq</text>
<rect x="170" y="339" width="429" height="6" fill="#3b82f6" opacity="0.9"/>
<rect x="170" y="347" width="231" height="6" fill="#10b981" opacity="0.9"/>
<text x="738" y="350" font-family="Inter, Arial, sans-serif" font-size="11" fill="#374151">230.6M -> 124.1M (-46.2%)</text>
<text x="8" y="370" font-family="Inter, Arial, sans-serif" font-size="11" fill="#111827">ne</text>
<rect x="170" y="359" width="418" height="6" fill="#3b82f6" opacity="0.9"/>
<rect x="170" y="367" width="237" height="6" fill="#10b981" opacity="0.9"/>
<text x="738" y="370" font-family="Inter, Arial, sans-serif" font-size="11" fill="#374151">224.5M -> 127.5M (-43.2%)</text>
<text x="8" y="390" font-family="Inter, Arial, sans-serif" font-size="11" fill="#111827">gt-s</text>
<rect x="170" y="379" width="429" height="6" fill="#3b82f6" opacity="0.9"/>
<rect x="170" y="387" width="214" height="6" fill="#10b981" opacity="0.9"/>
<text x="738" y="390" font-family="Inter, Arial, sans-serif" font-size="11" fill="#374151">230.4M -> 114.9M (-50.1%)</text>
<text x="8" y="410" font-family="Inter, Arial, sans-serif" font-size="11" fill="#111827">le-u</text>
<rect x="170" y="399" width="420" height="6" fill="#3b82f6" opacity="0.9"/>
<rect x="170" y="407" width="219" height="6" fill="#10b981" opacity="0.9"/>
<text x="738" y="410" font-family="Inter, Arial, sans-serif" font-size="11" fill="#374151">225.8M -> 117.7M (-47.9%)</text>
<text x="8" y="430" font-family="Inter, Arial, sans-serif" font-size="11" fill="#111827">ge-u</text>
<rect x="170" y="419" width="419" height="6" fill="#3b82f6" opacity="0.9"/>
<rect x="170" y="427" width="216" height="6" fill="#10b981" opacity="0.9"/>
<text x="738" y="430" font-family="Inter, Arial, sans-serif" font-size="11" fill="#374151">225.4M -> 115.9M (-48.6%)</text>
<text x="8" y="450" font-family="Inter, Arial, sans-serif" font-size="11" fill="#111827">gt-u</text>
<rect x="170" y="439" width="411" height="6" fill="#3b82f6" opacity="0.9"/>
<rect x="170" y="447" width="223" height="6" fill="#10b981" opacity="0.9"/>
<text x="738" y="450" font-family="Inter, Arial, sans-serif" font-size="11" fill="#374151">220.8M -> 119.8M (-45.7%)</text>
<text x="8" y="470" font-family="Inter, Arial, sans-serif" font-size="11" fill="#111827">ge-s</text>
<rect x="170" y="459" width="420" height="6" fill="#3b82f6" opacity="0.9"/>
<rect x="170" y="467" width="204" height="6" fill="#10b981" opacity="0.9"/>
<text x="738" y="470" font-family="Inter, Arial, sans-serif" font-size="11" fill="#374151">225.8M -> 109.5M (-51.5%)</text>
<text x="8" y="490" font-family="Inter, Arial, sans-serif" font-size="11" fill="#111827">lt-s</text>
<rect x="170" y="479" width="429" height="6" fill="#3b82f6" opacity="0.9"/>
<rect x="170" y="487" width="189" height="6" fill="#10b981" opacity="0.9"/>
<text x="738" y="490" font-family="Inter, Arial, sans-serif" font-size="11" fill="#374151">230.6M -> 101.4M (-56.0%)</text>
<text x="8" y="510" font-family="Inter, Arial, sans-serif" font-size="11" fill="#111827">sub-sat-u</text>
<rect x="170" y="499" width="434" height="6" fill="#3b82f6" opacity="0.9"/>
<rect x="170" y="507" width="183" height="6" fill="#10b981" opacity="0.9"/>
<text x="738" y="510" font-family="Inter, Arial, sans-serif" font-size="11" fill="#374151">233.0M -> 98.5M (-57.7%)</text>
<text x="8" y="530" font-family="Inter, Arial, sans-serif" font-size="11" fill="#111827">sub-sat-s</text>
<rect x="170" y="519" width="434" height="6" fill="#3b82f6" opacity="0.9"/>
<rect x="170" y="527" width="177" height="6" fill="#10b981" opacity="0.9"/>
<text x="738" y="530" font-family="Inter, Arial, sans-serif" font-size="11" fill="#374151">233.3M -> 94.9M (-59.3%)</text>
<text x="8" y="550" font-family="Inter, Arial, sans-serif" font-size="11" fill="#111827">add-sat-s</text>
<rect x="170" y="539" width="435" height="6" fill="#3b82f6" opacity="0.9"/>
<rect x="170" y="547" width="175" height="6" fill="#10b981" opacity="0.9"/>
<text x="738" y="550" font-family="Inter, Arial, sans-serif" font-size="11" fill="#374151">233.8M -> 94.3M (-59.7%)</text>
<text x="8" y="570" font-family="Inter, Arial, sans-serif" font-size="11" fill="#111827">min-u</text>
<rect x="170" y="559" width="438" height="6" fill="#3b82f6" opacity="0.9"/>
<rect x="170" y="567" width="171" height="6" fill="#10b981" opacity="0.9"/>
<text x="738" y="570" font-family="Inter, Arial, sans-serif" font-size="11" fill="#374151">235.2M -> 92.0M (-60.9%)</text>
<text x="8" y="590" font-family="Inter, Arial, sans-serif" font-size="11" fill="#111827">lt-u</text>
<rect x="170" y="579" width="411" height="6" fill="#3b82f6" opacity="0.9"/>
<rect x="170" y="587" width="197" height="6" fill="#10b981" opacity="0.9"/>
<text x="738" y="590" font-family="Inter, Arial, sans-serif" font-size="11" fill="#374151">221.1M -> 106.0M (-52.1%)</text>
<text x="8" y="610" font-family="Inter, Arial, sans-serif" font-size="11" fill="#111827">max-u</text>
<rect x="170" y="599" width="437" height="6" fill="#3b82f6" opacity="0.9"/>
<rect x="170" y="607" width="172" height="6" fill="#10b981" opacity="0.9"/>
<text x="738" y="610" font-family="Inter, Arial, sans-serif" font-size="11" fill="#374151">234.6M -> 92.4M (-60.6%)</text>
<text x="8" y="630" font-family="Inter, Arial, sans-serif" font-size="11" fill="#111827">add-sat-u</text>
<rect x="170" y="619" width="435" height="6" fill="#3b82f6" opacity="0.9"/>
<rect x="170" y="627" width="172" height="6" fill="#10b981" opacity="0.9"/>
<text x="738" y="630" font-family="Inter, Arial, sans-serif" font-size="11" fill="#374151">233.6M -> 92.5M (-60.4%)</text>
<text x="8" y="650" font-family="Inter, Arial, sans-serif" font-size="11" fill="#111827">le-s</text>
<rect x="170" y="639" width="421" height="6" fill="#3b82f6" opacity="0.9"/>
<rect x="170" y="647" width="183" height="6" fill="#10b981" opacity="0.9"/>
<text x="738" y="650" font-family="Inter, Arial, sans-serif" font-size="11" fill="#374151">226.1M -> 98.1M (-56.6%)</text>
<text x="8" y="670" font-family="Inter, Arial, sans-serif" font-size="11" fill="#111827">max-s</text>
<rect x="170" y="659" width="437" height="6" fill="#3b82f6" opacity="0.9"/>
<rect x="170" y="667" width="165" height="6" fill="#10b981" opacity="0.9"/>
<text x="738" y="670" font-family="Inter, Arial, sans-serif" font-size="11" fill="#374151">234.7M -> 88.9M (-62.1%)</text>
<text x="8" y="690" font-family="Inter, Arial, sans-serif" font-size="11" fill="#111827">min-s</text>
<rect x="170" y="679" width="439" height="6" fill="#3b82f6" opacity="0.9"/>
<rect x="170" y="687" width="161" height="6" fill="#10b981" opacity="0.9"/>
<text x="738" y="690" font-family="Inter, Arial, sans-serif" font-size="11" fill="#374151">236.0M -> 86.8M (-63.2%)</text>
<text x="8" y="710" font-family="Inter, Arial, sans-serif" font-size="11" fill="#111827">shr-u</text>
<rect x="170" y="699" width="323" height="6" fill="#3b82f6" opacity="0.9"/>
<rect x="170" y="707" width="265" height="6" fill="#10b981" opacity="0.9"/>
<text x="738" y="710" font-family="Inter, Arial, sans-serif" font-size="11" fill="#374151">173.3M -> 142.5M (-17.8%)</text>
<text x="8" y="730" font-family="Inter, Arial, sans-serif" font-size="11" fill="#111827">shl</text>
<rect x="170" y="719" width="307" height="6" fill="#3b82f6" opacity="0.9"/>
<rect x="170" y="727" width="268" height="6" fill="#10b981" opacity="0.9"/>
<text x="738" y="730" font-family="Inter, Arial, sans-serif" font-size="11" fill="#374151">165.1M -> 144.1M (-12.7%)</text>
<text x="8" y="750" font-family="Inter, Arial, sans-serif" font-size="11" fill="#111827">shr-s</text>
<rect x="170" y="739" width="323" height="6" fill="#3b82f6" opacity="0.9"/>
<rect x="170" y="747" width="194" height="6" fill="#10b981" opacity="0.9"/>
<text x="738" y="750" font-family="Inter, Arial, sans-serif" font-size="11" fill="#374151">173.3M -> 104.2M (-39.9%)</text>
<text x="8" y="770" font-family="Inter, Arial, sans-serif" font-size="11" fill="#111827">load-partial</text>
<rect x="170" y="759" width="88" height="6" fill="#3b82f6" opacity="0.9"/>
<rect x="170" y="767" width="69" height="6" fill="#10b981" opacity="0.9"/>
<text x="738" y="770" font-family="Inter, Arial, sans-serif" font-size="11" fill="#374151">47.4M -> 37.3M (-21.3%)</text>
<text x="8" y="790" font-family="Inter, Arial, sans-serif" font-size="11" fill="#111827">store-partial</text>
<rect x="170" y="779" width="82" height="6" fill="#3b82f6" opacity="0.9"/>
<rect x="170" y="787" width="66" height="6" fill="#10b981" opacity="0.9"/>
<text x="738" y="790" font-family="Inter, Arial, sans-serif" font-size="11" fill="#374151">43.9M -> 35.3M (-19.5%)</text>
</svg>
