<svg xmlns="http://www.w3.org/2000/svg" width="1090" height="1096" viewBox="0 0 1090 1096">
<rect x="0" y="0" width="1090" height="1096" fill="#ffffff"/>
<text x="16" y="24" font-family="Inter, Arial, sans-serif" font-size="16" font-weight="700" fill="#111827">i16x4 SIMD vs SWAR</text>
<text x="16" y="42" font-family="Inter, Arial, sans-serif" font-size="12" fill="#4b5563">Blue: SIMD, Green: SWAR</text>
<text x="8" y="70" font-family="Inter, Arial, sans-serif" font-size="11" fill="#111827">neg</text>
<rect x="230" y="59" width="555" height="6" fill="#3b82f6" opacity="0.9"/>
<rect x="230" y="67" width="546" height="6" fill="#10b981" opacity="0.9"/>
<text x="798" y="70" font-family="Inter, Arial, sans-serif" font-size="11" fill="#374151">319.9M -> 314.7M (-1.6%)</text>
<text x="8" y="90" font-family="Inter, Arial, sans-serif" font-size="11" fill="#111827">splat</text>
<rect x="230" y="79" width="560" height="6" fill="#3b82f6" opacity="0.9"/>
<rect x="230" y="87" width="537" height="6" fill="#10b981" opacity="0.9"/>
<text x="798" y="90" font-family="Inter, Arial, sans-serif" font-size="11" fill="#374151">322.9M -> 309.4M (-4.2%)</text>
<text x="8" y="110" font-family="Inter, Arial, sans-serif" font-size="11" fill="#111827">abs</text>
<rect x="230" y="99" width="512" height="6" fill="#3b82f6" opacity="0.9"/>
<rect x="230" y="107" width="491" height="6" fill="#10b981" opacity="0.9"/>
<text x="798" y="110" font-family="Inter, Arial, sans-serif" font-size="11" fill="#374151">295.1M -> 282.8M (-4.1%)</text>
<text x="8" y="130" font-family="Inter, Arial, sans-serif" font-size="11" fill="#111827">extend-high-i8x8-u</text>
<rect x="230" y="119" width="516" height="6" fill="#3b82f6" opacity="0.9"/>
<rect x="230" y="127" width="479" height="6" fill="#10b981" opacity="0.9"/>
<text x="798" y="130" font-family="Inter, Arial, sans-serif" font-size="11" fill="#374151">297.7M -> 276.1M (-7.3%)</text>
<text x="8" y="150" font-family="Inter, Arial, sans-serif" font-size="11" fill="#111827">all-true</text>
<rect x="230" y="139" width="500" height="6" fill="#3b82f6" opacity="0.9"/>
<rect x="230" y="147" width="488" height="6" fill="#10b981" opacity="0.9"/>
<text x="798" y="150" font-family="Inter, Arial, sans-serif" font-size="11" fill="#374151">288.4M -> 281.4M (-2.4%)</text>
<text x="8" y="170" font-family="Inter, Arial, sans-serif" font-size="11" fill="#111827">extend-low-i8x8-u</text>
<rect x="230" y="159" width="477" height="6" fill="#3b82f6" opacity="0.9"/>
<rect x="230" y="167" width="484" height="6" fill="#10b981" opacity="0.9"/>
<text x="798" y="170" font-family="Inter, Arial, sans-serif" font-size="11" fill="#374151">275.1M -> 278.8M (1.4%)</text>
<text x="8" y="190" font-family="Inter, Arial, sans-serif" font-size="11" fill="#111827">bitmask</text>
<rect x="230" y="179" width="478" height="6" fill="#3b82f6" opacity="0.9"/>
<rect x="230" y="187" width="466" height="6" fill="#10b981" opacity="0.9"/>
<text x="798" y="190" font-family="Inter, Arial, sans-serif" font-size="11" fill="#374151">275.7M -> 268.5M (-2.6%)</text>
<text x="8" y="210" font-family="Inter, Arial, sans-serif" font-size="11" fill="#111827">extend-high-i8x8-s</text>
<rect x="230" y="199" width="426" height="6" fill="#3b82f6" opacity="0.9"/>
<rect x="230" y="207" width="421" height="6" fill="#10b981" opacity="0.9"/>
<text x="798" y="210" font-family="Inter, Arial, sans-serif" font-size="11" fill="#374151">245.5M -> 242.9M (-1.1%)</text>
<text x="8" y="230" font-family="Inter, Arial, sans-serif" font-size="11" fill="#111827">extend-low-i8x8-s</text>
<rect x="230" y="219" width="419" height="6" fill="#3b82f6" opacity="0.9"/>
<rect x="230" y="227" width="427" height="6" fill="#10b981" opacity="0.9"/>
<text x="798" y="230" font-family="Inter, Arial, sans-serif" font-size="11" fill="#374151">241.7M -> 246.1M (1.8%)</text>
<text x="8" y="250" font-family="Inter, Arial, sans-serif" font-size="11" fill="#111827">add</text>
<rect x="230" y="239" width="419" height="6" fill="#3b82f6" opacity="0.9"/>
<rect x="230" y="247" width="411" height="6" fill="#10b981" opacity="0.9"/>
<text x="798" y="250" font-family="Inter, Arial, sans-serif" font-size="11" fill="#374151">241.8M -> 237.2M (-1.9%)</text>
<text x="8" y="270" font-family="Inter, Arial, sans-serif" font-size="11" fill="#111827">extract-lane-u</text>
<rect x="230" y="259" width="429" height="6" fill="#3b82f6" opacity="0.9"/>
<rect x="230" y="267" width="399" height="6" fill="#10b981" opacity="0.9"/>
<text x="798" y="270" font-family="Inter, Arial, sans-serif" font-size="11" fill="#374151">247.2M -> 230.1M (-6.9%)</text>
<text x="8" y="290" font-family="Inter, Arial, sans-serif" font-size="11" fill="#111827">sub</text>
<rect x="230" y="279" width="417" height="6" fill="#3b82f6" opacity="0.9"/>
<rect x="230" y="287" width="410" height="6" fill="#10b981" opacity="0.9"/>
<text x="798" y="290" font-family="Inter, Arial, sans-serif" font-size="11" fill="#374151">240.6M -> 236.4M (-1.8%)</text>
<text x="8" y="310" font-family="Inter, Arial, sans-serif" font-size="11" fill="#111827">extract-lane-s</text>
<rect x="230" y="299" width="425" height="6" fill="#3b82f6" opacity="0.9"/>
<rect x="230" y="307" width="399" height="6" fill="#10b981" opacity="0.9"/>
<text x="798" y="310" font-family="Inter, Arial, sans-serif" font-size="11" fill="#374151">245.1M -> 230.0M (-6.2%)</text>
<text x="8" y="330" font-family="Inter, Arial, sans-serif" font-size="11" fill="#111827">extadd-pairwise-i8x8-u</text>
<rect x="230" y="319" width="431" height="6" fill="#3b82f6" opacity="0.9"/>
<rect x="230" y="327" width="379" height="6" fill="#10b981" opacity="0.9"/>
<text x="798" y="330" font-family="Inter, Arial, sans-serif" font-size="11" fill="#374151">248.6M -> 218.6M (-12.1%)</text>
<text x="8" y="350" font-family="Inter, Arial, sans-serif" font-size="11" fill="#111827">eq</text>
<rect x="230" y="339" width="398" height="6" fill="#3b82f6" opacity="0.9"/>
<rect x="230" y="347" width="393" height="6" fill="#10b981" opacity="0.9"/>
<text x="798" y="350" font-family="Inter, Arial, sans-serif" font-size="11" fill="#374151">229.5M -> 226.6M (-1.3%)</text>
<text x="8" y="370" font-family="Inter, Arial, sans-serif" font-size="11" fill="#111827">avgr-u</text>
<rect x="230" y="359" width="423" height="6" fill="#3b82f6" opacity="0.9"/>
<rect x="230" y="367" width="366" height="6" fill="#10b981" opacity="0.9"/>
<text x="798" y="370" font-family="Inter, Arial, sans-serif" font-size="11" fill="#374151">243.9M -> 211.2M (-13.4%)</text>
<text x="8" y="390" font-family="Inter, Arial, sans-serif" font-size="11" fill="#111827">extadd-pairwise-i8x8-s</text>
<rect x="230" y="379" width="409" height="6" fill="#3b82f6" opacity="0.9"/>
<rect x="230" y="387" width="370" height="6" fill="#10b981" opacity="0.9"/>
<text x="798" y="390" font-family="Inter, Arial, sans-serif" font-size="11" fill="#374151">235.8M -> 213.5M (-9.4%)</text>
<text x="8" y="410" font-family="Inter, Arial, sans-serif" font-size="11" fill="#111827">ne</text>
<rect x="230" y="399" width="391" height="6" fill="#3b82f6" opacity="0.9"/>
<rect x="230" y="407" width="384" height="6" fill="#10b981" opacity="0.9"/>
<text x="798" y="410" font-family="Inter, Arial, sans-serif" font-size="11" fill="#374151">225.7M -> 221.6M (-1.8%)</text>
<text x="8" y="430" font-family="Inter, Arial, sans-serif" font-size="11" fill="#111827">min-u</text>
<rect x="230" y="419" width="360" height="6" fill="#3b82f6" opacity="0.9"/>
<rect x="230" y="427" width="358" height="6" fill="#10b981" opacity="0.9"/>
<text x="798" y="430" font-family="Inter, Arial, sans-serif" font-size="11" fill="#374151">207.6M -> 206.3M (-0.6%)</text>
<text x="8" y="450" font-family="Inter, Arial, sans-serif" font-size="11" fill="#111827">add-sat-s</text>
<rect x="230" y="439" width="354" height="6" fill="#3b82f6" opacity="0.9"/>
<rect x="230" y="447" width="348" height="6" fill="#10b981" opacity="0.9"/>
<text x="798" y="450" font-family="Inter, Arial, sans-serif" font-size="11" fill="#374151">204.1M -> 200.9M (-1.6%)</text>
<text x="8" y="470" font-family="Inter, Arial, sans-serif" font-size="11" fill="#111827">min-s</text>
<rect x="230" y="459" width="356" height="6" fill="#3b82f6" opacity="0.9"/>
<rect x="230" y="467" width="341" height="6" fill="#10b981" opacity="0.9"/>
<text x="798" y="470" font-family="Inter, Arial, sans-serif" font-size="11" fill="#374151">205.1M -> 196.5M (-4.2%)</text>
<text x="8" y="490" font-family="Inter, Arial, sans-serif" font-size="11" fill="#111827">add-sat-u</text>
<rect x="230" y="479" width="348" height="6" fill="#3b82f6" opacity="0.9"/>
<rect x="230" y="487" width="347" height="6" fill="#10b981" opacity="0.9"/>
<text x="798" y="490" font-family="Inter, Arial, sans-serif" font-size="11" fill="#374151">200.7M -> 199.9M (-0.4%)</text>
<text x="8" y="510" font-family="Inter, Arial, sans-serif" font-size="11" fill="#111827">lt-s</text>
<rect x="230" y="499" width="364" height="6" fill="#3b82f6" opacity="0.9"/>
<rect x="230" y="507" width="330" height="6" fill="#10b981" opacity="0.9"/>
<text x="798" y="510" font-family="Inter, Arial, sans-serif" font-size="11" fill="#374151">209.8M -> 190.1M (-9.4%)</text>
<text x="8" y="530" font-family="Inter, Arial, sans-serif" font-size="11" fill="#111827">lt-u</text>
<rect x="230" y="519" width="370" height="6" fill="#3b82f6" opacity="0.9"/>
<rect x="230" y="527" width="321" height="6" fill="#10b981" opacity="0.9"/>
<text x="798" y="530" font-family="Inter, Arial, sans-serif" font-size="11" fill="#374151">213.3M -> 185.3M (-13.1%)</text>
<text x="8" y="550" font-family="Inter, Arial, sans-serif" font-size="11" fill="#111827">sub-sat-u</text>
<rect x="230" y="539" width="366" height="6" fill="#3b82f6" opacity="0.9"/>
<rect x="230" y="547" width="324" height="6" fill="#10b981" opacity="0.9"/>
<text x="798" y="550" font-family="Inter, Arial, sans-serif" font-size="11" fill="#374151">210.7M -> 187.0M (-11.3%)</text>
<text x="8" y="570" font-family="Inter, Arial, sans-serif" font-size="11" fill="#111827">sub-sat-s</text>
<rect x="230" y="559" width="346" height="6" fill="#3b82f6" opacity="0.9"/>
<rect x="230" y="567" width="341" height="6" fill="#10b981" opacity="0.9"/>
<text x="798" y="570" font-family="Inter, Arial, sans-serif" font-size="11" fill="#374151">199.2M -> 196.5M (-1.4%)</text>
<text x="8" y="590" font-family="Inter, Arial, sans-serif" font-size="11" fill="#111827">le-u</text>
<rect x="230" y="579" width="359" height="6" fill="#3b82f6" opacity="0.9"/>
<rect x="230" y="587" width="322" height="6" fill="#10b981" opacity="0.9"/>
<text x="798" y="590" font-family="Inter, Arial, sans-serif" font-size="11" fill="#374151">207.0M -> 185.7M (-10.3%)</text>
<text x="8" y="610" font-family="Inter, Arial, sans-serif" font-size="11" fill="#111827">gt-s</text>
<rect x="230" y="599" width="353" height="6" fill="#3b82f6" opacity="0.9"/>
<rect x="230" y="607" width="328" height="6" fill="#10b981" opacity="0.9"/>
<text x="798" y="610" font-family="Inter, Arial, sans-serif" font-size="11" fill="#374151">203.3M -> 189.1M (-7.0%)</text>
<text x="8" y="630" font-family="Inter, Arial, sans-serif" font-size="11" fill="#111827">max-u</text>
<rect x="230" y="619" width="363" height="6" fill="#3b82f6" opacity="0.9"/>
<rect x="230" y="627" width="318" height="6" fill="#10b981" opacity="0.9"/>
<text x="798" y="630" font-family="Inter, Arial, sans-serif" font-size="11" fill="#374151">209.1M -> 183.1M (-12.4%)</text>
<text x="8" y="650" font-family="Inter, Arial, sans-serif" font-size="11" fill="#111827">le-s</text>
<rect x="230" y="639" width="359" height="6" fill="#3b82f6" opacity="0.9"/>
<rect x="230" y="647" width="321" height="6" fill="#10b981" opacity="0.9"/>
<text x="798" y="650" font-family="Inter, Arial, sans-serif" font-size="11" fill="#374151">207.1M -> 184.9M (-10.7%)</text>
<text x="8" y="670" font-family="Inter, Arial, sans-serif" font-size="11" fill="#111827">gt-u</text>
<rect x="230" y="659" width="353" height="6" fill="#3b82f6" opacity="0.9"/>
<rect x="230" y="667" width="326" height="6" fill="#10b981" opacity="0.9"/>
<text x="798" y="670" font-family="Inter, Arial, sans-serif" font-size="11" fill="#374151">203.8M -> 188.0M (-7.8%)</text>
<text x="8" y="690" font-family="Inter, Arial, sans-serif" font-size="11" fill="#111827">mul</text>
<rect x="230" y="679" width="340" height="6" fill="#3b82f6" opacity="0.9"/>
<rect x="230" y="687" width="336" height="6" fill="#10b981" opacity="0.9"/>
<text x="798" y="690" font-family="Inter, Arial, sans-serif" font-size="11" fill="#374151">196.2M -> 193.5M (-1.4%)</text>
<text x="8" y="710" font-family="Inter, Arial, sans-serif" font-size="11" fill="#111827">ge-u</text>
<rect x="230" y="699" width="350" height="6" fill="#3b82f6" opacity="0.9"/>
<rect x="230" y="707" width="321" height="6" fill="#10b981" opacity="0.9"/>
<text x="798" y="710" font-family="Inter, Arial, sans-serif" font-size="11" fill="#374151">201.8M -> 185.2M (-8.3%)</text>
<text x="8" y="730" font-family="Inter, Arial, sans-serif" font-size="11" fill="#111827">ge-s</text>
<rect x="230" y="719" width="346" height="6" fill="#3b82f6" opacity="0.9"/>
<rect x="230" y="727" width="321" height="6" fill="#10b981" opacity="0.9"/>
<text x="798" y="730" font-family="Inter, Arial, sans-serif" font-size="11" fill="#374151">199.2M -> 184.8M (-7.2%)</text>
<text x="8" y="750" font-family="Inter, Arial, sans-serif" font-size="11" fill="#111827">max-s</text>
<rect x="230" y="739" width="354" height="6" fill="#3b82f6" opacity="0.9"/>
<rect x="230" y="747" width="308" height="6" fill="#10b981" opacity="0.9"/>
<text x="798" y="750" font-family="Inter, Arial, sans-serif" font-size="11" fill="#374151">204.0M -> 177.9M (-12.8%)</text>
<text x="8" y="770" font-family="Inter, Arial, sans-serif" font-size="11" fill="#111827">shl</text>
<rect x="230" y="759" width="330" height="6" fill="#3b82f6" opacity="0.9"/>
<rect x="230" y="767" width="295" height="6" fill="#10b981" opacity="0.9"/>
<text x="798" y="770" font-family="Inter, Arial, sans-serif" font-size="11" fill="#374151">190.2M -> 170.2M (-10.5%)</text>
<text x="8" y="790" font-family="Inter, Arial, sans-serif" font-size="11" fill="#111827">extmul-low-i8x8-u</text>
<rect x="230" y="779" width="328" height="6" fill="#3b82f6" opacity="0.9"/>
<rect x="230" y="787" width="291" height="6" fill="#10b981" opacity="0.9"/>
<text x="798" y="790" font-family="Inter, Arial, sans-serif" font-size="11" fill="#374151">189.2M -> 167.9M (-11.2%)</text>
<text x="8" y="810" font-family="Inter, Arial, sans-serif" font-size="11" fill="#111827">shr-u</text>
<rect x="230" y="799" width="324" height="6" fill="#3b82f6" opacity="0.9"/>
<rect x="230" y="807" width="291" height="6" fill="#10b981" opacity="0.9"/>
<text x="798" y="810" font-family="Inter, Arial, sans-serif" font-size="11" fill="#374151">186.8M -> 167.6M (-10.3%)</text>
<text x="8" y="830" font-family="Inter, Arial, sans-serif" font-size="11" fill="#111827">extmul-low-i8x8-s</text>
<rect x="230" y="819" width="315" height="6" fill="#3b82f6" opacity="0.9"/>
<rect x="230" y="827" width="288" height="6" fill="#10b981" opacity="0.9"/>
<text x="798" y="830" font-family="Inter, Arial, sans-serif" font-size="11" fill="#374151">181.4M -> 166.1M (-8.4%)</text>
<text x="8" y="850" font-family="Inter, Arial, sans-serif" font-size="11" fill="#111827">extmul-high-i8x8-u</text>
<rect x="230" y="839" width="292" height="6" fill="#3b82f6" opacity="0.9"/>
<rect x="230" y="847" width="307" height="6" fill="#10b981" opacity="0.9"/>
<text x="798" y="850" font-family="Inter, Arial, sans-serif" font-size="11" fill="#374151">168.5M -> 177.0M (5.1%)</text>
<text x="8" y="870" font-family="Inter, Arial, sans-serif" font-size="11" fill="#111827">narrow-i32x2-s</text>
<rect x="230" y="859" width="302" height="6" fill="#3b82f6" opacity="0.9"/>
<rect x="230" y="867" width="285" height="6" fill="#10b981" opacity="0.9"/>
<text x="798" y="870" font-family="Inter, Arial, sans-serif" font-size="11" fill="#374151">174.1M -> 164.4M (-5.6%)</text>
<text x="8" y="890" font-family="Inter, Arial, sans-serif" font-size="11" fill="#111827">shr-s</text>
<rect x="230" y="879" width="309" height="6" fill="#3b82f6" opacity="0.9"/>
<rect x="230" y="887" width="272" height="6" fill="#10b981" opacity="0.9"/>
<text x="798" y="890" font-family="Inter, Arial, sans-serif" font-size="11" fill="#374151">178.2M -> 156.8M (-12.0%)</text>
<text x="8" y="910" font-family="Inter, Arial, sans-serif" font-size="11" fill="#111827">narrow-i32x2-u</text>
<rect x="230" y="899" width="295" height="6" fill="#3b82f6" opacity="0.9"/>
<rect x="230" y="907" width="283" height="6" fill="#10b981" opacity="0.9"/>
<text x="798" y="910" font-family="Inter, Arial, sans-serif" font-size="11" fill="#374151">170.1M -> 163.2M (-4.0%)</text>
<text x="8" y="930" font-family="Inter, Arial, sans-serif" font-size="11" fill="#111827">replace-lane</text>
<rect x="230" y="919" width="298" height="6" fill="#3b82f6" opacity="0.9"/>
<rect x="230" y="927" width="276" height="6" fill="#10b981" opacity="0.9"/>
<text x="798" y="930" font-family="Inter, Arial, sans-serif" font-size="11" fill="#374151">171.9M -> 159.1M (-7.4%)</text>
<text x="8" y="950" font-family="Inter, Arial, sans-serif" font-size="11" fill="#111827">extmul-high-i8x8-s</text>
<rect x="230" y="939" width="303" height="6" fill="#3b82f6" opacity="0.9"/>
<rect x="230" y="947" width="270" height="6" fill="#10b981" opacity="0.9"/>
<text x="798" y="950" font-family="Inter, Arial, sans-serif" font-size="11" fill="#374151">174.4M -> 155.9M (-10.6%)</text>
<text x="8" y="970" font-family="Inter, Arial, sans-serif" font-size="11" fill="#111827">relaxed-laneselect</text>
<rect x="230" y="959" width="256" height="6" fill="#3b82f6" opacity="0.9"/>
<rect x="230" y="967" width="275" height="6" fill="#10b981" opacity="0.9"/>
<text x="798" y="970" font-family="Inter, Arial, sans-serif" font-size="11" fill="#374151">147.6M -> 158.5M (7.4%)</text>
<text x="8" y="990" font-family="Inter, Arial, sans-serif" font-size="11" fill="#111827">relaxed-q15mulr-s</text>
<rect x="230" y="979" width="221" height="6" fill="#3b82f6" opacity="0.9"/>
<rect x="230" y="987" width="225" height="6" fill="#10b981" opacity="0.9"/>
<text x="798" y="990" font-family="Inter, Arial, sans-serif" font-size="11" fill="#374151">127.6M -> 129.6M (1.5%)</text>
<text x="8" y="1010" font-family="Inter, Arial, sans-serif" font-size="11" fill="#111827">ctor</text>
<rect x="230" y="999" width="222" height="6" fill="#3b82f6" opacity="0.9"/>
<rect x="230" y="1007" width="221" height="6" fill="#10b981" opacity="0.9"/>
<text x="798" y="1010" font-family="Inter, Arial, sans-serif" font-size="11" fill="#374151">127.8M -> 127.6M (-0.1%)</text>
<text x="8" y="1030" font-family="Inter, Arial, sans-serif" font-size="11" fill="#111827">q15mulr-sat-s</text>
<rect x="230" y="1019" width="233" height="6" fill="#3b82f6" opacity="0.9"/>
<rect x="230" y="1027" width="210" height="6" fill="#10b981" opacity="0.9"/>
<text x="798" y="1030" font-family="Inter, Arial, sans-serif" font-size="11" fill="#374151">134.3M -> 121.1M (-9.9%)</text>
<text x="8" y="1050" font-family="Inter, Arial, sans-serif" font-size="11" fill="#111827">relaxed-dot-i8x8-i7x8-s</text>
<rect x="230" y="1039" width="151" height="6" fill="#3b82f6" opacity="0.9"/>
<rect x="230" y="1047" width="161" height="6" fill="#10b981" opacity="0.9"/>
<text x="798" y="1050" font-family="Inter, Arial, sans-serif" font-size="11" fill="#374151">87.1M -> 92.6M (6.3%)</text>
<text x="8" y="1070" font-family="Inter, Arial, sans-serif" font-size="11" fill="#111827">shuffle</text>
<rect x="230" y="1059" width="69" height="6" fill="#3b82f6" opacity="0.9"/>
<rect x="230" y="1067" width="71" height="6" fill="#10b981" opacity="0.9"/>
<text x="798" y="1070" font-family="Inter, Arial, sans-serif" font-size="11" fill="#374151">40.0M -> 41.0M (2.6%)</text>
</svg>
