<svg xmlns="http://www.w3.org/2000/svg" width="1030" height="816" viewBox="0 0 1030 816">
<rect x="0" y="0" width="1030" height="816" fill="#ffffff"/>
<text x="16" y="24" font-family="Inter, Arial, sans-serif" font-size="16" font-weight="700" fill="#111827">i16x8 SIMD vs SWAR</text>
<text x="16" y="42" font-family="Inter, Arial, sans-serif" font-size="12" fill="#4b5563">Blue: SIMD, Green: SWAR</text>
<text x="8" y="70" font-family="Inter, Arial, sans-serif" font-size="11" fill="#111827">abs</text>
<rect x="170" y="59" width="409" height="6" fill="#3b82f6" opacity="0.9"/>
<rect x="170" y="67" width="553" height="6" fill="#10b981" opacity="0.9"/>
<text x="738" y="70" font-family="Inter, Arial, sans-serif" font-size="11" fill="#374151">244.7M -> 330.4M (35.0%)</text>
<text x="8" y="90" font-family="Inter, Arial, sans-serif" font-size="11" fill="#111827">bitmask</text>
<rect x="170" y="79" width="402" height="6" fill="#3b82f6" opacity="0.9"/>
<rect x="170" y="87" width="560" height="6" fill="#10b981" opacity="0.9"/>
<text x="738" y="90" font-family="Inter, Arial, sans-serif" font-size="11" fill="#374151">240.1M -> 334.7M (39.4%)</text>
<text x="8" y="110" font-family="Inter, Arial, sans-serif" font-size="11" fill="#111827">extract-lane-s</text>
<rect x="170" y="99" width="420" height="6" fill="#3b82f6" opacity="0.9"/>
<rect x="170" y="107" width="512" height="6" fill="#10b981" opacity="0.9"/>
<text x="738" y="110" font-family="Inter, Arial, sans-serif" font-size="11" fill="#374151">251.0M -> 305.8M (21.9%)</text>
<text x="8" y="130" font-family="Inter, Arial, sans-serif" font-size="11" fill="#111827">extract-lane-u</text>
<rect x="170" y="119" width="418" height="6" fill="#3b82f6" opacity="0.9"/>
<rect x="170" y="127" width="499" height="6" fill="#10b981" opacity="0.9"/>
<text x="738" y="130" font-family="Inter, Arial, sans-serif" font-size="11" fill="#374151">249.8M -> 298.5M (19.5%)</text>
<text x="8" y="150" font-family="Inter, Arial, sans-serif" font-size="11" fill="#111827">neg</text>
<rect x="170" y="139" width="394" height="6" fill="#3b82f6" opacity="0.9"/>
<rect x="170" y="147" width="508" height="6" fill="#10b981" opacity="0.9"/>
<text x="738" y="150" font-family="Inter, Arial, sans-serif" font-size="11" fill="#374151">235.8M -> 303.6M (28.8%)</text>
<text x="8" y="170" font-family="Inter, Arial, sans-serif" font-size="11" fill="#111827">all-true</text>
<rect x="170" y="159" width="382" height="6" fill="#3b82f6" opacity="0.9"/>
<rect x="170" y="167" width="495" height="6" fill="#10b981" opacity="0.9"/>
<text x="738" y="170" font-family="Inter, Arial, sans-serif" font-size="11" fill="#374151">228.3M -> 295.6M (29.5%)</text>
<text x="8" y="190" font-family="Inter, Arial, sans-serif" font-size="11" fill="#111827">load</text>
<rect x="170" y="179" width="430" height="6" fill="#3b82f6" opacity="0.9"/>
<rect x="170" y="187" width="445" height="6" fill="#10b981" opacity="0.9"/>
<text x="738" y="190" font-family="Inter, Arial, sans-serif" font-size="11" fill="#374151">256.8M -> 266.2M (3.7%)</text>
<text x="8" y="210" font-family="Inter, Arial, sans-serif" font-size="11" fill="#111827">splat</text>
<rect x="170" y="199" width="422" height="6" fill="#3b82f6" opacity="0.9"/>
<rect x="170" y="207" width="441" height="6" fill="#10b981" opacity="0.9"/>
<text x="738" y="210" font-family="Inter, Arial, sans-serif" font-size="11" fill="#374151">252.5M -> 263.3M (4.3%)</text>
<text x="8" y="230" font-family="Inter, Arial, sans-serif" font-size="11" fill="#111827">mul</text>
<rect x="170" y="219" width="342" height="6" fill="#3b82f6" opacity="0.9"/>
<rect x="170" y="227" width="429" height="6" fill="#10b981" opacity="0.9"/>
<text x="738" y="230" font-family="Inter, Arial, sans-serif" font-size="11" fill="#374151">204.5M -> 256.6M (25.5%)</text>
<text x="8" y="250" font-family="Inter, Arial, sans-serif" font-size="11" fill="#111827">min-u</text>
<rect x="170" y="239" width="340" height="6" fill="#3b82f6" opacity="0.9"/>
<rect x="170" y="247" width="431" height="6" fill="#10b981" opacity="0.9"/>
<text x="738" y="250" font-family="Inter, Arial, sans-serif" font-size="11" fill="#374151">203.3M -> 257.7M (26.7%)</text>
<text x="8" y="270" font-family="Inter, Arial, sans-serif" font-size="11" fill="#111827">min-s</text>
<rect x="170" y="259" width="338" height="6" fill="#3b82f6" opacity="0.9"/>
<rect x="170" y="267" width="428" height="6" fill="#10b981" opacity="0.9"/>
<text x="738" y="270" font-family="Inter, Arial, sans-serif" font-size="11" fill="#374151">202.0M -> 256.1M (26.8%)</text>
<text x="8" y="290" font-family="Inter, Arial, sans-serif" font-size="11" fill="#111827">add</text>
<rect x="170" y="279" width="351" height="6" fill="#3b82f6" opacity="0.9"/>
<rect x="170" y="287" width="407" height="6" fill="#10b981" opacity="0.9"/>
<text x="738" y="290" font-family="Inter, Arial, sans-serif" font-size="11" fill="#374151">209.9M -> 243.5M (16.0%)</text>
<text x="8" y="310" font-family="Inter, Arial, sans-serif" font-size="11" fill="#111827">add-sat-s</text>
<rect x="170" y="299" width="319" height="6" fill="#3b82f6" opacity="0.9"/>
<rect x="170" y="307" width="436" height="6" fill="#10b981" opacity="0.9"/>
<text x="738" y="310" font-family="Inter, Arial, sans-serif" font-size="11" fill="#374151">190.8M -> 260.6M (36.6%)</text>
<text x="8" y="330" font-family="Inter, Arial, sans-serif" font-size="11" fill="#111827">sub-sat-s</text>
<rect x="170" y="319" width="321" height="6" fill="#3b82f6" opacity="0.9"/>
<rect x="170" y="327" width="433" height="6" fill="#10b981" opacity="0.9"/>
<text x="738" y="330" font-family="Inter, Arial, sans-serif" font-size="11" fill="#374151">192.0M -> 258.9M (34.9%)</text>
<text x="8" y="350" font-family="Inter, Arial, sans-serif" font-size="11" fill="#111827">max-s</text>
<rect x="170" y="339" width="322" height="6" fill="#3b82f6" opacity="0.9"/>
<rect x="170" y="347" width="432" height="6" fill="#10b981" opacity="0.9"/>
<text x="738" y="350" font-family="Inter, Arial, sans-serif" font-size="11" fill="#374151">192.2M -> 257.9M (34.2%)</text>
<text x="8" y="370" font-family="Inter, Arial, sans-serif" font-size="11" fill="#111827">add-sat-u</text>
<rect x="170" y="359" width="320" height="6" fill="#3b82f6" opacity="0.9"/>
<rect x="170" y="367" width="433" height="6" fill="#10b981" opacity="0.9"/>
<text x="738" y="370" font-family="Inter, Arial, sans-serif" font-size="11" fill="#374151">191.4M -> 258.6M (35.1%)</text>
<text x="8" y="390" font-family="Inter, Arial, sans-serif" font-size="11" fill="#111827">max-u</text>
<rect x="170" y="379" width="319" height="6" fill="#3b82f6" opacity="0.9"/>
<rect x="170" y="387" width="431" height="6" fill="#10b981" opacity="0.9"/>
<text x="738" y="390" font-family="Inter, Arial, sans-serif" font-size="11" fill="#374151">190.5M -> 257.6M (35.2%)</text>
<text x="8" y="410" font-family="Inter, Arial, sans-serif" font-size="11" fill="#111827">sub-sat-u</text>
<rect x="170" y="399" width="320" height="6" fill="#3b82f6" opacity="0.9"/>
<rect x="170" y="407" width="429" height="6" fill="#10b981" opacity="0.9"/>
<text x="738" y="410" font-family="Inter, Arial, sans-serif" font-size="11" fill="#374151">191.1M -> 256.3M (34.1%)</text>
<text x="8" y="430" font-family="Inter, Arial, sans-serif" font-size="11" fill="#111827">avgr-u</text>
<rect x="170" y="419" width="320" height="6" fill="#3b82f6" opacity="0.9"/>
<rect x="170" y="427" width="423" height="6" fill="#10b981" opacity="0.9"/>
<text x="738" y="430" font-family="Inter, Arial, sans-serif" font-size="11" fill="#374151">191.1M -> 253.1M (32.4%)</text>
<text x="8" y="450" font-family="Inter, Arial, sans-serif" font-size="11" fill="#111827">sub</text>
<rect x="170" y="439" width="324" height="6" fill="#3b82f6" opacity="0.9"/>
<rect x="170" y="447" width="418" height="6" fill="#10b981" opacity="0.9"/>
<text x="738" y="450" font-family="Inter, Arial, sans-serif" font-size="11" fill="#374151">193.6M -> 249.6M (28.9%)</text>
<text x="8" y="470" font-family="Inter, Arial, sans-serif" font-size="11" fill="#111827">le-u</text>
<rect x="170" y="459" width="311" height="6" fill="#3b82f6" opacity="0.9"/>
<rect x="170" y="467" width="418" height="6" fill="#10b981" opacity="0.9"/>
<text x="738" y="470" font-family="Inter, Arial, sans-serif" font-size="11" fill="#374151">186.0M -> 249.9M (34.4%)</text>
<text x="8" y="490" font-family="Inter, Arial, sans-serif" font-size="11" fill="#111827">le-s</text>
<rect x="170" y="479" width="313" height="6" fill="#3b82f6" opacity="0.9"/>
<rect x="170" y="487" width="412" height="6" fill="#10b981" opacity="0.9"/>
<text x="738" y="490" font-family="Inter, Arial, sans-serif" font-size="11" fill="#374151">186.9M -> 246.6M (31.9%)</text>
<text x="8" y="510" font-family="Inter, Arial, sans-serif" font-size="11" fill="#111827">lt-u</text>
<rect x="170" y="499" width="307" height="6" fill="#3b82f6" opacity="0.9"/>
<rect x="170" y="507" width="401" height="6" fill="#10b981" opacity="0.9"/>
<text x="738" y="510" font-family="Inter, Arial, sans-serif" font-size="11" fill="#374151">183.4M -> 239.4M (30.5%)</text>
<text x="8" y="530" font-family="Inter, Arial, sans-serif" font-size="11" fill="#111827">gt-s</text>
<rect x="170" y="519" width="317" height="6" fill="#3b82f6" opacity="0.9"/>
<rect x="170" y="527" width="389" height="6" fill="#10b981" opacity="0.9"/>
<text x="738" y="530" font-family="Inter, Arial, sans-serif" font-size="11" fill="#374151">189.6M -> 232.6M (22.7%)</text>
<text x="8" y="550" font-family="Inter, Arial, sans-serif" font-size="11" fill="#111827">eq</text>
<rect x="170" y="539" width="319" height="6" fill="#3b82f6" opacity="0.9"/>
<rect x="170" y="547" width="386" height="6" fill="#10b981" opacity="0.9"/>
<text x="738" y="550" font-family="Inter, Arial, sans-serif" font-size="11" fill="#374151">190.8M -> 230.9M (21.0%)</text>
<text x="8" y="570" font-family="Inter, Arial, sans-serif" font-size="11" fill="#111827">ge-s</text>
<rect x="170" y="559" width="318" height="6" fill="#3b82f6" opacity="0.9"/>
<rect x="170" y="567" width="388" height="6" fill="#10b981" opacity="0.9"/>
<text x="738" y="570" font-family="Inter, Arial, sans-serif" font-size="11" fill="#374151">189.9M -> 231.6M (22.0%)</text>
<text x="8" y="590" font-family="Inter, Arial, sans-serif" font-size="11" fill="#111827">lt-s</text>
<rect x="170" y="579" width="320" height="6" fill="#3b82f6" opacity="0.9"/>
<rect x="170" y="587" width="380" height="6" fill="#10b981" opacity="0.9"/>
<text x="738" y="590" font-family="Inter, Arial, sans-serif" font-size="11" fill="#374151">191.0M -> 227.4M (19.0%)</text>
<text x="8" y="610" font-family="Inter, Arial, sans-serif" font-size="11" fill="#111827">replace-lane</text>
<rect x="170" y="599" width="320" height="6" fill="#3b82f6" opacity="0.9"/>
<rect x="170" y="607" width="373" height="6" fill="#10b981" opacity="0.9"/>
<text x="738" y="610" font-family="Inter, Arial, sans-serif" font-size="11" fill="#374151">191.3M -> 222.9M (16.5%)</text>
<text x="8" y="630" font-family="Inter, Arial, sans-serif" font-size="11" fill="#111827">gt-u</text>
<rect x="170" y="619" width="308" height="6" fill="#3b82f6" opacity="0.9"/>
<rect x="170" y="627" width="376" height="6" fill="#10b981" opacity="0.9"/>
<text x="738" y="630" font-family="Inter, Arial, sans-serif" font-size="11" fill="#374151">183.8M -> 225.0M (22.4%)</text>
<text x="8" y="650" font-family="Inter, Arial, sans-serif" font-size="11" fill="#111827">ge-u</text>
<rect x="170" y="639" width="306" height="6" fill="#3b82f6" opacity="0.9"/>
<rect x="170" y="647" width="372" height="6" fill="#10b981" opacity="0.9"/>
<text x="738" y="650" font-family="Inter, Arial, sans-serif" font-size="11" fill="#374151">182.6M -> 222.3M (21.7%)</text>
<text x="8" y="670" font-family="Inter, Arial, sans-serif" font-size="11" fill="#111827">ne</text>
<rect x="170" y="659" width="309" height="6" fill="#3b82f6" opacity="0.9"/>
<rect x="170" y="667" width="366" height="6" fill="#10b981" opacity="0.9"/>
<text x="738" y="670" font-family="Inter, Arial, sans-serif" font-size="11" fill="#374151">184.9M -> 218.9M (18.4%)</text>
<text x="8" y="690" font-family="Inter, Arial, sans-serif" font-size="11" fill="#111827">shr-s</text>
<rect x="170" y="679" width="275" height="6" fill="#3b82f6" opacity="0.9"/>
<rect x="170" y="687" width="378" height="6" fill="#10b981" opacity="0.9"/>
<text x="738" y="690" font-family="Inter, Arial, sans-serif" font-size="11" fill="#374151">164.2M -> 225.7M (37.4%)</text>
<text x="8" y="710" font-family="Inter, Arial, sans-serif" font-size="11" fill="#111827">shl</text>
<rect x="170" y="699" width="277" height="6" fill="#3b82f6" opacity="0.9"/>
<rect x="170" y="707" width="375" height="6" fill="#10b981" opacity="0.9"/>
<text x="738" y="710" font-family="Inter, Arial, sans-serif" font-size="11" fill="#374151">165.8M -> 224.1M (35.1%)</text>
<text x="8" y="730" font-family="Inter, Arial, sans-serif" font-size="11" fill="#111827">shr-u</text>
<rect x="170" y="719" width="277" height="6" fill="#3b82f6" opacity="0.9"/>
<rect x="170" y="727" width="371" height="6" fill="#10b981" opacity="0.9"/>
<text x="738" y="730" font-family="Inter, Arial, sans-serif" font-size="11" fill="#374151">165.4M -> 221.7M (34.0%)</text>
<text x="8" y="750" font-family="Inter, Arial, sans-serif" font-size="11" fill="#111827">store</text>
<rect x="170" y="739" width="309" height="6" fill="#3b82f6" opacity="0.9"/>
<rect x="170" y="747" width="330" height="6" fill="#10b981" opacity="0.9"/>
<text x="738" y="750" font-family="Inter, Arial, sans-serif" font-size="11" fill="#374151">184.7M -> 197.3M (6.8%)</text>
<text x="8" y="770" font-family="Inter, Arial, sans-serif" font-size="11" fill="#111827">load-partial</text>
<rect x="170" y="759" width="75" height="6" fill="#3b82f6" opacity="0.9"/>
<rect x="170" y="767" width="85" height="6" fill="#10b981" opacity="0.9"/>
<text x="738" y="770" font-family="Inter, Arial, sans-serif" font-size="11" fill="#374151">45.1M -> 50.9M (12.8%)</text>
<text x="8" y="790" font-family="Inter, Arial, sans-serif" font-size="11" fill="#111827">store-partial</text>
<rect x="170" y="779" width="68" height="6" fill="#3b82f6" opacity="0.9"/>
<rect x="170" y="787" width="76" height="6" fill="#10b981" opacity="0.9"/>
<text x="738" y="790" font-family="Inter, Arial, sans-serif" font-size="11" fill="#374151">40.5M -> 45.7M (12.7%)</text>
</svg>
