<svg xmlns="http://www.w3.org/2000/svg" width="1150" height="936" viewBox="0 0 1150 936">
<rect x="0" y="0" width="1150" height="936" fill="#ffffff"/>
<text x="16" y="24" font-family="Inter, Arial, sans-serif" font-size="16" font-weight="700" fill="#111827">i32x2 (SWAR) vs i32x4 (SIMD)</text>
<text x="16" y="42" font-family="Inter, Arial, sans-serif" font-size="12" fill="#4b5563">Blue: i32x2 (swar), Green: i32x4 (simd)</text>
<text x="8" y="70" font-family="Inter, Arial, sans-serif" font-size="11" fill="#111827">load</text>
<rect x="230" y="59" width="560" height="6" fill="#3b82f6" opacity="0.9"/>
<rect x="230" y="67" width="405" height="6" fill="#10b981" opacity="0.9"/>
<text x="798" y="70" font-family="Inter, Arial, sans-serif" font-size="11" fill="#374151">341.2M -> 246.9M (-27.7%)</text>
<text x="8" y="90" font-family="Inter, Arial, sans-serif" font-size="11" fill="#111827">bitmask</text>
<rect x="230" y="79" width="502" height="6" fill="#3b82f6" opacity="0.9"/>
<rect x="230" y="87" width="432" height="6" fill="#10b981" opacity="0.9"/>
<text x="798" y="90" font-family="Inter, Arial, sans-serif" font-size="11" fill="#374151">305.8M -> 263.2M (-13.9%)</text>
<text x="8" y="110" font-family="Inter, Arial, sans-serif" font-size="11" fill="#111827">extend-low-i16x8-u</text>
<rect x="230" y="99" width="499" height="6" fill="#3b82f6" opacity="0.9"/>
<rect x="230" y="107" width="421" height="6" fill="#10b981" opacity="0.9"/>
<text x="798" y="110" font-family="Inter, Arial, sans-serif" font-size="11" fill="#374151">304.1M -> 256.8M (-15.6%)</text>
<text x="8" y="130" font-family="Inter, Arial, sans-serif" font-size="11" fill="#111827">neg</text>
<rect x="230" y="119" width="477" height="6" fill="#3b82f6" opacity="0.9"/>
<rect x="230" y="127" width="436" height="6" fill="#10b981" opacity="0.9"/>
<text x="798" y="130" font-family="Inter, Arial, sans-serif" font-size="11" fill="#374151">290.5M -> 266.0M (-8.4%)</text>
<text x="8" y="150" font-family="Inter, Arial, sans-serif" font-size="11" fill="#111827">extend-high-i16x8-u</text>
<rect x="230" y="139" width="490" height="6" fill="#3b82f6" opacity="0.9"/>
<rect x="230" y="147" width="415" height="6" fill="#10b981" opacity="0.9"/>
<text x="798" y="150" font-family="Inter, Arial, sans-serif" font-size="11" fill="#374151">298.3M -> 252.8M (-15.3%)</text>
<text x="8" y="170" font-family="Inter, Arial, sans-serif" font-size="11" fill="#111827">extend-low-i16x8-s</text>
<rect x="230" y="159" width="470" height="6" fill="#3b82f6" opacity="0.9"/>
<rect x="230" y="167" width="429" height="6" fill="#10b981" opacity="0.9"/>
<text x="798" y="170" font-family="Inter, Arial, sans-serif" font-size="11" fill="#374151">286.3M -> 261.4M (-8.7%)</text>
<text x="8" y="190" font-family="Inter, Arial, sans-serif" font-size="11" fill="#111827">splat</text>
<rect x="230" y="179" width="501" height="6" fill="#3b82f6" opacity="0.9"/>
<rect x="230" y="187" width="390" height="6" fill="#10b981" opacity="0.9"/>
<text x="798" y="190" font-family="Inter, Arial, sans-serif" font-size="11" fill="#374151">305.2M -> 237.7M (-22.1%)</text>
<text x="8" y="210" font-family="Inter, Arial, sans-serif" font-size="11" fill="#111827">all-true</text>
<rect x="230" y="199" width="460" height="6" fill="#3b82f6" opacity="0.9"/>
<rect x="230" y="207" width="422" height="6" fill="#10b981" opacity="0.9"/>
<text x="798" y="210" font-family="Inter, Arial, sans-serif" font-size="11" fill="#374151">280.3M -> 257.1M (-8.3%)</text>
<text x="8" y="230" font-family="Inter, Arial, sans-serif" font-size="11" fill="#111827">abs</text>
<rect x="230" y="219" width="433" height="6" fill="#3b82f6" opacity="0.9"/>
<rect x="230" y="227" width="443" height="6" fill="#10b981" opacity="0.9"/>
<text x="798" y="230" font-family="Inter, Arial, sans-serif" font-size="11" fill="#374151">263.8M -> 269.6M (2.2%)</text>
<text x="8" y="250" font-family="Inter, Arial, sans-serif" font-size="11" fill="#111827">extend-high-i16x8-s</text>
<rect x="230" y="239" width="460" height="6" fill="#3b82f6" opacity="0.9"/>
<rect x="230" y="247" width="410" height="6" fill="#10b981" opacity="0.9"/>
<text x="798" y="250" font-family="Inter, Arial, sans-serif" font-size="11" fill="#374151">280.4M -> 249.9M (-10.9%)</text>
<text x="8" y="270" font-family="Inter, Arial, sans-serif" font-size="11" fill="#111827">extadd-pairwise-i16x8-s</text>
<rect x="230" y="259" width="442" height="6" fill="#3b82f6" opacity="0.9"/>
<rect x="230" y="267" width="419" height="6" fill="#10b981" opacity="0.9"/>
<text x="798" y="270" font-family="Inter, Arial, sans-serif" font-size="11" fill="#374151">269.1M -> 255.4M (-5.1%)</text>
<text x="8" y="290" font-family="Inter, Arial, sans-serif" font-size="11" fill="#111827">extadd-pairwise-i16x8-u</text>
<rect x="230" y="279" width="446" height="6" fill="#3b82f6" opacity="0.9"/>
<rect x="230" y="287" width="402" height="6" fill="#10b981" opacity="0.9"/>
<text x="798" y="290" font-family="Inter, Arial, sans-serif" font-size="11" fill="#374151">271.9M -> 244.7M (-10.0%)</text>
<text x="8" y="310" font-family="Inter, Arial, sans-serif" font-size="11" fill="#111827">extract-lane</text>
<rect x="230" y="299" width="402" height="6" fill="#3b82f6" opacity="0.9"/>
<rect x="230" y="307" width="425" height="6" fill="#10b981" opacity="0.9"/>
<text x="798" y="310" font-family="Inter, Arial, sans-serif" font-size="11" fill="#374151">244.8M -> 258.9M (5.7%)</text>
<text x="8" y="330" font-family="Inter, Arial, sans-serif" font-size="11" fill="#111827">add</text>
<rect x="230" y="319" width="378" height="6" fill="#3b82f6" opacity="0.9"/>
<rect x="230" y="327" width="350" height="6" fill="#10b981" opacity="0.9"/>
<text x="798" y="330" font-family="Inter, Arial, sans-serif" font-size="11" fill="#374151">230.4M -> 213.3M (-7.4%)</text>
<text x="8" y="350" font-family="Inter, Arial, sans-serif" font-size="11" fill="#111827">eq</text>
<rect x="230" y="339" width="367" height="6" fill="#3b82f6" opacity="0.9"/>
<rect x="230" y="347" width="346" height="6" fill="#10b981" opacity="0.9"/>
<text x="798" y="350" font-family="Inter, Arial, sans-serif" font-size="11" fill="#374151">223.9M -> 210.7M (-5.9%)</text>
<text x="8" y="370" font-family="Inter, Arial, sans-serif" font-size="11" fill="#111827">sub</text>
<rect x="230" y="359" width="364" height="6" fill="#3b82f6" opacity="0.9"/>
<rect x="230" y="367" width="347" height="6" fill="#10b981" opacity="0.9"/>
<text x="798" y="370" font-family="Inter, Arial, sans-serif" font-size="11" fill="#374151">221.8M -> 211.7M (-4.6%)</text>
<text x="8" y="390" font-family="Inter, Arial, sans-serif" font-size="11" fill="#111827">ne</text>
<rect x="230" y="379" width="365" height="6" fill="#3b82f6" opacity="0.9"/>
<rect x="230" y="387" width="342" height="6" fill="#10b981" opacity="0.9"/>
<text x="798" y="390" font-family="Inter, Arial, sans-serif" font-size="11" fill="#374151">222.5M -> 208.5M (-6.3%)</text>
<text x="8" y="410" font-family="Inter, Arial, sans-serif" font-size="11" fill="#111827">mul</text>
<rect x="230" y="399" width="345" height="6" fill="#3b82f6" opacity="0.9"/>
<rect x="230" y="407" width="344" height="6" fill="#10b981" opacity="0.9"/>
<text x="798" y="410" font-family="Inter, Arial, sans-serif" font-size="11" fill="#374151">210.3M -> 209.7M (-0.3%)</text>
<text x="8" y="430" font-family="Inter, Arial, sans-serif" font-size="11" fill="#111827">lt-s</text>
<rect x="230" y="419" width="331" height="6" fill="#3b82f6" opacity="0.9"/>
<rect x="230" y="427" width="351" height="6" fill="#10b981" opacity="0.9"/>
<text x="798" y="430" font-family="Inter, Arial, sans-serif" font-size="11" fill="#374151">201.9M -> 213.6M (5.8%)</text>
<text x="8" y="450" font-family="Inter, Arial, sans-serif" font-size="11" fill="#111827">max-u</text>
<rect x="230" y="439" width="313" height="6" fill="#3b82f6" opacity="0.9"/>
<rect x="230" y="447" width="352" height="6" fill="#10b981" opacity="0.9"/>
<text x="798" y="450" font-family="Inter, Arial, sans-serif" font-size="11" fill="#374151">190.6M -> 214.6M (12.6%)</text>
<text x="8" y="470" font-family="Inter, Arial, sans-serif" font-size="11" fill="#111827">le-s</text>
<rect x="230" y="459" width="328" height="6" fill="#3b82f6" opacity="0.9"/>
<rect x="230" y="467" width="336" height="6" fill="#10b981" opacity="0.9"/>
<text x="798" y="470" font-family="Inter, Arial, sans-serif" font-size="11" fill="#374151">200.0M -> 204.8M (2.4%)</text>
<text x="8" y="490" font-family="Inter, Arial, sans-serif" font-size="11" fill="#111827">le-u</text>
<rect x="230" y="479" width="325" height="6" fill="#3b82f6" opacity="0.9"/>
<rect x="230" y="487" width="339" height="6" fill="#10b981" opacity="0.9"/>
<text x="798" y="490" font-family="Inter, Arial, sans-serif" font-size="11" fill="#374151">198.2M -> 206.2M (4.1%)</text>
<text x="8" y="510" font-family="Inter, Arial, sans-serif" font-size="11" fill="#111827">store</text>
<rect x="230" y="499" width="367" height="6" fill="#3b82f6" opacity="0.9"/>
<rect x="230" y="507" width="296" height="6" fill="#10b981" opacity="0.9"/>
<text x="798" y="510" font-family="Inter, Arial, sans-serif" font-size="11" fill="#374151">223.5M -> 180.4M (-19.3%)</text>
<text x="8" y="530" font-family="Inter, Arial, sans-serif" font-size="11" fill="#111827">extmul-low-i16x8-u</text>
<rect x="230" y="519" width="337" height="6" fill="#3b82f6" opacity="0.9"/>
<rect x="230" y="527" width="325" height="6" fill="#10b981" opacity="0.9"/>
<text x="798" y="530" font-family="Inter, Arial, sans-serif" font-size="11" fill="#374151">205.5M -> 198.1M (-3.6%)</text>
<text x="8" y="550" font-family="Inter, Arial, sans-serif" font-size="11" fill="#111827">extmul-low-i16x8-s</text>
<rect x="230" y="539" width="337" height="6" fill="#3b82f6" opacity="0.9"/>
<rect x="230" y="547" width="324" height="6" fill="#10b981" opacity="0.9"/>
<text x="798" y="550" font-family="Inter, Arial, sans-serif" font-size="11" fill="#374151">205.3M -> 197.7M (-3.7%)</text>
<text x="8" y="570" font-family="Inter, Arial, sans-serif" font-size="11" fill="#111827">lt-u</text>
<rect x="230" y="559" width="330" height="6" fill="#3b82f6" opacity="0.9"/>
<rect x="230" y="567" width="330" height="6" fill="#10b981" opacity="0.9"/>
<text x="798" y="570" font-family="Inter, Arial, sans-serif" font-size="11" fill="#374151">201.2M -> 201.1M (-0.0%)</text>
<text x="8" y="590" font-family="Inter, Arial, sans-serif" font-size="11" fill="#111827">gt-s</text>
<rect x="230" y="579" width="313" height="6" fill="#3b82f6" opacity="0.9"/>
<rect x="230" y="587" width="346" height="6" fill="#10b981" opacity="0.9"/>
<text x="798" y="590" font-family="Inter, Arial, sans-serif" font-size="11" fill="#374151">191.0M -> 210.6M (10.3%)</text>
<text x="8" y="610" font-family="Inter, Arial, sans-serif" font-size="11" fill="#111827">gt-u</text>
<rect x="230" y="599" width="329" height="6" fill="#3b82f6" opacity="0.9"/>
<rect x="230" y="607" width="329" height="6" fill="#10b981" opacity="0.9"/>
<text x="798" y="610" font-family="Inter, Arial, sans-serif" font-size="11" fill="#374151">200.4M -> 200.3M (-0.1%)</text>
<text x="8" y="630" font-family="Inter, Arial, sans-serif" font-size="11" fill="#111827">min-u</text>
<rect x="230" y="619" width="306" height="6" fill="#3b82f6" opacity="0.9"/>
<rect x="230" y="627" width="351" height="6" fill="#10b981" opacity="0.9"/>
<text x="798" y="630" font-family="Inter, Arial, sans-serif" font-size="11" fill="#374151">186.6M -> 214.0M (14.7%)</text>
<text x="8" y="650" font-family="Inter, Arial, sans-serif" font-size="11" fill="#111827">ge-u</text>
<rect x="230" y="639" width="321" height="6" fill="#3b82f6" opacity="0.9"/>
<rect x="230" y="647" width="333" height="6" fill="#10b981" opacity="0.9"/>
<text x="798" y="650" font-family="Inter, Arial, sans-serif" font-size="11" fill="#374151">195.6M -> 202.7M (3.6%)</text>
<text x="8" y="670" font-family="Inter, Arial, sans-serif" font-size="11" fill="#111827">min-s</text>
<rect x="230" y="659" width="301" height="6" fill="#3b82f6" opacity="0.9"/>
<rect x="230" y="667" width="352" height="6" fill="#10b981" opacity="0.9"/>
<text x="798" y="670" font-family="Inter, Arial, sans-serif" font-size="11" fill="#374151">183.6M -> 214.4M (16.8%)</text>
<text x="8" y="690" font-family="Inter, Arial, sans-serif" font-size="11" fill="#111827">max-s</text>
<rect x="230" y="679" width="301" height="6" fill="#3b82f6" opacity="0.9"/>
<rect x="230" y="687" width="351" height="6" fill="#10b981" opacity="0.9"/>
<text x="798" y="690" font-family="Inter, Arial, sans-serif" font-size="11" fill="#374151">183.1M -> 214.2M (16.9%)</text>
<text x="8" y="710" font-family="Inter, Arial, sans-serif" font-size="11" fill="#111827">extmul-high-i16x8-u</text>
<rect x="230" y="699" width="328" height="6" fill="#3b82f6" opacity="0.9"/>
<rect x="230" y="707" width="323" height="6" fill="#10b981" opacity="0.9"/>
<text x="798" y="710" font-family="Inter, Arial, sans-serif" font-size="11" fill="#374151">199.6M -> 197.1M (-1.2%)</text>
<text x="8" y="730" font-family="Inter, Arial, sans-serif" font-size="11" fill="#111827">extmul-high-i16x8-s</text>
<rect x="230" y="719" width="324" height="6" fill="#3b82f6" opacity="0.9"/>
<rect x="230" y="727" width="326" height="6" fill="#10b981" opacity="0.9"/>
<text x="798" y="730" font-family="Inter, Arial, sans-serif" font-size="11" fill="#374151">197.4M -> 198.3M (0.5%)</text>
<text x="8" y="750" font-family="Inter, Arial, sans-serif" font-size="11" fill="#111827">dot-i16x8-s</text>
<rect x="230" y="739" width="273" height="6" fill="#3b82f6" opacity="0.9"/>
<rect x="230" y="747" width="358" height="6" fill="#10b981" opacity="0.9"/>
<text x="798" y="750" font-family="Inter, Arial, sans-serif" font-size="11" fill="#374151">166.3M -> 218.2M (31.2%)</text>
<text x="8" y="770" font-family="Inter, Arial, sans-serif" font-size="11" fill="#111827">ge-s</text>
<rect x="230" y="759" width="316" height="6" fill="#3b82f6" opacity="0.9"/>
<rect x="230" y="767" width="309" height="6" fill="#10b981" opacity="0.9"/>
<text x="798" y="770" font-family="Inter, Arial, sans-serif" font-size="11" fill="#374151">192.6M -> 188.1M (-2.4%)</text>
<text x="8" y="790" font-family="Inter, Arial, sans-serif" font-size="11" fill="#111827">shl</text>
<rect x="230" y="779" width="311" height="6" fill="#3b82f6" opacity="0.9"/>
<rect x="230" y="787" width="304" height="6" fill="#10b981" opacity="0.9"/>
<text x="798" y="790" font-family="Inter, Arial, sans-serif" font-size="11" fill="#374151">189.7M -> 185.4M (-2.2%)</text>
<text x="8" y="810" font-family="Inter, Arial, sans-serif" font-size="11" fill="#111827">shr-u</text>
<rect x="230" y="799" width="308" height="6" fill="#3b82f6" opacity="0.9"/>
<rect x="230" y="807" width="305" height="6" fill="#10b981" opacity="0.9"/>
<text x="798" y="810" font-family="Inter, Arial, sans-serif" font-size="11" fill="#374151">187.7M -> 185.6M (-1.1%)</text>
<text x="8" y="830" font-family="Inter, Arial, sans-serif" font-size="11" fill="#111827">shr-s</text>
<rect x="230" y="819" width="292" height="6" fill="#3b82f6" opacity="0.9"/>
<rect x="230" y="827" width="305" height="6" fill="#10b981" opacity="0.9"/>
<text x="798" y="830" font-family="Inter, Arial, sans-serif" font-size="11" fill="#374151">177.6M -> 185.6M (4.5%)</text>
<text x="8" y="850" font-family="Inter, Arial, sans-serif" font-size="11" fill="#111827">replace-lane</text>
<rect x="230" y="839" width="277" height="6" fill="#3b82f6" opacity="0.9"/>
<rect x="230" y="847" width="307" height="6" fill="#10b981" opacity="0.9"/>
<text x="798" y="850" font-family="Inter, Arial, sans-serif" font-size="11" fill="#374151">169.0M -> 187.0M (10.7%)</text>
<text x="8" y="870" font-family="Inter, Arial, sans-serif" font-size="11" fill="#111827">shuffle</text>
<rect x="230" y="859" width="93" height="6" fill="#3b82f6" opacity="0.9"/>
<rect x="230" y="867" width="333" height="6" fill="#10b981" opacity="0.9"/>
<text x="798" y="870" font-family="Inter, Arial, sans-serif" font-size="11" fill="#374151">56.6M -> 202.7M (258.3%)</text>
<text x="8" y="890" font-family="Inter, Arial, sans-serif" font-size="11" fill="#111827">load-partial</text>
<rect x="230" y="879" width="111" height="6" fill="#3b82f6" opacity="0.9"/>
<rect x="230" y="887" width="85" height="6" fill="#10b981" opacity="0.9"/>
<text x="798" y="890" font-family="Inter, Arial, sans-serif" font-size="11" fill="#374151">67.8M -> 52.0M (-23.3%)</text>
<text x="8" y="910" font-family="Inter, Arial, sans-serif" font-size="11" fill="#111827">store-partial</text>
<rect x="230" y="899" width="110" height="6" fill="#3b82f6" opacity="0.9"/>
<rect x="230" y="907" width="70" height="6" fill="#10b981" opacity="0.9"/>
<text x="798" y="910" font-family="Inter, Arial, sans-serif" font-size="11" fill="#374151">66.8M -> 42.9M (-35.8%)</text>
</svg>
