<svg xmlns="http://www.w3.org/2000/svg" width="1030" height="816" viewBox="0 0 1030 816">
<rect x="0" y="0" width="1030" height="816" fill="#ffffff"/>
<text x="16" y="24" font-family="Inter, Arial, sans-serif" font-size="16" font-weight="700" fill="#111827">i8x16 SIMD vs SWAR</text>
<text x="16" y="42" font-family="Inter, Arial, sans-serif" font-size="12" fill="#4b5563">Blue: SIMD, Green: SWAR</text>
<text x="8" y="70" font-family="Inter, Arial, sans-serif" font-size="11" fill="#111827">bitmask</text>
<rect x="170" y="59" width="466" height="6" fill="#3b82f6" opacity="0.9"/>
<rect x="170" y="67" width="560" height="6" fill="#10b981" opacity="0.9"/>
<text x="738" y="70" font-family="Inter, Arial, sans-serif" font-size="11" fill="#374151">267.1M -> 320.8M (20.1%)</text>
<text x="8" y="90" font-family="Inter, Arial, sans-serif" font-size="11" fill="#111827">abs</text>
<rect x="170" y="79" width="447" height="6" fill="#3b82f6" opacity="0.9"/>
<rect x="170" y="87" width="517" height="6" fill="#10b981" opacity="0.9"/>
<text x="738" y="90" font-family="Inter, Arial, sans-serif" font-size="11" fill="#374151">256.1M -> 295.9M (15.5%)</text>
<text x="8" y="110" font-family="Inter, Arial, sans-serif" font-size="11" fill="#111827">all-true</text>
<rect x="170" y="99" width="449" height="6" fill="#3b82f6" opacity="0.9"/>
<rect x="170" y="107" width="514" height="6" fill="#10b981" opacity="0.9"/>
<text x="738" y="110" font-family="Inter, Arial, sans-serif" font-size="11" fill="#374151">257.3M -> 294.2M (14.4%)</text>
<text x="8" y="130" font-family="Inter, Arial, sans-serif" font-size="11" fill="#111827">extract-lane-s</text>
<rect x="170" y="119" width="452" height="6" fill="#3b82f6" opacity="0.9"/>
<rect x="170" y="127" width="510" height="6" fill="#10b981" opacity="0.9"/>
<text x="738" y="130" font-family="Inter, Arial, sans-serif" font-size="11" fill="#374151">258.8M -> 292.2M (12.9%)</text>
<text x="8" y="150" font-family="Inter, Arial, sans-serif" font-size="11" fill="#111827">splat</text>
<rect x="170" y="139" width="462" height="6" fill="#3b82f6" opacity="0.9"/>
<rect x="170" y="147" width="497" height="6" fill="#10b981" opacity="0.9"/>
<text x="738" y="150" font-family="Inter, Arial, sans-serif" font-size="11" fill="#374151">264.4M -> 284.8M (7.7%)</text>
<text x="8" y="170" font-family="Inter, Arial, sans-serif" font-size="11" fill="#111827">extract-lane-u</text>
<rect x="170" y="159" width="436" height="6" fill="#3b82f6" opacity="0.9"/>
<rect x="170" y="167" width="522" height="6" fill="#10b981" opacity="0.9"/>
<text x="738" y="170" font-family="Inter, Arial, sans-serif" font-size="11" fill="#374151">249.6M -> 299.0M (19.8%)</text>
<text x="8" y="190" font-family="Inter, Arial, sans-serif" font-size="11" fill="#111827">neg</text>
<rect x="170" y="179" width="440" height="6" fill="#3b82f6" opacity="0.9"/>
<rect x="170" y="187" width="497" height="6" fill="#10b981" opacity="0.9"/>
<text x="738" y="190" font-family="Inter, Arial, sans-serif" font-size="11" fill="#374151">252.2M -> 284.4M (12.8%)</text>
<text x="8" y="210" font-family="Inter, Arial, sans-serif" font-size="11" fill="#111827">load</text>
<rect x="170" y="199" width="416" height="6" fill="#3b82f6" opacity="0.9"/>
<rect x="170" y="207" width="516" height="6" fill="#10b981" opacity="0.9"/>
<text x="738" y="210" font-family="Inter, Arial, sans-serif" font-size="11" fill="#374151">238.5M -> 295.6M (23.9%)</text>
<text x="8" y="230" font-family="Inter, Arial, sans-serif" font-size="11" fill="#111827">popcnt</text>
<rect x="170" y="219" width="393" height="6" fill="#3b82f6" opacity="0.9"/>
<rect x="170" y="227" width="449" height="6" fill="#10b981" opacity="0.9"/>
<text x="738" y="230" font-family="Inter, Arial, sans-serif" font-size="11" fill="#374151">225.4M -> 257.3M (14.2%)</text>
<text x="8" y="250" font-family="Inter, Arial, sans-serif" font-size="11" fill="#111827">sub-sat-u</text>
<rect x="170" y="239" width="382" height="6" fill="#3b82f6" opacity="0.9"/>
<rect x="170" y="247" width="430" height="6" fill="#10b981" opacity="0.9"/>
<text x="738" y="250" font-family="Inter, Arial, sans-serif" font-size="11" fill="#374151">219.0M -> 246.2M (12.4%)</text>
<text x="8" y="270" font-family="Inter, Arial, sans-serif" font-size="11" fill="#111827">lt-s</text>
<rect x="170" y="259" width="355" height="6" fill="#3b82f6" opacity="0.9"/>
<rect x="170" y="267" width="440" height="6" fill="#10b981" opacity="0.9"/>
<text x="738" y="270" font-family="Inter, Arial, sans-serif" font-size="11" fill="#374151">203.6M -> 252.0M (23.7%)</text>
<text x="8" y="290" font-family="Inter, Arial, sans-serif" font-size="11" fill="#111827">eq</text>
<rect x="170" y="279" width="355" height="6" fill="#3b82f6" opacity="0.9"/>
<rect x="170" y="287" width="438" height="6" fill="#10b981" opacity="0.9"/>
<text x="738" y="290" font-family="Inter, Arial, sans-serif" font-size="11" fill="#374151">203.4M -> 250.9M (23.4%)</text>
<text x="8" y="310" font-family="Inter, Arial, sans-serif" font-size="11" fill="#111827">gt-s</text>
<rect x="170" y="299" width="352" height="6" fill="#3b82f6" opacity="0.9"/>
<rect x="170" y="307" width="441" height="6" fill="#10b981" opacity="0.9"/>
<text x="738" y="310" font-family="Inter, Arial, sans-serif" font-size="11" fill="#374151">201.8M -> 252.3M (25.0%)</text>
<text x="8" y="330" font-family="Inter, Arial, sans-serif" font-size="11" fill="#111827">le-s</text>
<rect x="170" y="319" width="348" height="6" fill="#3b82f6" opacity="0.9"/>
<rect x="170" y="327" width="434" height="6" fill="#10b981" opacity="0.9"/>
<text x="738" y="330" font-family="Inter, Arial, sans-serif" font-size="11" fill="#374151">199.1M -> 248.5M (24.8%)</text>
<text x="8" y="350" font-family="Inter, Arial, sans-serif" font-size="11" fill="#111827">ge-s</text>
<rect x="170" y="339" width="345" height="6" fill="#3b82f6" opacity="0.9"/>
<rect x="170" y="347" width="431" height="6" fill="#10b981" opacity="0.9"/>
<text x="738" y="350" font-family="Inter, Arial, sans-serif" font-size="11" fill="#374151">197.6M -> 247.1M (25.1%)</text>
<text x="8" y="370" font-family="Inter, Arial, sans-serif" font-size="11" fill="#111827">le-u</text>
<rect x="170" y="359" width="342" height="6" fill="#3b82f6" opacity="0.9"/>
<rect x="170" y="367" width="433" height="6" fill="#10b981" opacity="0.9"/>
<text x="738" y="370" font-family="Inter, Arial, sans-serif" font-size="11" fill="#374151">196.1M -> 247.9M (26.4%)</text>
<text x="8" y="390" font-family="Inter, Arial, sans-serif" font-size="11" fill="#111827">ge-u</text>
<rect x="170" y="379" width="345" height="6" fill="#3b82f6" opacity="0.9"/>
<rect x="170" y="387" width="430" height="6" fill="#10b981" opacity="0.9"/>
<text x="738" y="390" font-family="Inter, Arial, sans-serif" font-size="11" fill="#374151">197.6M -> 246.2M (24.6%)</text>
<text x="8" y="410" font-family="Inter, Arial, sans-serif" font-size="11" fill="#111827">min-s</text>
<rect x="170" y="399" width="351" height="6" fill="#3b82f6" opacity="0.9"/>
<rect x="170" y="407" width="423" height="6" fill="#10b981" opacity="0.9"/>
<text x="738" y="410" font-family="Inter, Arial, sans-serif" font-size="11" fill="#374151">200.9M -> 242.1M (20.5%)</text>
<text x="8" y="430" font-family="Inter, Arial, sans-serif" font-size="11" fill="#111827">add</text>
<rect x="170" y="419" width="353" height="6" fill="#3b82f6" opacity="0.9"/>
<rect x="170" y="427" width="420" height="6" fill="#10b981" opacity="0.9"/>
<text x="738" y="430" font-family="Inter, Arial, sans-serif" font-size="11" fill="#374151">202.0M -> 240.8M (19.2%)</text>
<text x="8" y="450" font-family="Inter, Arial, sans-serif" font-size="11" fill="#111827">sub</text>
<rect x="170" y="439" width="350" height="6" fill="#3b82f6" opacity="0.9"/>
<rect x="170" y="447" width="423" height="6" fill="#10b981" opacity="0.9"/>
<text x="738" y="450" font-family="Inter, Arial, sans-serif" font-size="11" fill="#374151">200.2M -> 242.4M (21.1%)</text>
<text x="8" y="470" font-family="Inter, Arial, sans-serif" font-size="11" fill="#111827">ne</text>
<rect x="170" y="459" width="343" height="6" fill="#3b82f6" opacity="0.9"/>
<rect x="170" y="467" width="426" height="6" fill="#10b981" opacity="0.9"/>
<text x="738" y="470" font-family="Inter, Arial, sans-serif" font-size="11" fill="#374151">196.4M -> 244.0M (24.2%)</text>
<text x="8" y="490" font-family="Inter, Arial, sans-serif" font-size="11" fill="#111827">min-u</text>
<rect x="170" y="479" width="355" height="6" fill="#3b82f6" opacity="0.9"/>
<rect x="170" y="487" width="411" height="6" fill="#10b981" opacity="0.9"/>
<text x="738" y="490" font-family="Inter, Arial, sans-serif" font-size="11" fill="#374151">203.5M -> 235.6M (15.8%)</text>
<text x="8" y="510" font-family="Inter, Arial, sans-serif" font-size="11" fill="#111827">sub-sat-s</text>
<rect x="170" y="499" width="358" height="6" fill="#3b82f6" opacity="0.9"/>
<rect x="170" y="507" width="406" height="6" fill="#10b981" opacity="0.9"/>
<text x="738" y="510" font-family="Inter, Arial, sans-serif" font-size="11" fill="#374151">205.3M -> 232.3M (13.1%)</text>
<text x="8" y="530" font-family="Inter, Arial, sans-serif" font-size="11" fill="#111827">lt-u</text>
<rect x="170" y="519" width="339" height="6" fill="#3b82f6" opacity="0.9"/>
<rect x="170" y="527" width="422" height="6" fill="#10b981" opacity="0.9"/>
<text x="738" y="530" font-family="Inter, Arial, sans-serif" font-size="11" fill="#374151">194.3M -> 241.9M (24.5%)</text>
<text x="8" y="550" font-family="Inter, Arial, sans-serif" font-size="11" fill="#111827">add-sat-u</text>
<rect x="170" y="539" width="359" height="6" fill="#3b82f6" opacity="0.9"/>
<rect x="170" y="547" width="401" height="6" fill="#10b981" opacity="0.9"/>
<text x="738" y="550" font-family="Inter, Arial, sans-serif" font-size="11" fill="#374151">205.8M -> 229.9M (11.7%)</text>
<text x="8" y="570" font-family="Inter, Arial, sans-serif" font-size="11" fill="#111827">max-s</text>
<rect x="170" y="559" width="355" height="6" fill="#3b82f6" opacity="0.9"/>
<rect x="170" y="567" width="404" height="6" fill="#10b981" opacity="0.9"/>
<text x="738" y="570" font-family="Inter, Arial, sans-serif" font-size="11" fill="#374151">203.5M -> 231.5M (13.8%)</text>
<text x="8" y="590" font-family="Inter, Arial, sans-serif" font-size="11" fill="#111827">gt-u</text>
<rect x="170" y="579" width="336" height="6" fill="#3b82f6" opacity="0.9"/>
<rect x="170" y="587" width="423" height="6" fill="#10b981" opacity="0.9"/>
<text x="738" y="590" font-family="Inter, Arial, sans-serif" font-size="11" fill="#374151">192.4M -> 242.1M (25.8%)</text>
<text x="8" y="610" font-family="Inter, Arial, sans-serif" font-size="11" fill="#111827">max-u</text>
<rect x="170" y="599" width="354" height="6" fill="#3b82f6" opacity="0.9"/>
<rect x="170" y="607" width="401" height="6" fill="#10b981" opacity="0.9"/>
<text x="738" y="610" font-family="Inter, Arial, sans-serif" font-size="11" fill="#374151">202.5M -> 229.5M (13.3%)</text>
<text x="8" y="630" font-family="Inter, Arial, sans-serif" font-size="11" fill="#111827">avgr-u</text>
<rect x="170" y="619" width="355" height="6" fill="#3b82f6" opacity="0.9"/>
<rect x="170" y="627" width="398" height="6" fill="#10b981" opacity="0.9"/>
<text x="738" y="630" font-family="Inter, Arial, sans-serif" font-size="11" fill="#374151">203.3M -> 228.2M (12.2%)</text>
<text x="8" y="650" font-family="Inter, Arial, sans-serif" font-size="11" fill="#111827">add-sat-s</text>
<rect x="170" y="639" width="355" height="6" fill="#3b82f6" opacity="0.9"/>
<rect x="170" y="647" width="395" height="6" fill="#10b981" opacity="0.9"/>
<text x="738" y="650" font-family="Inter, Arial, sans-serif" font-size="11" fill="#374151">203.1M -> 226.0M (11.3%)</text>
<text x="8" y="670" font-family="Inter, Arial, sans-serif" font-size="11" fill="#111827">replace-lane</text>
<rect x="170" y="659" width="314" height="6" fill="#3b82f6" opacity="0.9"/>
<rect x="170" y="667" width="381" height="6" fill="#10b981" opacity="0.9"/>
<text x="738" y="670" font-family="Inter, Arial, sans-serif" font-size="11" fill="#374151">179.7M -> 218.2M (21.4%)</text>
<text x="8" y="690" font-family="Inter, Arial, sans-serif" font-size="11" fill="#111827">store</text>
<rect x="170" y="679" width="312" height="6" fill="#3b82f6" opacity="0.9"/>
<rect x="170" y="687" width="366" height="6" fill="#10b981" opacity="0.9"/>
<text x="738" y="690" font-family="Inter, Arial, sans-serif" font-size="11" fill="#374151">178.6M -> 209.5M (17.3%)</text>
<text x="8" y="710" font-family="Inter, Arial, sans-serif" font-size="11" fill="#111827">shr-u</text>
<rect x="170" y="699" width="280" height="6" fill="#3b82f6" opacity="0.9"/>
<rect x="170" y="707" width="353" height="6" fill="#10b981" opacity="0.9"/>
<text x="738" y="710" font-family="Inter, Arial, sans-serif" font-size="11" fill="#374151">160.6M -> 202.2M (25.9%)</text>
<text x="8" y="730" font-family="Inter, Arial, sans-serif" font-size="11" fill="#111827">shr-s</text>
<rect x="170" y="719" width="280" height="6" fill="#3b82f6" opacity="0.9"/>
<rect x="170" y="727" width="351" height="6" fill="#10b981" opacity="0.9"/>
<text x="738" y="730" font-family="Inter, Arial, sans-serif" font-size="11" fill="#374151">160.1M -> 201.3M (25.7%)</text>
<text x="8" y="750" font-family="Inter, Arial, sans-serif" font-size="11" fill="#111827">shl</text>
<rect x="170" y="739" width="270" height="6" fill="#3b82f6" opacity="0.9"/>
<rect x="170" y="747" width="336" height="6" fill="#10b981" opacity="0.9"/>
<text x="738" y="750" font-family="Inter, Arial, sans-serif" font-size="11" fill="#374151">154.9M -> 192.4M (24.2%)</text>
<text x="8" y="770" font-family="Inter, Arial, sans-serif" font-size="11" fill="#111827">load-partial</text>
<rect x="170" y="759" width="77" height="6" fill="#3b82f6" opacity="0.9"/>
<rect x="170" y="767" width="81" height="6" fill="#10b981" opacity="0.9"/>
<text x="738" y="770" font-family="Inter, Arial, sans-serif" font-size="11" fill="#374151">43.9M -> 46.4M (5.9%)</text>
<text x="8" y="790" font-family="Inter, Arial, sans-serif" font-size="11" fill="#111827">store-partial</text>
<rect x="170" y="779" width="69" height="6" fill="#3b82f6" opacity="0.9"/>
<rect x="170" y="787" width="74" height="6" fill="#10b981" opacity="0.9"/>
<text x="738" y="790" font-family="Inter, Arial, sans-serif" font-size="11" fill="#374151">39.4M -> 42.4M (7.7%)</text>
</svg>
