<svg xmlns="http://www.w3.org/2000/svg" width="1090" height="816" viewBox="0 0 1090 816">
<rect x="0" y="0" width="1090" height="816" fill="#ffffff"/>
<text x="16" y="24" font-family="Inter, Arial, sans-serif" font-size="16" font-weight="700" fill="#111827">i8x8 vs i8x16 (SIMD)</text>
<text x="16" y="42" font-family="Inter, Arial, sans-serif" font-size="12" fill="#4b5563">Blue: i8x8, Green: i8x16</text>
<text x="8" y="70" font-family="Inter, Arial, sans-serif" font-size="11" fill="#111827">bitmask</text>
<rect x="170" y="59" width="555" height="6" fill="#3b82f6" opacity="0.9"/>
<rect x="170" y="67" width="500" height="6" fill="#10b981" opacity="0.9"/>
<text x="738" y="70" font-family="Inter, Arial, sans-serif" font-size="11" fill="#374151">296.6M -> 267.3M (-9.9%)</text>
<text x="8" y="90" font-family="Inter, Arial, sans-serif" font-size="11" fill="#111827">splat</text>
<rect x="170" y="79" width="560" height="6" fill="#3b82f6" opacity="0.9"/>
<rect x="170" y="87" width="504" height="6" fill="#10b981" opacity="0.9"/>
<text x="738" y="90" font-family="Inter, Arial, sans-serif" font-size="11" fill="#374151">299.1M -> 269.2M (-10.0%)</text>
<text x="8" y="110" font-family="Inter, Arial, sans-serif" font-size="11" fill="#111827">neg</text>
<rect x="170" y="99" width="543" height="6" fill="#3b82f6" opacity="0.9"/>
<rect x="170" y="107" width="510" height="6" fill="#10b981" opacity="0.9"/>
<text x="738" y="110" font-family="Inter, Arial, sans-serif" font-size="11" fill="#374151">290.1M -> 272.2M (-6.2%)</text>
<text x="8" y="130" font-family="Inter, Arial, sans-serif" font-size="11" fill="#111827">abs</text>
<rect x="170" y="119" width="550" height="6" fill="#3b82f6" opacity="0.9"/>
<rect x="170" y="127" width="520" height="6" fill="#10b981" opacity="0.9"/>
<text x="738" y="130" font-family="Inter, Arial, sans-serif" font-size="11" fill="#374151">293.9M -> 277.5M (-5.6%)</text>
<text x="8" y="150" font-family="Inter, Arial, sans-serif" font-size="11" fill="#111827">all-true</text>
<rect x="170" y="139" width="502" height="6" fill="#3b82f6" opacity="0.9"/>
<rect x="170" y="147" width="474" height="6" fill="#10b981" opacity="0.9"/>
<text x="738" y="150" font-family="Inter, Arial, sans-serif" font-size="11" fill="#374151">267.8M -> 253.0M (-5.5%)</text>
<text x="8" y="170" font-family="Inter, Arial, sans-serif" font-size="11" fill="#111827">popcnt</text>
<rect x="170" y="159" width="494" height="6" fill="#3b82f6" opacity="0.9"/>
<rect x="170" y="167" width="445" height="6" fill="#10b981" opacity="0.9"/>
<text x="738" y="170" font-family="Inter, Arial, sans-serif" font-size="11" fill="#374151">264.1M -> 237.5M (-10.1%)</text>
<text x="8" y="190" font-family="Inter, Arial, sans-serif" font-size="11" fill="#111827">extract-lane-u</text>
<rect x="170" y="179" width="427" height="6" fill="#3b82f6" opacity="0.9"/>
<rect x="170" y="187" width="513" height="6" fill="#10b981" opacity="0.9"/>
<text x="738" y="190" font-family="Inter, Arial, sans-serif" font-size="11" fill="#374151">228.3M -> 273.9M (20.0%)</text>
<text x="8" y="210" font-family="Inter, Arial, sans-serif" font-size="11" fill="#111827">extract-lane-s</text>
<rect x="170" y="199" width="417" height="6" fill="#3b82f6" opacity="0.9"/>
<rect x="170" y="207" width="498" height="6" fill="#10b981" opacity="0.9"/>
<text x="738" y="210" font-family="Inter, Arial, sans-serif" font-size="11" fill="#374151">222.9M -> 265.7M (19.2%)</text>
<text x="8" y="230" font-family="Inter, Arial, sans-serif" font-size="11" fill="#111827">add</text>
<rect x="170" y="219" width="411" height="6" fill="#3b82f6" opacity="0.9"/>
<rect x="170" y="227" width="417" height="6" fill="#10b981" opacity="0.9"/>
<text x="738" y="230" font-family="Inter, Arial, sans-serif" font-size="11" fill="#374151">219.7M -> 222.9M (1.5%)</text>
<text x="8" y="250" font-family="Inter, Arial, sans-serif" font-size="11" fill="#111827">avgr-u</text>
<rect x="170" y="239" width="400" height="6" fill="#3b82f6" opacity="0.9"/>
<rect x="170" y="247" width="414" height="6" fill="#10b981" opacity="0.9"/>
<text x="738" y="250" font-family="Inter, Arial, sans-serif" font-size="11" fill="#374151">213.4M -> 221.1M (3.6%)</text>
<text x="8" y="270" font-family="Inter, Arial, sans-serif" font-size="11" fill="#111827">sub</text>
<rect x="170" y="259" width="408" height="6" fill="#3b82f6" opacity="0.9"/>
<rect x="170" y="267" width="415" height="6" fill="#10b981" opacity="0.9"/>
<text x="738" y="270" font-family="Inter, Arial, sans-serif" font-size="11" fill="#374151">217.9M -> 221.9M (1.8%)</text>
<text x="8" y="290" font-family="Inter, Arial, sans-serif" font-size="11" fill="#111827">eq</text>
<rect x="170" y="279" width="400" height="6" fill="#3b82f6" opacity="0.9"/>
<rect x="170" y="287" width="399" height="6" fill="#10b981" opacity="0.9"/>
<text x="738" y="290" font-family="Inter, Arial, sans-serif" font-size="11" fill="#374151">213.7M -> 213.3M (-0.2%)</text>
<text x="8" y="310" font-family="Inter, Arial, sans-serif" font-size="11" fill="#111827">ne</text>
<rect x="170" y="299" width="386" height="6" fill="#3b82f6" opacity="0.9"/>
<rect x="170" y="307" width="389" height="6" fill="#10b981" opacity="0.9"/>
<text x="738" y="310" font-family="Inter, Arial, sans-serif" font-size="11" fill="#374151">206.2M -> 207.9M (0.8%)</text>
<text x="8" y="330" font-family="Inter, Arial, sans-serif" font-size="11" fill="#111827">sub-sat-u</text>
<rect x="170" y="319" width="400" height="6" fill="#3b82f6" opacity="0.9"/>
<rect x="170" y="327" width="411" height="6" fill="#10b981" opacity="0.9"/>
<text x="738" y="330" font-family="Inter, Arial, sans-serif" font-size="11" fill="#374151">213.5M -> 219.7M (2.9%)</text>
<text x="8" y="350" font-family="Inter, Arial, sans-serif" font-size="11" fill="#111827">min-s</text>
<rect x="170" y="339" width="406" height="6" fill="#3b82f6" opacity="0.9"/>
<rect x="170" y="347" width="417" height="6" fill="#10b981" opacity="0.9"/>
<text x="738" y="350" font-family="Inter, Arial, sans-serif" font-size="11" fill="#374151">216.7M -> 222.9M (2.8%)</text>
<text x="8" y="370" font-family="Inter, Arial, sans-serif" font-size="11" fill="#111827">min-u</text>
<rect x="170" y="359" width="403" height="6" fill="#3b82f6" opacity="0.9"/>
<rect x="170" y="367" width="416" height="6" fill="#10b981" opacity="0.9"/>
<text x="738" y="370" font-family="Inter, Arial, sans-serif" font-size="11" fill="#374151">215.3M -> 222.0M (3.1%)</text>
<text x="8" y="390" font-family="Inter, Arial, sans-serif" font-size="11" fill="#111827">add-sat-u</text>
<rect x="170" y="379" width="416" height="6" fill="#3b82f6" opacity="0.9"/>
<rect x="170" y="387" width="413" height="6" fill="#10b981" opacity="0.9"/>
<text x="738" y="390" font-family="Inter, Arial, sans-serif" font-size="11" fill="#374151">222.0M -> 220.6M (-0.6%)</text>
<text x="8" y="410" font-family="Inter, Arial, sans-serif" font-size="11" fill="#111827">add-sat-s</text>
<rect x="170" y="399" width="412" height="6" fill="#3b82f6" opacity="0.9"/>
<rect x="170" y="407" width="413" height="6" fill="#10b981" opacity="0.9"/>
<text x="738" y="410" font-family="Inter, Arial, sans-serif" font-size="11" fill="#374151">220.1M -> 220.3M (0.1%)</text>
<text x="8" y="430" font-family="Inter, Arial, sans-serif" font-size="11" fill="#111827">lt-s</text>
<rect x="170" y="419" width="399" height="6" fill="#3b82f6" opacity="0.9"/>
<rect x="170" y="427" width="402" height="6" fill="#10b981" opacity="0.9"/>
<text x="738" y="430" font-family="Inter, Arial, sans-serif" font-size="11" fill="#374151">212.9M -> 214.4M (0.7%)</text>
<text x="8" y="450" font-family="Inter, Arial, sans-serif" font-size="11" fill="#111827">sub-sat-s</text>
<rect x="170" y="439" width="395" height="6" fill="#3b82f6" opacity="0.9"/>
<rect x="170" y="447" width="410" height="6" fill="#10b981" opacity="0.9"/>
<text x="738" y="450" font-family="Inter, Arial, sans-serif" font-size="11" fill="#374151">210.7M -> 219.2M (4.0%)</text>
<text x="8" y="470" font-family="Inter, Arial, sans-serif" font-size="11" fill="#111827">ge-u</text>
<rect x="170" y="459" width="394" height="6" fill="#3b82f6" opacity="0.9"/>
<rect x="170" y="467" width="394" height="6" fill="#10b981" opacity="0.9"/>
<text x="738" y="470" font-family="Inter, Arial, sans-serif" font-size="11" fill="#374151">210.4M -> 210.4M (-0.0%)</text>
<text x="8" y="490" font-family="Inter, Arial, sans-serif" font-size="11" fill="#111827">max-s</text>
<rect x="170" y="479" width="401" height="6" fill="#3b82f6" opacity="0.9"/>
<rect x="170" y="487" width="414" height="6" fill="#10b981" opacity="0.9"/>
<text x="738" y="490" font-family="Inter, Arial, sans-serif" font-size="11" fill="#374151">214.2M -> 221.3M (3.3%)</text>
<text x="8" y="510" font-family="Inter, Arial, sans-serif" font-size="11" fill="#111827">gt-s</text>
<rect x="170" y="499" width="399" height="6" fill="#3b82f6" opacity="0.9"/>
<rect x="170" y="507" width="399" height="6" fill="#10b981" opacity="0.9"/>
<text x="738" y="510" font-family="Inter, Arial, sans-serif" font-size="11" fill="#374151">213.3M -> 213.3M (0.0%)</text>
<text x="8" y="530" font-family="Inter, Arial, sans-serif" font-size="11" fill="#111827">max-u</text>
<rect x="170" y="519" width="393" height="6" fill="#3b82f6" opacity="0.9"/>
<rect x="170" y="527" width="414" height="6" fill="#10b981" opacity="0.9"/>
<text x="738" y="530" font-family="Inter, Arial, sans-serif" font-size="11" fill="#374151">209.7M -> 221.3M (5.5%)</text>
<text x="8" y="550" font-family="Inter, Arial, sans-serif" font-size="11" fill="#111827">ge-s</text>
<rect x="170" y="539" width="397" height="6" fill="#3b82f6" opacity="0.9"/>
<rect x="170" y="547" width="394" height="6" fill="#10b981" opacity="0.9"/>
<text x="738" y="550" font-family="Inter, Arial, sans-serif" font-size="11" fill="#374151">212.0M -> 210.2M (-0.8%)</text>
<text x="8" y="570" font-family="Inter, Arial, sans-serif" font-size="11" fill="#111827">le-s</text>
<rect x="170" y="559" width="391" height="6" fill="#3b82f6" opacity="0.9"/>
<rect x="170" y="567" width="393" height="6" fill="#10b981" opacity="0.9"/>
<text x="738" y="570" font-family="Inter, Arial, sans-serif" font-size="11" fill="#374151">209.0M -> 209.7M (0.3%)</text>
<text x="8" y="590" font-family="Inter, Arial, sans-serif" font-size="11" fill="#111827">lt-u</text>
<rect x="170" y="579" width="383" height="6" fill="#3b82f6" opacity="0.9"/>
<rect x="170" y="587" width="387" height="6" fill="#10b981" opacity="0.9"/>
<text x="738" y="590" font-family="Inter, Arial, sans-serif" font-size="11" fill="#374151">204.5M -> 206.5M (0.9%)</text>
<text x="8" y="610" font-family="Inter, Arial, sans-serif" font-size="11" fill="#111827">le-u</text>
<rect x="170" y="599" width="393" height="6" fill="#3b82f6" opacity="0.9"/>
<rect x="170" y="607" width="394" height="6" fill="#10b981" opacity="0.9"/>
<text x="738" y="610" font-family="Inter, Arial, sans-serif" font-size="11" fill="#374151">209.7M -> 210.7M (0.5%)</text>
<text x="8" y="630" font-family="Inter, Arial, sans-serif" font-size="11" fill="#111827">gt-u</text>
<rect x="170" y="619" width="388" height="6" fill="#3b82f6" opacity="0.9"/>
<rect x="170" y="627" width="385" height="6" fill="#10b981" opacity="0.9"/>
<text x="738" y="630" font-family="Inter, Arial, sans-serif" font-size="11" fill="#374151">207.3M -> 205.4M (-0.9%)</text>
<text x="8" y="650" font-family="Inter, Arial, sans-serif" font-size="11" fill="#111827">shl</text>
<rect x="170" y="639" width="339" height="6" fill="#3b82f6" opacity="0.9"/>
<rect x="170" y="647" width="292" height="6" fill="#10b981" opacity="0.9"/>
<text x="738" y="650" font-family="Inter, Arial, sans-serif" font-size="11" fill="#374151">181.1M -> 156.0M (-13.9%)</text>
<text x="8" y="670" font-family="Inter, Arial, sans-serif" font-size="11" fill="#111827">shr-u</text>
<rect x="170" y="659" width="332" height="6" fill="#3b82f6" opacity="0.9"/>
<rect x="170" y="667" width="302" height="6" fill="#10b981" opacity="0.9"/>
<text x="738" y="670" font-family="Inter, Arial, sans-serif" font-size="11" fill="#374151">177.4M -> 161.5M (-9.0%)</text>
<text x="8" y="690" font-family="Inter, Arial, sans-serif" font-size="11" fill="#111827">replace-lane</text>
<rect x="170" y="679" width="297" height="6" fill="#3b82f6" opacity="0.9"/>
<rect x="170" y="687" width="365" height="6" fill="#10b981" opacity="0.9"/>
<text x="738" y="690" font-family="Inter, Arial, sans-serif" font-size="11" fill="#374151">158.5M -> 194.9M (22.9%)</text>
<text x="8" y="710" font-family="Inter, Arial, sans-serif" font-size="11" fill="#111827">swizzle</text>
<rect x="170" y="699" width="397" height="6" fill="#3b82f6" opacity="0.9"/>
<rect x="170" y="707" width="388" height="6" fill="#10b981" opacity="0.9"/>
<text x="738" y="710" font-family="Inter, Arial, sans-serif" font-size="11" fill="#374151">212.0M -> 207.1M (-2.3%)</text>
<text x="8" y="730" font-family="Inter, Arial, sans-serif" font-size="11" fill="#111827">shr-s</text>
<rect x="170" y="719" width="347" height="6" fill="#3b82f6" opacity="0.9"/>
<rect x="170" y="727" width="305" height="6" fill="#10b981" opacity="0.9"/>
<text x="738" y="730" font-family="Inter, Arial, sans-serif" font-size="11" fill="#374151">185.1M -> 162.9M (-12.0%)</text>
<text x="8" y="750" font-family="Inter, Arial, sans-serif" font-size="11" fill="#111827">narrow-i16x8-u</text>
<rect x="170" y="739" width="410" height="6" fill="#3b82f6" opacity="0.9"/>
<rect x="170" y="747" width="379" height="6" fill="#10b981" opacity="0.9"/>
<text x="738" y="750" font-family="Inter, Arial, sans-serif" font-size="11" fill="#374151">218.8M -> 202.3M (-7.5%)</text>
<text x="8" y="770" font-family="Inter, Arial, sans-serif" font-size="11" fill="#111827">narrow-i16x8-s</text>
<rect x="170" y="759" width="406" height="6" fill="#3b82f6" opacity="0.9"/>
<rect x="170" y="767" width="378" height="6" fill="#10b981" opacity="0.9"/>
<text x="738" y="770" font-family="Inter, Arial, sans-serif" font-size="11" fill="#374151">216.9M -> 201.9M (-6.9%)</text>
<text x="8" y="790" font-family="Inter, Arial, sans-serif" font-size="11" fill="#111827">shuffle</text>
<rect x="170" y="779" width="82" height="6" fill="#3b82f6" opacity="0.9"/>
<rect x="170" y="787" width="362" height="6" fill="#10b981" opacity="0.9"/>
<text x="738" y="790" font-family="Inter, Arial, sans-serif" font-size="11" fill="#374151">44.0M -> 193.5M (339.8%)</text>
</svg>
