<svg xmlns="http://www.w3.org/2000/svg" width="1030" height="496" viewBox="0 0 1030 496">
<rect x="0" y="0" width="1030" height="496" fill="#ffffff"/>
<text x="16" y="24" font-family="Inter, Arial, sans-serif" font-size="16" font-weight="700" fill="#111827">i64x2 SIMD vs SWAR</text>
<text x="16" y="42" font-family="Inter, Arial, sans-serif" font-size="12" fill="#4b5563">Blue: SIMD, Green: SWAR</text>
<text x="8" y="70" font-family="Inter, Arial, sans-serif" font-size="11" fill="#111827">extract-lane</text>
<rect x="170" y="59" width="531" height="6" fill="#3b82f6" opacity="0.9"/>
<rect x="170" y="67" width="560" height="6" fill="#10b981" opacity="0.9"/>
<text x="738" y="70" font-family="Inter, Arial, sans-serif" font-size="11" fill="#374151">254.9M -> 269.0M (5.5%)</text>
<text x="8" y="90" font-family="Inter, Arial, sans-serif" font-size="11" fill="#111827">splat</text>
<rect x="170" y="79" width="541" height="6" fill="#3b82f6" opacity="0.9"/>
<rect x="170" y="87" width="512" height="6" fill="#10b981" opacity="0.9"/>
<text x="738" y="90" font-family="Inter, Arial, sans-serif" font-size="11" fill="#374151">259.7M -> 246.0M (-5.3%)</text>
<text x="8" y="110" font-family="Inter, Arial, sans-serif" font-size="11" fill="#111827">load</text>
<rect x="170" y="99" width="518" height="6" fill="#3b82f6" opacity="0.9"/>
<rect x="170" y="107" width="524" height="6" fill="#10b981" opacity="0.9"/>
<text x="738" y="110" font-family="Inter, Arial, sans-serif" font-size="11" fill="#374151">248.7M -> 251.5M (1.1%)</text>
<text x="8" y="130" font-family="Inter, Arial, sans-serif" font-size="11" fill="#111827">neg</text>
<rect x="170" y="119" width="533" height="6" fill="#3b82f6" opacity="0.9"/>
<rect x="170" y="127" width="455" height="6" fill="#10b981" opacity="0.9"/>
<text x="738" y="130" font-family="Inter, Arial, sans-serif" font-size="11" fill="#374151">256.0M -> 218.3M (-14.7%)</text>
<text x="8" y="150" font-family="Inter, Arial, sans-serif" font-size="11" fill="#111827">bitmask</text>
<rect x="170" y="139" width="506" height="6" fill="#3b82f6" opacity="0.9"/>
<rect x="170" y="147" width="481" height="6" fill="#10b981" opacity="0.9"/>
<text x="738" y="150" font-family="Inter, Arial, sans-serif" font-size="11" fill="#374151">242.8M -> 231.1M (-4.8%)</text>
<text x="8" y="170" font-family="Inter, Arial, sans-serif" font-size="11" fill="#111827">all-true</text>
<rect x="170" y="159" width="463" height="6" fill="#3b82f6" opacity="0.9"/>
<rect x="170" y="167" width="484" height="6" fill="#10b981" opacity="0.9"/>
<text x="738" y="170" font-family="Inter, Arial, sans-serif" font-size="11" fill="#374151">222.3M -> 232.4M (4.5%)</text>
<text x="8" y="190" font-family="Inter, Arial, sans-serif" font-size="11" fill="#111827">add</text>
<rect x="170" y="179" width="432" height="6" fill="#3b82f6" opacity="0.9"/>
<rect x="170" y="187" width="358" height="6" fill="#10b981" opacity="0.9"/>
<text x="738" y="190" font-family="Inter, Arial, sans-serif" font-size="11" fill="#374151">207.4M -> 172.2M (-17.0%)</text>
<text x="8" y="210" font-family="Inter, Arial, sans-serif" font-size="11" fill="#111827">replace-lane</text>
<rect x="170" y="199" width="387" height="6" fill="#3b82f6" opacity="0.9"/>
<rect x="170" y="207" width="379" height="6" fill="#10b981" opacity="0.9"/>
<text x="738" y="210" font-family="Inter, Arial, sans-serif" font-size="11" fill="#374151">185.8M -> 181.9M (-2.1%)</text>
<text x="8" y="230" font-family="Inter, Arial, sans-serif" font-size="11" fill="#111827">sub</text>
<rect x="170" y="219" width="402" height="6" fill="#3b82f6" opacity="0.9"/>
<rect x="170" y="227" width="347" height="6" fill="#10b981" opacity="0.9"/>
<text x="738" y="230" font-family="Inter, Arial, sans-serif" font-size="11" fill="#374151">193.2M -> 166.5M (-13.8%)</text>
<text x="8" y="250" font-family="Inter, Arial, sans-serif" font-size="11" fill="#111827">store</text>
<rect x="170" y="239" width="363" height="6" fill="#3b82f6" opacity="0.9"/>
<rect x="170" y="247" width="371" height="6" fill="#10b981" opacity="0.9"/>
<text x="738" y="250" font-family="Inter, Arial, sans-serif" font-size="11" fill="#374151">174.4M -> 178.0M (2.0%)</text>
<text x="8" y="270" font-family="Inter, Arial, sans-serif" font-size="11" fill="#111827">eq</text>
<rect x="170" y="259" width="381" height="6" fill="#3b82f6" opacity="0.9"/>
<rect x="170" y="267" width="349" height="6" fill="#10b981" opacity="0.9"/>
<text x="738" y="270" font-family="Inter, Arial, sans-serif" font-size="11" fill="#374151">182.9M -> 167.6M (-8.4%)</text>
<text x="8" y="290" font-family="Inter, Arial, sans-serif" font-size="11" fill="#111827">ne</text>
<rect x="170" y="279" width="370" height="6" fill="#3b82f6" opacity="0.9"/>
<rect x="170" y="287" width="346" height="6" fill="#10b981" opacity="0.9"/>
<text x="738" y="290" font-family="Inter, Arial, sans-serif" font-size="11" fill="#374151">177.9M -> 166.2M (-6.6%)</text>
<text x="8" y="310" font-family="Inter, Arial, sans-serif" font-size="11" fill="#111827">shr-u</text>
<rect x="170" y="299" width="334" height="6" fill="#3b82f6" opacity="0.9"/>
<rect x="170" y="307" width="326" height="6" fill="#10b981" opacity="0.9"/>
<text x="738" y="310" font-family="Inter, Arial, sans-serif" font-size="11" fill="#374151">160.6M -> 156.4M (-2.6%)</text>
<text x="8" y="330" font-family="Inter, Arial, sans-serif" font-size="11" fill="#111827">shl</text>
<rect x="170" y="319" width="335" height="6" fill="#3b82f6" opacity="0.9"/>
<rect x="170" y="327" width="323" height="6" fill="#10b981" opacity="0.9"/>
<text x="738" y="330" font-family="Inter, Arial, sans-serif" font-size="11" fill="#374151">161.0M -> 154.9M (-3.7%)</text>
<text x="8" y="350" font-family="Inter, Arial, sans-serif" font-size="11" fill="#111827">shr-s</text>
<rect x="170" y="339" width="319" height="6" fill="#3b82f6" opacity="0.9"/>
<rect x="170" y="347" width="321" height="6" fill="#10b981" opacity="0.9"/>
<text x="738" y="350" font-family="Inter, Arial, sans-serif" font-size="11" fill="#374151">153.3M -> 154.2M (0.6%)</text>
<text x="8" y="370" font-family="Inter, Arial, sans-serif" font-size="11" fill="#111827">gt-s</text>
<rect x="170" y="359" width="387" height="6" fill="#3b82f6" opacity="0.9"/>
<rect x="170" y="367" width="136" height="6" fill="#10b981" opacity="0.9"/>
<text x="738" y="370" font-family="Inter, Arial, sans-serif" font-size="11" fill="#374151">186.1M -> 65.5M (-64.8%)</text>
<text x="8" y="390" font-family="Inter, Arial, sans-serif" font-size="11" fill="#111827">lt-s</text>
<rect x="170" y="379" width="385" height="6" fill="#3b82f6" opacity="0.9"/>
<rect x="170" y="387" width="136" height="6" fill="#10b981" opacity="0.9"/>
<text x="738" y="390" font-family="Inter, Arial, sans-serif" font-size="11" fill="#374151">185.1M -> 65.5M (-64.6%)</text>
<text x="8" y="410" font-family="Inter, Arial, sans-serif" font-size="11" fill="#111827">ge-s</text>
<rect x="170" y="399" width="380" height="6" fill="#3b82f6" opacity="0.9"/>
<rect x="170" y="407" width="132" height="6" fill="#10b981" opacity="0.9"/>
<text x="738" y="410" font-family="Inter, Arial, sans-serif" font-size="11" fill="#374151">182.5M -> 63.3M (-65.3%)</text>
<text x="8" y="430" font-family="Inter, Arial, sans-serif" font-size="11" fill="#111827">le-s</text>
<rect x="170" y="419" width="374" height="6" fill="#3b82f6" opacity="0.9"/>
<rect x="170" y="427" width="137" height="6" fill="#10b981" opacity="0.9"/>
<text x="738" y="430" font-family="Inter, Arial, sans-serif" font-size="11" fill="#374151">179.7M -> 65.7M (-63.5%)</text>
<text x="8" y="450" font-family="Inter, Arial, sans-serif" font-size="11" fill="#111827">load-partial</text>
<rect x="170" y="439" width="109" height="6" fill="#3b82f6" opacity="0.9"/>
<rect x="170" y="447" width="111" height="6" fill="#10b981" opacity="0.9"/>
<text x="738" y="450" font-family="Inter, Arial, sans-serif" font-size="11" fill="#374151">52.5M -> 53.5M (1.9%)</text>
<text x="8" y="470" font-family="Inter, Arial, sans-serif" font-size="11" fill="#111827">store-partial</text>
<rect x="170" y="459" width="100" height="6" fill="#3b82f6" opacity="0.9"/>
<rect x="170" y="467" width="103" height="6" fill="#10b981" opacity="0.9"/>
<text x="738" y="470" font-family="Inter, Arial, sans-serif" font-size="11" fill="#374151">48.0M -> 49.3M (2.8%)</text>
</svg>
