<svg xmlns="http://www.w3.org/2000/svg" width="1030" height="736" viewBox="0 0 1030 736">
<rect x="0" y="0" width="1030" height="736" fill="#ffffff"/>
<text x="16" y="24" font-family="Inter, Arial, sans-serif" font-size="16" font-weight="700" fill="#111827">i16x8 SIMD vs SWAR</text>
<text x="16" y="42" font-family="Inter, Arial, sans-serif" font-size="12" fill="#4b5563">Blue: SIMD, Green: SWAR</text>
<text x="8" y="70" font-family="Inter, Arial, sans-serif" font-size="11" fill="#111827">extract-lane-s</text>
<rect x="170" y="59" width="270" height="6" fill="#3b82f6" opacity="0.9"/>
<rect x="170" y="67" width="560" height="6" fill="#10b981" opacity="0.9"/>
<text x="738" y="70" font-family="Inter, Arial, sans-serif" font-size="11" fill="#374151">131.5M -> 273.3M (107.8%)</text>
<text x="8" y="90" font-family="Inter, Arial, sans-serif" font-size="11" fill="#111827">extract-lane-u</text>
<rect x="170" y="79" width="280" height="6" fill="#3b82f6" opacity="0.9"/>
<rect x="170" y="87" width="547" height="6" fill="#10b981" opacity="0.9"/>
<text x="738" y="90" font-family="Inter, Arial, sans-serif" font-size="11" fill="#374151">136.6M -> 267.1M (95.6%)</text>
<text x="8" y="110" font-family="Inter, Arial, sans-serif" font-size="11" fill="#111827">abs</text>
<rect x="170" y="99" width="354" height="6" fill="#3b82f6" opacity="0.9"/>
<rect x="170" y="107" width="284" height="6" fill="#10b981" opacity="0.9"/>
<text x="738" y="110" font-family="Inter, Arial, sans-serif" font-size="11" fill="#374151">172.6M -> 138.8M (-19.6%)</text>
<text x="8" y="130" font-family="Inter, Arial, sans-serif" font-size="11" fill="#111827">neg</text>
<rect x="170" y="119" width="282" height="6" fill="#3b82f6" opacity="0.9"/>
<rect x="170" y="127" width="351" height="6" fill="#10b981" opacity="0.9"/>
<text x="738" y="130" font-family="Inter, Arial, sans-serif" font-size="11" fill="#374151">137.8M -> 171.3M (24.3%)</text>
<text x="8" y="150" font-family="Inter, Arial, sans-serif" font-size="11" fill="#111827">avgr-u</text>
<rect x="170" y="139" width="280" height="6" fill="#3b82f6" opacity="0.9"/>
<rect x="170" y="147" width="303" height="6" fill="#10b981" opacity="0.9"/>
<text x="738" y="150" font-family="Inter, Arial, sans-serif" font-size="11" fill="#374151">136.7M -> 147.7M (8.1%)</text>
<text x="8" y="170" font-family="Inter, Arial, sans-serif" font-size="11" fill="#111827">ge-u</text>
<rect x="170" y="159" width="312" height="6" fill="#3b82f6" opacity="0.9"/>
<rect x="170" y="167" width="242" height="6" fill="#10b981" opacity="0.9"/>
<text x="738" y="170" font-family="Inter, Arial, sans-serif" font-size="11" fill="#374151">152.5M -> 118.1M (-22.6%)</text>
<text x="8" y="190" font-family="Inter, Arial, sans-serif" font-size="11" fill="#111827">gt-s</text>
<rect x="170" y="179" width="332" height="6" fill="#3b82f6" opacity="0.9"/>
<rect x="170" y="187" width="220" height="6" fill="#10b981" opacity="0.9"/>
<text x="738" y="190" font-family="Inter, Arial, sans-serif" font-size="11" fill="#374151">162.0M -> 107.2M (-33.8%)</text>
<text x="8" y="210" font-family="Inter, Arial, sans-serif" font-size="11" fill="#111827">gt-u</text>
<rect x="170" y="199" width="317" height="6" fill="#3b82f6" opacity="0.9"/>
<rect x="170" y="207" width="229" height="6" fill="#10b981" opacity="0.9"/>
<text x="738" y="210" font-family="Inter, Arial, sans-serif" font-size="11" fill="#374151">154.8M -> 111.7M (-27.8%)</text>
<text x="8" y="230" font-family="Inter, Arial, sans-serif" font-size="11" fill="#111827">replace-lane</text>
<rect x="170" y="219" width="188" height="6" fill="#3b82f6" opacity="0.9"/>
<rect x="170" y="227" width="356" height="6" fill="#10b981" opacity="0.9"/>
<text x="738" y="230" font-family="Inter, Arial, sans-serif" font-size="11" fill="#374151">91.7M -> 173.5M (89.2%)</text>
<text x="8" y="250" font-family="Inter, Arial, sans-serif" font-size="11" fill="#111827">ge-s</text>
<rect x="170" y="239" width="316" height="6" fill="#3b82f6" opacity="0.9"/>
<rect x="170" y="247" width="227" height="6" fill="#10b981" opacity="0.9"/>
<text x="738" y="250" font-family="Inter, Arial, sans-serif" font-size="11" fill="#374151">154.3M -> 110.9M (-28.1%)</text>
<text x="8" y="270" font-family="Inter, Arial, sans-serif" font-size="11" fill="#111827">all-true</text>
<rect x="170" y="259" width="175" height="6" fill="#3b82f6" opacity="0.9"/>
<rect x="170" y="267" width="348" height="6" fill="#10b981" opacity="0.9"/>
<text x="738" y="270" font-family="Inter, Arial, sans-serif" font-size="11" fill="#374151">85.2M -> 170.0M (99.6%)</text>
<text x="8" y="290" font-family="Inter, Arial, sans-serif" font-size="11" fill="#111827">add</text>
<rect x="170" y="279" width="195" height="6" fill="#3b82f6" opacity="0.9"/>
<rect x="170" y="287" width="318" height="6" fill="#10b981" opacity="0.9"/>
<text x="738" y="290" font-family="Inter, Arial, sans-serif" font-size="11" fill="#374151">95.2M -> 155.1M (62.9%)</text>
<text x="8" y="310" font-family="Inter, Arial, sans-serif" font-size="11" fill="#111827">sub</text>
<rect x="170" y="299" width="197" height="6" fill="#3b82f6" opacity="0.9"/>
<rect x="170" y="307" width="300" height="6" fill="#10b981" opacity="0.9"/>
<text x="738" y="310" font-family="Inter, Arial, sans-serif" font-size="11" fill="#374151">96.2M -> 146.5M (52.3%)</text>
<text x="8" y="330" font-family="Inter, Arial, sans-serif" font-size="11" fill="#111827">splat</text>
<rect x="170" y="319" width="282" height="6" fill="#3b82f6" opacity="0.9"/>
<rect x="170" y="327" width="209" height="6" fill="#10b981" opacity="0.9"/>
<text x="738" y="330" font-family="Inter, Arial, sans-serif" font-size="11" fill="#374151">137.5M -> 102.1M (-25.7%)</text>
<text x="8" y="350" font-family="Inter, Arial, sans-serif" font-size="11" fill="#111827">max-u</text>
<rect x="170" y="339" width="280" height="6" fill="#3b82f6" opacity="0.9"/>
<rect x="170" y="347" width="206" height="6" fill="#10b981" opacity="0.9"/>
<text x="738" y="350" font-family="Inter, Arial, sans-serif" font-size="11" fill="#374151">136.8M -> 100.3M (-26.6%)</text>
<text x="8" y="370" font-family="Inter, Arial, sans-serif" font-size="11" fill="#111827">sub-sat-u</text>
<rect x="170" y="359" width="278" height="6" fill="#3b82f6" opacity="0.9"/>
<rect x="170" y="367" width="200" height="6" fill="#10b981" opacity="0.9"/>
<text x="738" y="370" font-family="Inter, Arial, sans-serif" font-size="11" fill="#374151">135.9M -> 97.5M (-28.2%)</text>
<text x="8" y="390" font-family="Inter, Arial, sans-serif" font-size="11" fill="#111827">sub-sat-s</text>
<rect x="170" y="379" width="288" height="6" fill="#3b82f6" opacity="0.9"/>
<rect x="170" y="387" width="188" height="6" fill="#10b981" opacity="0.9"/>
<text x="738" y="390" font-family="Inter, Arial, sans-serif" font-size="11" fill="#374151">140.3M -> 91.9M (-34.5%)</text>
<text x="8" y="410" font-family="Inter, Arial, sans-serif" font-size="11" fill="#111827">add-sat-s</text>
<rect x="170" y="399" width="284" height="6" fill="#3b82f6" opacity="0.9"/>
<rect x="170" y="407" width="191" height="6" fill="#10b981" opacity="0.9"/>
<text x="738" y="410" font-family="Inter, Arial, sans-serif" font-size="11" fill="#374151">138.5M -> 93.1M (-32.8%)</text>
<text x="8" y="430" font-family="Inter, Arial, sans-serif" font-size="11" fill="#111827">add-sat-u</text>
<rect x="170" y="419" width="289" height="6" fill="#3b82f6" opacity="0.9"/>
<rect x="170" y="427" width="183" height="6" fill="#10b981" opacity="0.9"/>
<text x="738" y="430" font-family="Inter, Arial, sans-serif" font-size="11" fill="#374151">141.1M -> 89.5M (-36.6%)</text>
<text x="8" y="450" font-family="Inter, Arial, sans-serif" font-size="11" fill="#111827">le-u</text>
<rect x="170" y="439" width="330" height="6" fill="#3b82f6" opacity="0.9"/>
<rect x="170" y="447" width="133" height="6" fill="#10b981" opacity="0.9"/>
<text x="738" y="450" font-family="Inter, Arial, sans-serif" font-size="11" fill="#374151">161.0M -> 64.9M (-59.7%)</text>
<text x="8" y="470" font-family="Inter, Arial, sans-serif" font-size="11" fill="#111827">bitmask</text>
<rect x="170" y="459" width="177" height="6" fill="#3b82f6" opacity="0.9"/>
<rect x="170" y="467" width="282" height="6" fill="#10b981" opacity="0.9"/>
<text x="738" y="470" font-family="Inter, Arial, sans-serif" font-size="11" fill="#374151">86.5M -> 137.5M (59.0%)</text>
<text x="8" y="490" font-family="Inter, Arial, sans-serif" font-size="11" fill="#111827">le-s</text>
<rect x="170" y="479" width="329" height="6" fill="#3b82f6" opacity="0.9"/>
<rect x="170" y="487" width="126" height="6" fill="#10b981" opacity="0.9"/>
<text x="738" y="490" font-family="Inter, Arial, sans-serif" font-size="11" fill="#374151">160.6M -> 61.5M (-61.7%)</text>
<text x="8" y="510" font-family="Inter, Arial, sans-serif" font-size="11" fill="#111827">min-u</text>
<rect x="170" y="499" width="199" height="6" fill="#3b82f6" opacity="0.9"/>
<rect x="170" y="507" width="212" height="6" fill="#10b981" opacity="0.9"/>
<text x="738" y="510" font-family="Inter, Arial, sans-serif" font-size="11" fill="#374151">97.0M -> 103.5M (6.7%)</text>
<text x="8" y="530" font-family="Inter, Arial, sans-serif" font-size="11" fill="#111827">max-s</text>
<rect x="170" y="519" width="197" height="6" fill="#3b82f6" opacity="0.9"/>
<rect x="170" y="527" width="201" height="6" fill="#10b981" opacity="0.9"/>
<text x="738" y="530" font-family="Inter, Arial, sans-serif" font-size="11" fill="#374151">96.1M -> 98.0M (2.0%)</text>
<text x="8" y="550" font-family="Inter, Arial, sans-serif" font-size="11" fill="#111827">min-s</text>
<rect x="170" y="539" width="190" height="6" fill="#3b82f6" opacity="0.9"/>
<rect x="170" y="547" width="206" height="6" fill="#10b981" opacity="0.9"/>
<text x="738" y="550" font-family="Inter, Arial, sans-serif" font-size="11" fill="#374151">92.8M -> 100.4M (8.2%)</text>
<text x="8" y="570" font-family="Inter, Arial, sans-serif" font-size="11" fill="#111827">shl</text>
<rect x="170" y="559" width="120" height="6" fill="#3b82f6" opacity="0.9"/>
<rect x="170" y="567" width="270" height="6" fill="#10b981" opacity="0.9"/>
<text x="738" y="570" font-family="Inter, Arial, sans-serif" font-size="11" fill="#374151">58.7M -> 131.7M (124.4%)</text>
<text x="8" y="590" font-family="Inter, Arial, sans-serif" font-size="11" fill="#111827">shr-u</text>
<rect x="170" y="579" width="122" height="6" fill="#3b82f6" opacity="0.9"/>
<rect x="170" y="587" width="264" height="6" fill="#10b981" opacity="0.9"/>
<text x="738" y="590" font-family="Inter, Arial, sans-serif" font-size="11" fill="#374151">59.7M -> 128.9M (115.9%)</text>
<text x="8" y="610" font-family="Inter, Arial, sans-serif" font-size="11" fill="#111827">mul</text>
<rect x="170" y="599" width="180" height="6" fill="#3b82f6" opacity="0.9"/>
<rect x="170" y="607" width="195" height="6" fill="#10b981" opacity="0.9"/>
<text x="738" y="610" font-family="Inter, Arial, sans-serif" font-size="11" fill="#374151">88.0M -> 95.1M (8.1%)</text>
<text x="8" y="630" font-family="Inter, Arial, sans-serif" font-size="11" fill="#111827">shr-s</text>
<rect x="170" y="619" width="124" height="6" fill="#3b82f6" opacity="0.9"/>
<rect x="170" y="627" width="240" height="6" fill="#10b981" opacity="0.9"/>
<text x="738" y="630" font-family="Inter, Arial, sans-serif" font-size="11" fill="#374151">60.3M -> 117.2M (94.3%)</text>
<text x="8" y="650" font-family="Inter, Arial, sans-serif" font-size="11" fill="#111827">eq</text>
<rect x="170" y="639" width="140" height="6" fill="#3b82f6" opacity="0.9"/>
<rect x="170" y="647" width="213" height="6" fill="#10b981" opacity="0.9"/>
<text x="738" y="650" font-family="Inter, Arial, sans-serif" font-size="11" fill="#374151">68.4M -> 103.8M (51.7%)</text>
<text x="8" y="670" font-family="Inter, Arial, sans-serif" font-size="11" fill="#111827">ne</text>
<rect x="170" y="659" width="141" height="6" fill="#3b82f6" opacity="0.9"/>
<rect x="170" y="667" width="151" height="6" fill="#10b981" opacity="0.9"/>
<text x="738" y="670" font-family="Inter, Arial, sans-serif" font-size="11" fill="#374151">69.0M -> 73.7M (6.8%)</text>
<text x="8" y="690" font-family="Inter, Arial, sans-serif" font-size="11" fill="#111827">lt-u</text>
<rect x="170" y="679" width="141" height="6" fill="#3b82f6" opacity="0.9"/>
<rect x="170" y="687" width="133" height="6" fill="#10b981" opacity="0.9"/>
<text x="738" y="690" font-family="Inter, Arial, sans-serif" font-size="11" fill="#374151">68.8M -> 65.0M (-5.6%)</text>
<text x="8" y="710" font-family="Inter, Arial, sans-serif" font-size="11" fill="#111827">lt-s</text>
<rect x="170" y="699" width="143" height="6" fill="#3b82f6" opacity="0.9"/>
<rect x="170" y="707" width="120" height="6" fill="#10b981" opacity="0.9"/>
<text x="738" y="710" font-family="Inter, Arial, sans-serif" font-size="11" fill="#374151">69.8M -> 58.4M (-16.3%)</text>
</svg>
