<svg xmlns="http://www.w3.org/2000/svg" width="1030" height="716" viewBox="0 0 1030 716">
<rect x="0" y="0" width="1030" height="716" fill="#ffffff"/>
<text x="16" y="24" font-family="Inter, Arial, sans-serif" font-size="16" font-weight="700" fill="#111827">i32x4 SIMD vs SWAR</text>
<text x="16" y="42" font-family="Inter, Arial, sans-serif" font-size="12" fill="#4b5563">Blue: SIMD, Green: SWAR</text>
<text x="8" y="70" font-family="Inter, Arial, sans-serif" font-size="11" fill="#111827">splat</text>
<rect x="170" y="59" width="495" height="6" fill="#3b82f6" opacity="0.9"/>
<rect x="170" y="67" width="534" height="6" fill="#10b981" opacity="0.9"/>
<text x="738" y="70" font-family="Inter, Arial, sans-serif" font-size="11" fill="#374151">220.9M -> 238.3M (7.9%)</text>
<text x="8" y="90" font-family="Inter, Arial, sans-serif" font-size="11" fill="#111827">load</text>
<rect x="170" y="79" width="458" height="6" fill="#3b82f6" opacity="0.9"/>
<rect x="170" y="87" width="560" height="6" fill="#10b981" opacity="0.9"/>
<text x="738" y="90" font-family="Inter, Arial, sans-serif" font-size="11" fill="#374151">204.1M -> 249.7M (22.4%)</text>
<text x="8" y="110" font-family="Inter, Arial, sans-serif" font-size="11" fill="#111827">extract-lane</text>
<rect x="170" y="99" width="422" height="6" fill="#3b82f6" opacity="0.9"/>
<rect x="170" y="107" width="543" height="6" fill="#10b981" opacity="0.9"/>
<text x="738" y="110" font-family="Inter, Arial, sans-serif" font-size="11" fill="#374151">188.3M -> 242.2M (28.6%)</text>
<text x="8" y="130" font-family="Inter, Arial, sans-serif" font-size="11" fill="#111827">bitmask</text>
<rect x="170" y="119" width="439" height="6" fill="#3b82f6" opacity="0.9"/>
<rect x="170" y="127" width="434" height="6" fill="#10b981" opacity="0.9"/>
<text x="738" y="130" font-family="Inter, Arial, sans-serif" font-size="11" fill="#374151">196.0M -> 193.6M (-1.2%)</text>
<text x="8" y="150" font-family="Inter, Arial, sans-serif" font-size="11" fill="#111827">neg</text>
<rect x="170" y="139" width="424" height="6" fill="#3b82f6" opacity="0.9"/>
<rect x="170" y="147" width="395" height="6" fill="#10b981" opacity="0.9"/>
<text x="738" y="150" font-family="Inter, Arial, sans-serif" font-size="11" fill="#374151">189.2M -> 176.3M (-6.8%)</text>
<text x="8" y="170" font-family="Inter, Arial, sans-serif" font-size="11" fill="#111827">all-true</text>
<rect x="170" y="159" width="423" height="6" fill="#3b82f6" opacity="0.9"/>
<rect x="170" y="167" width="378" height="6" fill="#10b981" opacity="0.9"/>
<text x="738" y="170" font-family="Inter, Arial, sans-serif" font-size="11" fill="#374151">188.7M -> 168.6M (-10.6%)</text>
<text x="8" y="190" font-family="Inter, Arial, sans-serif" font-size="11" fill="#111827">store</text>
<rect x="170" y="179" width="335" height="6" fill="#3b82f6" opacity="0.9"/>
<rect x="170" y="187" width="396" height="6" fill="#10b981" opacity="0.9"/>
<text x="738" y="190" font-family="Inter, Arial, sans-serif" font-size="11" fill="#374151">149.5M -> 176.5M (18.0%)</text>
<text x="8" y="210" font-family="Inter, Arial, sans-serif" font-size="11" fill="#111827">abs</text>
<rect x="170" y="199" width="424" height="6" fill="#3b82f6" opacity="0.9"/>
<rect x="170" y="207" width="302" height="6" fill="#10b981" opacity="0.9"/>
<text x="738" y="210" font-family="Inter, Arial, sans-serif" font-size="11" fill="#374151">189.3M -> 134.8M (-28.8%)</text>
<text x="8" y="230" font-family="Inter, Arial, sans-serif" font-size="11" fill="#111827">eq</text>
<rect x="170" y="219" width="368" height="6" fill="#3b82f6" opacity="0.9"/>
<rect x="170" y="227" width="295" height="6" fill="#10b981" opacity="0.9"/>
<text x="738" y="230" font-family="Inter, Arial, sans-serif" font-size="11" fill="#374151">164.0M -> 131.4M (-19.9%)</text>
<text x="8" y="250" font-family="Inter, Arial, sans-serif" font-size="11" fill="#111827">replace-lane</text>
<rect x="170" y="239" width="304" height="6" fill="#3b82f6" opacity="0.9"/>
<rect x="170" y="247" width="345" height="6" fill="#10b981" opacity="0.9"/>
<text x="738" y="250" font-family="Inter, Arial, sans-serif" font-size="11" fill="#374151">135.5M -> 153.6M (13.4%)</text>
<text x="8" y="270" font-family="Inter, Arial, sans-serif" font-size="11" fill="#111827">add</text>
<rect x="170" y="259" width="340" height="6" fill="#3b82f6" opacity="0.9"/>
<rect x="170" y="267" width="305" height="6" fill="#10b981" opacity="0.9"/>
<text x="738" y="270" font-family="Inter, Arial, sans-serif" font-size="11" fill="#374151">151.5M -> 135.9M (-10.3%)</text>
<text x="8" y="290" font-family="Inter, Arial, sans-serif" font-size="11" fill="#111827">sub</text>
<rect x="170" y="279" width="340" height="6" fill="#3b82f6" opacity="0.9"/>
<rect x="170" y="287" width="303" height="6" fill="#10b981" opacity="0.9"/>
<text x="738" y="290" font-family="Inter, Arial, sans-serif" font-size="11" fill="#374151">151.6M -> 135.0M (-11.0%)</text>
<text x="8" y="310" font-family="Inter, Arial, sans-serif" font-size="11" fill="#111827">ne</text>
<rect x="170" y="299" width="354" height="6" fill="#3b82f6" opacity="0.9"/>
<rect x="170" y="307" width="285" height="6" fill="#10b981" opacity="0.9"/>
<text x="738" y="310" font-family="Inter, Arial, sans-serif" font-size="11" fill="#374151">158.0M -> 127.2M (-19.5%)</text>
<text x="8" y="330" font-family="Inter, Arial, sans-serif" font-size="11" fill="#111827">mul</text>
<rect x="170" y="319" width="335" height="6" fill="#3b82f6" opacity="0.9"/>
<rect x="170" y="327" width="294" height="6" fill="#10b981" opacity="0.9"/>
<text x="738" y="330" font-family="Inter, Arial, sans-serif" font-size="11" fill="#374151">149.3M -> 131.0M (-12.3%)</text>
<text x="8" y="350" font-family="Inter, Arial, sans-serif" font-size="11" fill="#111827">shr-u</text>
<rect x="170" y="339" width="299" height="6" fill="#3b82f6" opacity="0.9"/>
<rect x="170" y="347" width="304" height="6" fill="#10b981" opacity="0.9"/>
<text x="738" y="350" font-family="Inter, Arial, sans-serif" font-size="11" fill="#374151">133.2M -> 135.6M (1.8%)</text>
<text x="8" y="370" font-family="Inter, Arial, sans-serif" font-size="11" fill="#111827">lt-s</text>
<rect x="170" y="359" width="365" height="6" fill="#3b82f6" opacity="0.9"/>
<rect x="170" y="367" width="215" height="6" fill="#10b981" opacity="0.9"/>
<text x="738" y="370" font-family="Inter, Arial, sans-serif" font-size="11" fill="#374151">162.7M -> 96.0M (-41.0%)</text>
<text x="8" y="390" font-family="Inter, Arial, sans-serif" font-size="11" fill="#111827">ge-u</text>
<rect x="170" y="379" width="345" height="6" fill="#3b82f6" opacity="0.9"/>
<rect x="170" y="387" width="230" height="6" fill="#10b981" opacity="0.9"/>
<text x="738" y="390" font-family="Inter, Arial, sans-serif" font-size="11" fill="#374151">153.7M -> 102.6M (-33.3%)</text>
<text x="8" y="410" font-family="Inter, Arial, sans-serif" font-size="11" fill="#111827">le-u</text>
<rect x="170" y="399" width="346" height="6" fill="#3b82f6" opacity="0.9"/>
<rect x="170" y="407" width="228" height="6" fill="#10b981" opacity="0.9"/>
<text x="738" y="410" font-family="Inter, Arial, sans-serif" font-size="11" fill="#374151">154.2M -> 101.5M (-34.2%)</text>
<text x="8" y="430" font-family="Inter, Arial, sans-serif" font-size="11" fill="#111827">gt-u</text>
<rect x="170" y="419" width="337" height="6" fill="#3b82f6" opacity="0.9"/>
<rect x="170" y="427" width="236" height="6" fill="#10b981" opacity="0.9"/>
<text x="738" y="430" font-family="Inter, Arial, sans-serif" font-size="11" fill="#374151">150.2M -> 105.4M (-29.8%)</text>
<text x="8" y="450" font-family="Inter, Arial, sans-serif" font-size="11" fill="#111827">shl</text>
<rect x="170" y="439" width="297" height="6" fill="#3b82f6" opacity="0.9"/>
<rect x="170" y="447" width="275" height="6" fill="#10b981" opacity="0.9"/>
<text x="738" y="450" font-family="Inter, Arial, sans-serif" font-size="11" fill="#374151">132.4M -> 122.6M (-7.4%)</text>
<text x="8" y="470" font-family="Inter, Arial, sans-serif" font-size="11" fill="#111827">ge-s</text>
<rect x="170" y="459" width="345" height="6" fill="#3b82f6" opacity="0.9"/>
<rect x="170" y="467" width="225" height="6" fill="#10b981" opacity="0.9"/>
<text x="738" y="470" font-family="Inter, Arial, sans-serif" font-size="11" fill="#374151">153.8M -> 100.3M (-34.8%)</text>
<text x="8" y="490" font-family="Inter, Arial, sans-serif" font-size="11" fill="#111827">lt-u</text>
<rect x="170" y="479" width="340" height="6" fill="#3b82f6" opacity="0.9"/>
<rect x="170" y="487" width="228" height="6" fill="#10b981" opacity="0.9"/>
<text x="738" y="490" font-family="Inter, Arial, sans-serif" font-size="11" fill="#374151">151.6M -> 101.6M (-33.0%)</text>
<text x="8" y="510" font-family="Inter, Arial, sans-serif" font-size="11" fill="#111827">gt-s</text>
<rect x="170" y="499" width="353" height="6" fill="#3b82f6" opacity="0.9"/>
<rect x="170" y="507" width="211" height="6" fill="#10b981" opacity="0.9"/>
<text x="738" y="510" font-family="Inter, Arial, sans-serif" font-size="11" fill="#374151">157.6M -> 93.9M (-40.4%)</text>
<text x="8" y="530" font-family="Inter, Arial, sans-serif" font-size="11" fill="#111827">le-s</text>
<rect x="170" y="519" width="345" height="6" fill="#3b82f6" opacity="0.9"/>
<rect x="170" y="527" width="207" height="6" fill="#10b981" opacity="0.9"/>
<text x="738" y="530" font-family="Inter, Arial, sans-serif" font-size="11" fill="#374151">153.8M -> 92.2M (-40.1%)</text>
<text x="8" y="550" font-family="Inter, Arial, sans-serif" font-size="11" fill="#111827">shr-s</text>
<rect x="170" y="539" width="299" height="6" fill="#3b82f6" opacity="0.9"/>
<rect x="170" y="547" width="243" height="6" fill="#10b981" opacity="0.9"/>
<text x="738" y="550" font-family="Inter, Arial, sans-serif" font-size="11" fill="#374151">133.5M -> 108.3M (-18.9%)</text>
<text x="8" y="570" font-family="Inter, Arial, sans-serif" font-size="11" fill="#111827">min-s</text>
<rect x="170" y="559" width="329" height="6" fill="#3b82f6" opacity="0.9"/>
<rect x="170" y="567" width="210" height="6" fill="#10b981" opacity="0.9"/>
<text x="738" y="570" font-family="Inter, Arial, sans-serif" font-size="11" fill="#374151">146.9M -> 93.6M (-36.3%)</text>
<text x="8" y="590" font-family="Inter, Arial, sans-serif" font-size="11" fill="#111827">max-u</text>
<rect x="170" y="579" width="332" height="6" fill="#3b82f6" opacity="0.9"/>
<rect x="170" y="587" width="205" height="6" fill="#10b981" opacity="0.9"/>
<text x="738" y="590" font-family="Inter, Arial, sans-serif" font-size="11" fill="#374151">148.2M -> 91.5M (-38.2%)</text>
<text x="8" y="610" font-family="Inter, Arial, sans-serif" font-size="11" fill="#111827">min-u</text>
<rect x="170" y="599" width="331" height="6" fill="#3b82f6" opacity="0.9"/>
<rect x="170" y="607" width="201" height="6" fill="#10b981" opacity="0.9"/>
<text x="738" y="610" font-family="Inter, Arial, sans-serif" font-size="11" fill="#374151">147.6M -> 89.8M (-39.2%)</text>
<text x="8" y="630" font-family="Inter, Arial, sans-serif" font-size="11" fill="#111827">max-s</text>
<rect x="170" y="619" width="335" height="6" fill="#3b82f6" opacity="0.9"/>
<rect x="170" y="627" width="196" height="6" fill="#10b981" opacity="0.9"/>
<text x="738" y="630" font-family="Inter, Arial, sans-serif" font-size="11" fill="#374151">149.4M -> 87.4M (-41.5%)</text>
<text x="8" y="650" font-family="Inter, Arial, sans-serif" font-size="11" fill="#111827">dot-i16x8-s</text>
<rect x="170" y="639" width="340" height="6" fill="#3b82f6" opacity="0.9"/>
<rect x="170" y="647" width="150" height="6" fill="#10b981" opacity="0.9"/>
<text x="738" y="650" font-family="Inter, Arial, sans-serif" font-size="11" fill="#374151">151.7M -> 66.9M (-55.9%)</text>
<text x="8" y="670" font-family="Inter, Arial, sans-serif" font-size="11" fill="#111827">load-partial</text>
<rect x="170" y="659" width="93" height="6" fill="#3b82f6" opacity="0.9"/>
<rect x="170" y="667" width="105" height="6" fill="#10b981" opacity="0.9"/>
<text x="738" y="670" font-family="Inter, Arial, sans-serif" font-size="11" fill="#374151">41.4M -> 46.7M (12.7%)</text>
<text x="8" y="690" font-family="Inter, Arial, sans-serif" font-size="11" fill="#111827">store-partial</text>
<rect x="170" y="679" width="80" height="6" fill="#3b82f6" opacity="0.9"/>
<rect x="170" y="687" width="90" height="6" fill="#10b981" opacity="0.9"/>
<text x="738" y="690" font-family="Inter, Arial, sans-serif" font-size="11" fill="#374151">35.9M -> 40.3M (12.2%)</text>
</svg>
