<svg xmlns="http://www.w3.org/2000/svg" width="1150" height="1016" viewBox="0 0 1150 1016">
<rect x="0" y="0" width="1150" height="1016" fill="#ffffff"/>
<text x="16" y="24" font-family="Inter, Arial, sans-serif" font-size="16" font-weight="700" fill="#111827">i16x4 (SWAR) vs i16x8 (SIMD)</text>
<text x="16" y="42" font-family="Inter, Arial, sans-serif" font-size="12" fill="#4b5563">Blue: i16x4 (swar), Green: i16x8 (simd)</text>
<text x="8" y="70" font-family="Inter, Arial, sans-serif" font-size="11" fill="#111827">splat</text>
<rect x="230" y="59" width="560" height="6" fill="#3b82f6" opacity="0.9"/>
<rect x="230" y="67" width="488" height="6" fill="#10b981" opacity="0.9"/>
<text x="798" y="70" font-family="Inter, Arial, sans-serif" font-size="11" fill="#374151">320.7M -> 279.3M (-12.9%)</text>
<text x="8" y="90" font-family="Inter, Arial, sans-serif" font-size="11" fill="#111827">neg</text>
<rect x="230" y="79" width="520" height="6" fill="#3b82f6" opacity="0.9"/>
<rect x="230" y="87" width="482" height="6" fill="#10b981" opacity="0.9"/>
<text x="798" y="90" font-family="Inter, Arial, sans-serif" font-size="11" fill="#374151">297.8M -> 276.3M (-7.2%)</text>
<text x="8" y="110" font-family="Inter, Arial, sans-serif" font-size="11" fill="#111827">abs</text>
<rect x="230" y="99" width="486" height="6" fill="#3b82f6" opacity="0.9"/>
<rect x="230" y="107" width="492" height="6" fill="#10b981" opacity="0.9"/>
<text x="798" y="110" font-family="Inter, Arial, sans-serif" font-size="11" fill="#374151">278.4M -> 281.9M (1.2%)</text>
<text x="8" y="130" font-family="Inter, Arial, sans-serif" font-size="11" fill="#111827">extend-low-i8x16-u</text>
<rect x="230" y="119" width="498" height="6" fill="#3b82f6" opacity="0.9"/>
<rect x="230" y="127" width="479" height="6" fill="#10b981" opacity="0.9"/>
<text x="798" y="130" font-family="Inter, Arial, sans-serif" font-size="11" fill="#374151">285.4M -> 274.5M (-3.8%)</text>
<text x="8" y="150" font-family="Inter, Arial, sans-serif" font-size="11" fill="#111827">all-true</text>
<rect x="230" y="139" width="478" height="6" fill="#3b82f6" opacity="0.9"/>
<rect x="230" y="147" width="462" height="6" fill="#10b981" opacity="0.9"/>
<text x="798" y="150" font-family="Inter, Arial, sans-serif" font-size="11" fill="#374151">273.6M -> 264.4M (-3.4%)</text>
<text x="8" y="170" font-family="Inter, Arial, sans-serif" font-size="11" fill="#111827">extend-high-i8x16-u</text>
<rect x="230" y="159" width="455" height="6" fill="#3b82f6" opacity="0.9"/>
<rect x="230" y="167" width="479" height="6" fill="#10b981" opacity="0.9"/>
<text x="798" y="170" font-family="Inter, Arial, sans-serif" font-size="11" fill="#374151">260.5M -> 274.6M (5.4%)</text>
<text x="8" y="190" font-family="Inter, Arial, sans-serif" font-size="11" fill="#111827">bitmask</text>
<rect x="230" y="179" width="443" height="6" fill="#3b82f6" opacity="0.9"/>
<rect x="230" y="187" width="489" height="6" fill="#10b981" opacity="0.9"/>
<text x="798" y="190" font-family="Inter, Arial, sans-serif" font-size="11" fill="#374151">253.8M -> 279.9M (10.3%)</text>
<text x="8" y="210" font-family="Inter, Arial, sans-serif" font-size="11" fill="#111827">extend-low-i8x16-s</text>
<rect x="230" y="199" width="447" height="6" fill="#3b82f6" opacity="0.9"/>
<rect x="230" y="207" width="476" height="6" fill="#10b981" opacity="0.9"/>
<text x="798" y="210" font-family="Inter, Arial, sans-serif" font-size="11" fill="#374151">256.0M -> 272.7M (6.5%)</text>
<text x="8" y="230" font-family="Inter, Arial, sans-serif" font-size="11" fill="#111827">extract-lane-u</text>
<rect x="230" y="219" width="415" height="6" fill="#3b82f6" opacity="0.9"/>
<rect x="230" y="227" width="484" height="6" fill="#10b981" opacity="0.9"/>
<text x="798" y="230" font-family="Inter, Arial, sans-serif" font-size="11" fill="#374151">237.9M -> 277.4M (16.6%)</text>
<text x="8" y="250" font-family="Inter, Arial, sans-serif" font-size="11" fill="#111827">extract-lane-s</text>
<rect x="230" y="239" width="420" height="6" fill="#3b82f6" opacity="0.9"/>
<rect x="230" y="247" width="478" height="6" fill="#10b981" opacity="0.9"/>
<text x="798" y="250" font-family="Inter, Arial, sans-serif" font-size="11" fill="#374151">240.4M -> 273.9M (13.9%)</text>
<text x="8" y="270" font-family="Inter, Arial, sans-serif" font-size="11" fill="#111827">extadd-pairwise-i8x16-u</text>
<rect x="230" y="259" width="398" height="6" fill="#3b82f6" opacity="0.9"/>
<rect x="230" y="267" width="476" height="6" fill="#10b981" opacity="0.9"/>
<text x="798" y="270" font-family="Inter, Arial, sans-serif" font-size="11" fill="#374151">227.8M -> 272.8M (19.7%)</text>
<text x="8" y="290" font-family="Inter, Arial, sans-serif" font-size="11" fill="#111827">extend-high-i8x16-s</text>
<rect x="230" y="279" width="403" height="6" fill="#3b82f6" opacity="0.9"/>
<rect x="230" y="287" width="468" height="6" fill="#10b981" opacity="0.9"/>
<text x="798" y="290" font-family="Inter, Arial, sans-serif" font-size="11" fill="#374151">230.7M -> 267.9M (16.1%)</text>
<text x="8" y="310" font-family="Inter, Arial, sans-serif" font-size="11" fill="#111827">extadd-pairwise-i8x16-s</text>
<rect x="230" y="299" width="364" height="6" fill="#3b82f6" opacity="0.9"/>
<rect x="230" y="307" width="476" height="6" fill="#10b981" opacity="0.9"/>
<text x="798" y="310" font-family="Inter, Arial, sans-serif" font-size="11" fill="#374151">208.4M -> 272.7M (30.9%)</text>
<text x="8" y="330" font-family="Inter, Arial, sans-serif" font-size="11" fill="#111827">add</text>
<rect x="230" y="319" width="438" height="6" fill="#3b82f6" opacity="0.9"/>
<rect x="230" y="327" width="395" height="6" fill="#10b981" opacity="0.9"/>
<text x="798" y="330" font-family="Inter, Arial, sans-serif" font-size="11" fill="#374151">250.9M -> 226.5M (-9.7%)</text>
<text x="8" y="350" font-family="Inter, Arial, sans-serif" font-size="11" fill="#111827">sub</text>
<rect x="230" y="339" width="437" height="6" fill="#3b82f6" opacity="0.9"/>
<rect x="230" y="347" width="396" height="6" fill="#10b981" opacity="0.9"/>
<text x="798" y="350" font-family="Inter, Arial, sans-serif" font-size="11" fill="#374151">250.0M -> 226.6M (-9.4%)</text>
<text x="8" y="370" font-family="Inter, Arial, sans-serif" font-size="11" fill="#111827">avgr-u</text>
<rect x="230" y="359" width="417" height="6" fill="#3b82f6" opacity="0.9"/>
<rect x="230" y="367" width="393" height="6" fill="#10b981" opacity="0.9"/>
<text x="798" y="370" font-family="Inter, Arial, sans-serif" font-size="11" fill="#374151">239.0M -> 225.3M (-5.7%)</text>
<text x="8" y="390" font-family="Inter, Arial, sans-serif" font-size="11" fill="#111827">min-s</text>
<rect x="230" y="379" width="372" height="6" fill="#3b82f6" opacity="0.9"/>
<rect x="230" y="387" width="395" height="6" fill="#10b981" opacity="0.9"/>
<text x="798" y="390" font-family="Inter, Arial, sans-serif" font-size="11" fill="#374151">212.9M -> 226.5M (6.4%)</text>
<text x="8" y="410" font-family="Inter, Arial, sans-serif" font-size="11" fill="#111827">sub-sat-u</text>
<rect x="230" y="399" width="374" height="6" fill="#3b82f6" opacity="0.9"/>
<rect x="230" y="407" width="387" height="6" fill="#10b981" opacity="0.9"/>
<text x="798" y="410" font-family="Inter, Arial, sans-serif" font-size="11" fill="#374151">214.0M -> 221.8M (3.6%)</text>
<text x="8" y="430" font-family="Inter, Arial, sans-serif" font-size="11" fill="#111827">gt-s</text>
<rect x="230" y="419" width="377" height="6" fill="#3b82f6" opacity="0.9"/>
<rect x="230" y="427" width="383" height="6" fill="#10b981" opacity="0.9"/>
<text x="798" y="430" font-family="Inter, Arial, sans-serif" font-size="11" fill="#374151">216.1M -> 219.6M (1.6%)</text>
<text x="8" y="450" font-family="Inter, Arial, sans-serif" font-size="11" fill="#111827">min-u</text>
<rect x="230" y="439" width="361" height="6" fill="#3b82f6" opacity="0.9"/>
<rect x="230" y="447" width="396" height="6" fill="#10b981" opacity="0.9"/>
<text x="798" y="450" font-family="Inter, Arial, sans-serif" font-size="11" fill="#374151">206.7M -> 227.0M (9.8%)</text>
<text x="8" y="470" font-family="Inter, Arial, sans-serif" font-size="11" fill="#111827">max-u</text>
<rect x="230" y="459" width="363" height="6" fill="#3b82f6" opacity="0.9"/>
<rect x="230" y="467" width="394" height="6" fill="#10b981" opacity="0.9"/>
<text x="798" y="470" font-family="Inter, Arial, sans-serif" font-size="11" fill="#374151">207.8M -> 225.7M (8.6%)</text>
<text x="8" y="490" font-family="Inter, Arial, sans-serif" font-size="11" fill="#111827">eq</text>
<rect x="230" y="479" width="372" height="6" fill="#3b82f6" opacity="0.9"/>
<rect x="230" y="487" width="384" height="6" fill="#10b981" opacity="0.9"/>
<text x="798" y="490" font-family="Inter, Arial, sans-serif" font-size="11" fill="#374151">212.9M -> 220.1M (3.4%)</text>
<text x="8" y="510" font-family="Inter, Arial, sans-serif" font-size="11" fill="#111827">mul</text>
<rect x="230" y="499" width="352" height="6" fill="#3b82f6" opacity="0.9"/>
<rect x="230" y="507" width="402" height="6" fill="#10b981" opacity="0.9"/>
<text x="798" y="510" font-family="Inter, Arial, sans-serif" font-size="11" fill="#374151">201.7M -> 230.3M (14.2%)</text>
<text x="8" y="530" font-family="Inter, Arial, sans-serif" font-size="11" fill="#111827">add-sat-u</text>
<rect x="230" y="519" width="364" height="6" fill="#3b82f6" opacity="0.9"/>
<rect x="230" y="527" width="388" height="6" fill="#10b981" opacity="0.9"/>
<text x="798" y="530" font-family="Inter, Arial, sans-serif" font-size="11" fill="#374151">208.8M -> 222.1M (6.4%)</text>
<text x="8" y="550" font-family="Inter, Arial, sans-serif" font-size="11" fill="#111827">add-sat-s</text>
<rect x="230" y="539" width="360" height="6" fill="#3b82f6" opacity="0.9"/>
<rect x="230" y="547" width="389" height="6" fill="#10b981" opacity="0.9"/>
<text x="798" y="550" font-family="Inter, Arial, sans-serif" font-size="11" fill="#374151">206.2M -> 222.6M (8.0%)</text>
<text x="8" y="570" font-family="Inter, Arial, sans-serif" font-size="11" fill="#111827">sub-sat-s</text>
<rect x="230" y="559" width="359" height="6" fill="#3b82f6" opacity="0.9"/>
<rect x="230" y="567" width="387" height="6" fill="#10b981" opacity="0.9"/>
<text x="798" y="570" font-family="Inter, Arial, sans-serif" font-size="11" fill="#374151">205.8M -> 221.9M (7.8%)</text>
<text x="8" y="590" font-family="Inter, Arial, sans-serif" font-size="11" fill="#111827">max-s</text>
<rect x="230" y="579" width="350" height="6" fill="#3b82f6" opacity="0.9"/>
<rect x="230" y="587" width="394" height="6" fill="#10b981" opacity="0.9"/>
<text x="798" y="590" font-family="Inter, Arial, sans-serif" font-size="11" fill="#374151">200.7M -> 225.9M (12.6%)</text>
<text x="8" y="610" font-family="Inter, Arial, sans-serif" font-size="11" fill="#111827">ne</text>
<rect x="230" y="599" width="371" height="6" fill="#3b82f6" opacity="0.9"/>
<rect x="230" y="607" width="373" height="6" fill="#10b981" opacity="0.9"/>
<text x="798" y="610" font-family="Inter, Arial, sans-serif" font-size="11" fill="#374151">212.5M -> 213.8M (0.7%)</text>
<text x="8" y="630" font-family="Inter, Arial, sans-serif" font-size="11" fill="#111827">ge-u</text>
<rect x="230" y="619" width="359" height="6" fill="#3b82f6" opacity="0.9"/>
<rect x="230" y="627" width="376" height="6" fill="#10b981" opacity="0.9"/>
<text x="798" y="630" font-family="Inter, Arial, sans-serif" font-size="11" fill="#374151">205.6M -> 215.2M (4.6%)</text>
<text x="8" y="650" font-family="Inter, Arial, sans-serif" font-size="11" fill="#111827">gt-u</text>
<rect x="230" y="639" width="364" height="6" fill="#3b82f6" opacity="0.9"/>
<rect x="230" y="647" width="368" height="6" fill="#10b981" opacity="0.9"/>
<text x="798" y="650" font-family="Inter, Arial, sans-serif" font-size="11" fill="#374151">208.5M -> 211.0M (1.2%)</text>
<text x="8" y="670" font-family="Inter, Arial, sans-serif" font-size="11" fill="#111827">ge-s</text>
<rect x="230" y="659" width="354" height="6" fill="#3b82f6" opacity="0.9"/>
<rect x="230" y="667" width="375" height="6" fill="#10b981" opacity="0.9"/>
<text x="798" y="670" font-family="Inter, Arial, sans-serif" font-size="11" fill="#374151">202.6M -> 214.7M (6.0%)</text>
<text x="8" y="690" font-family="Inter, Arial, sans-serif" font-size="11" fill="#111827">lt-s</text>
<rect x="230" y="679" width="337" height="6" fill="#3b82f6" opacity="0.9"/>
<rect x="230" y="687" width="384" height="6" fill="#10b981" opacity="0.9"/>
<text x="798" y="690" font-family="Inter, Arial, sans-serif" font-size="11" fill="#374151">193.2M -> 220.2M (14.0%)</text>
<text x="8" y="710" font-family="Inter, Arial, sans-serif" font-size="11" fill="#111827">le-u</text>
<rect x="230" y="699" width="343" height="6" fill="#3b82f6" opacity="0.9"/>
<rect x="230" y="707" width="376" height="6" fill="#10b981" opacity="0.9"/>
<text x="798" y="710" font-family="Inter, Arial, sans-serif" font-size="11" fill="#374151">196.3M -> 215.3M (9.7%)</text>
<text x="8" y="730" font-family="Inter, Arial, sans-serif" font-size="11" fill="#111827">le-s</text>
<rect x="230" y="719" width="336" height="6" fill="#3b82f6" opacity="0.9"/>
<rect x="230" y="727" width="376" height="6" fill="#10b981" opacity="0.9"/>
<text x="798" y="730" font-family="Inter, Arial, sans-serif" font-size="11" fill="#374151">192.3M -> 215.3M (11.9%)</text>
<text x="8" y="750" font-family="Inter, Arial, sans-serif" font-size="11" fill="#111827">lt-u</text>
<rect x="230" y="739" width="343" height="6" fill="#3b82f6" opacity="0.9"/>
<rect x="230" y="747" width="369" height="6" fill="#10b981" opacity="0.9"/>
<text x="798" y="750" font-family="Inter, Arial, sans-serif" font-size="11" fill="#374151">196.3M -> 211.1M (7.5%)</text>
<text x="8" y="770" font-family="Inter, Arial, sans-serif" font-size="11" fill="#111827">narrow-i32x4-s</text>
<rect x="230" y="759" width="322" height="6" fill="#3b82f6" opacity="0.9"/>
<rect x="230" y="767" width="369" height="6" fill="#10b981" opacity="0.9"/>
<text x="798" y="770" font-family="Inter, Arial, sans-serif" font-size="11" fill="#374151">184.2M -> 211.4M (14.8%)</text>
<text x="8" y="790" font-family="Inter, Arial, sans-serif" font-size="11" fill="#111827">narrow-i32x4-u</text>
<rect x="230" y="779" width="322" height="6" fill="#3b82f6" opacity="0.9"/>
<rect x="230" y="787" width="368" height="6" fill="#10b981" opacity="0.9"/>
<text x="798" y="790" font-family="Inter, Arial, sans-serif" font-size="11" fill="#374151">184.4M -> 210.9M (14.4%)</text>
<text x="8" y="810" font-family="Inter, Arial, sans-serif" font-size="11" fill="#111827">shl</text>
<rect x="230" y="799" width="339" height="6" fill="#3b82f6" opacity="0.9"/>
<rect x="230" y="807" width="331" height="6" fill="#10b981" opacity="0.9"/>
<text x="798" y="810" font-family="Inter, Arial, sans-serif" font-size="11" fill="#374151">194.2M -> 189.6M (-2.4%)</text>
<text x="8" y="830" font-family="Inter, Arial, sans-serif" font-size="11" fill="#111827">shr-u</text>
<rect x="230" y="819" width="335" height="6" fill="#3b82f6" opacity="0.9"/>
<rect x="230" y="827" width="331" height="6" fill="#10b981" opacity="0.9"/>
<text x="798" y="830" font-family="Inter, Arial, sans-serif" font-size="11" fill="#374151">191.9M -> 189.5M (-1.3%)</text>
<text x="8" y="850" font-family="Inter, Arial, sans-serif" font-size="11" fill="#111827">extmul-low-i8x16-u</text>
<rect x="230" y="839" width="292" height="6" fill="#3b82f6" opacity="0.9"/>
<rect x="230" y="847" width="368" height="6" fill="#10b981" opacity="0.9"/>
<text x="798" y="850" font-family="Inter, Arial, sans-serif" font-size="11" fill="#374151">167.5M -> 210.9M (25.9%)</text>
<text x="8" y="870" font-family="Inter, Arial, sans-serif" font-size="11" fill="#111827">replace-lane</text>
<rect x="230" y="859" width="314" height="6" fill="#3b82f6" opacity="0.9"/>
<rect x="230" y="867" width="344" height="6" fill="#10b981" opacity="0.9"/>
<text x="798" y="870" font-family="Inter, Arial, sans-serif" font-size="11" fill="#374151">180.1M -> 196.8M (9.3%)</text>
<text x="8" y="890" font-family="Inter, Arial, sans-serif" font-size="11" fill="#111827">extmul-high-i8x16-u</text>
<rect x="230" y="879" width="287" height="6" fill="#3b82f6" opacity="0.9"/>
<rect x="230" y="887" width="367" height="6" fill="#10b981" opacity="0.9"/>
<text x="798" y="890" font-family="Inter, Arial, sans-serif" font-size="11" fill="#374151">164.2M -> 210.3M (28.1%)</text>
<text x="8" y="910" font-family="Inter, Arial, sans-serif" font-size="11" fill="#111827">shr-s</text>
<rect x="230" y="899" width="321" height="6" fill="#3b82f6" opacity="0.9"/>
<rect x="230" y="907" width="331" height="6" fill="#10b981" opacity="0.9"/>
<text x="798" y="910" font-family="Inter, Arial, sans-serif" font-size="11" fill="#374151">184.0M -> 189.7M (3.1%)</text>
<text x="8" y="930" font-family="Inter, Arial, sans-serif" font-size="11" fill="#111827">extmul-low-i8x16-s</text>
<rect x="230" y="919" width="276" height="6" fill="#3b82f6" opacity="0.9"/>
<rect x="230" y="927" width="367" height="6" fill="#10b981" opacity="0.9"/>
<text x="798" y="930" font-family="Inter, Arial, sans-serif" font-size="11" fill="#374151">158.0M -> 210.4M (33.2%)</text>
<text x="8" y="950" font-family="Inter, Arial, sans-serif" font-size="11" fill="#111827">extmul-high-i8x16-s</text>
<rect x="230" y="939" width="277" height="6" fill="#3b82f6" opacity="0.9"/>
<rect x="230" y="947" width="354" height="6" fill="#10b981" opacity="0.9"/>
<text x="798" y="950" font-family="Inter, Arial, sans-serif" font-size="11" fill="#374151">158.9M -> 202.6M (27.5%)</text>
<text x="8" y="970" font-family="Inter, Arial, sans-serif" font-size="11" fill="#111827">q15mulr-sat-s</text>
<rect x="230" y="959" width="221" height="6" fill="#3b82f6" opacity="0.9"/>
<rect x="230" y="967" width="372" height="6" fill="#10b981" opacity="0.9"/>
<text x="798" y="970" font-family="Inter, Arial, sans-serif" font-size="11" fill="#374151">126.6M -> 212.9M (68.1%)</text>
<text x="8" y="990" font-family="Inter, Arial, sans-serif" font-size="11" fill="#111827">shuffle</text>
<rect x="230" y="979" width="69" height="6" fill="#3b82f6" opacity="0.9"/>
<rect x="230" y="987" width="381" height="6" fill="#10b981" opacity="0.9"/>
<text x="798" y="990" font-family="Inter, Arial, sans-serif" font-size="11" fill="#374151">39.7M -> 218.3M (450.1%)</text>
</svg>
