<svg xmlns="http://www.w3.org/2000/svg" width="1030" height="496" viewBox="0 0 1030 496">
<rect x="0" y="0" width="1030" height="496" fill="#ffffff"/>
<text x="16" y="24" font-family="Inter, Arial, sans-serif" font-size="16" font-weight="700" fill="#111827">i64x2 SIMD vs SWAR</text>
<text x="16" y="42" font-family="Inter, Arial, sans-serif" font-size="12" fill="#4b5563">Blue: SIMD, Green: SWAR</text>
<text x="8" y="70" font-family="Inter, Arial, sans-serif" font-size="11" fill="#111827">neg</text>
<rect x="170" y="59" width="542" height="6" fill="#3b82f6" opacity="0.9"/>
<rect x="170" y="67" width="515" height="6" fill="#10b981" opacity="0.9"/>
<text x="738" y="70" font-family="Inter, Arial, sans-serif" font-size="11" fill="#374151">302.6M -> 287.3M (-5.1%)</text>
<text x="8" y="90" font-family="Inter, Arial, sans-serif" font-size="11" fill="#111827">splat</text>
<rect x="170" y="79" width="527" height="6" fill="#3b82f6" opacity="0.9"/>
<rect x="170" y="87" width="495" height="6" fill="#10b981" opacity="0.9"/>
<text x="738" y="90" font-family="Inter, Arial, sans-serif" font-size="11" fill="#374151">294.0M -> 276.4M (-6.0%)</text>
<text x="8" y="110" font-family="Inter, Arial, sans-serif" font-size="11" fill="#111827">extract-lane</text>
<rect x="170" y="99" width="517" height="6" fill="#3b82f6" opacity="0.9"/>
<rect x="170" y="107" width="499" height="6" fill="#10b981" opacity="0.9"/>
<text x="738" y="110" font-family="Inter, Arial, sans-serif" font-size="11" fill="#374151">288.7M -> 278.7M (-3.5%)</text>
<text x="8" y="130" font-family="Inter, Arial, sans-serif" font-size="11" fill="#111827">load</text>
<rect x="170" y="119" width="521" height="6" fill="#3b82f6" opacity="0.9"/>
<rect x="170" y="127" width="479" height="6" fill="#10b981" opacity="0.9"/>
<text x="738" y="130" font-family="Inter, Arial, sans-serif" font-size="11" fill="#374151">290.5M -> 267.3M (-8.0%)</text>
<text x="8" y="150" font-family="Inter, Arial, sans-serif" font-size="11" fill="#111827">all-true</text>
<rect x="170" y="139" width="518" height="6" fill="#3b82f6" opacity="0.9"/>
<rect x="170" y="147" width="472" height="6" fill="#10b981" opacity="0.9"/>
<text x="738" y="150" font-family="Inter, Arial, sans-serif" font-size="11" fill="#374151">288.8M -> 263.5M (-8.8%)</text>
<text x="8" y="170" font-family="Inter, Arial, sans-serif" font-size="11" fill="#111827">eq</text>
<rect x="170" y="159" width="437" height="6" fill="#3b82f6" opacity="0.9"/>
<rect x="170" y="167" width="402" height="6" fill="#10b981" opacity="0.9"/>
<text x="738" y="170" font-family="Inter, Arial, sans-serif" font-size="11" fill="#374151">243.7M -> 224.3M (-8.0%)</text>
<text x="8" y="190" font-family="Inter, Arial, sans-serif" font-size="11" fill="#111827">add</text>
<rect x="170" y="179" width="423" height="6" fill="#3b82f6" opacity="0.9"/>
<rect x="170" y="187" width="406" height="6" fill="#10b981" opacity="0.9"/>
<text x="738" y="190" font-family="Inter, Arial, sans-serif" font-size="11" fill="#374151">236.2M -> 226.8M (-4.0%)</text>
<text x="8" y="210" font-family="Inter, Arial, sans-serif" font-size="11" fill="#111827">bitmask</text>
<rect x="170" y="199" width="560" height="6" fill="#3b82f6" opacity="0.9"/>
<rect x="170" y="207" width="269" height="6" fill="#10b981" opacity="0.9"/>
<text x="738" y="210" font-family="Inter, Arial, sans-serif" font-size="11" fill="#374151">312.5M -> 149.9M (-52.0%)</text>
<text x="8" y="230" font-family="Inter, Arial, sans-serif" font-size="11" fill="#111827">lt-s</text>
<rect x="170" y="219" width="417" height="6" fill="#3b82f6" opacity="0.9"/>
<rect x="170" y="227" width="402" height="6" fill="#10b981" opacity="0.9"/>
<text x="738" y="230" font-family="Inter, Arial, sans-serif" font-size="11" fill="#374151">232.9M -> 224.1M (-3.8%)</text>
<text x="8" y="250" font-family="Inter, Arial, sans-serif" font-size="11" fill="#111827">sub</text>
<rect x="170" y="239" width="412" height="6" fill="#3b82f6" opacity="0.9"/>
<rect x="170" y="247" width="402" height="6" fill="#10b981" opacity="0.9"/>
<text x="738" y="250" font-family="Inter, Arial, sans-serif" font-size="11" fill="#374151">230.1M -> 224.2M (-2.6%)</text>
<text x="8" y="270" font-family="Inter, Arial, sans-serif" font-size="11" fill="#111827">ne</text>
<rect x="170" y="259" width="410" height="6" fill="#3b82f6" opacity="0.9"/>
<rect x="170" y="267" width="389" height="6" fill="#10b981" opacity="0.9"/>
<text x="738" y="270" font-family="Inter, Arial, sans-serif" font-size="11" fill="#374151">228.7M -> 217.1M (-5.1%)</text>
<text x="8" y="290" font-family="Inter, Arial, sans-serif" font-size="11" fill="#111827">le-s</text>
<rect x="170" y="279" width="377" height="6" fill="#3b82f6" opacity="0.9"/>
<rect x="170" y="287" width="397" height="6" fill="#10b981" opacity="0.9"/>
<text x="738" y="290" font-family="Inter, Arial, sans-serif" font-size="11" fill="#374151">210.3M -> 221.8M (5.5%)</text>
<text x="8" y="310" font-family="Inter, Arial, sans-serif" font-size="11" fill="#111827">gt-s</text>
<rect x="170" y="299" width="365" height="6" fill="#3b82f6" opacity="0.9"/>
<rect x="170" y="307" width="406" height="6" fill="#10b981" opacity="0.9"/>
<text x="738" y="310" font-family="Inter, Arial, sans-serif" font-size="11" fill="#374151">203.9M -> 226.8M (11.2%)</text>
<text x="8" y="330" font-family="Inter, Arial, sans-serif" font-size="11" fill="#111827">ge-s</text>
<rect x="170" y="319" width="359" height="6" fill="#3b82f6" opacity="0.9"/>
<rect x="170" y="327" width="393" height="6" fill="#10b981" opacity="0.9"/>
<text x="738" y="330" font-family="Inter, Arial, sans-serif" font-size="11" fill="#374151">200.4M -> 219.1M (9.4%)</text>
<text x="8" y="350" font-family="Inter, Arial, sans-serif" font-size="11" fill="#111827">replace-lane</text>
<rect x="170" y="339" width="383" height="6" fill="#3b82f6" opacity="0.9"/>
<rect x="170" y="347" width="363" height="6" fill="#10b981" opacity="0.9"/>
<text x="738" y="350" font-family="Inter, Arial, sans-serif" font-size="11" fill="#374151">213.5M -> 202.6M (-5.1%)</text>
<text x="8" y="370" font-family="Inter, Arial, sans-serif" font-size="11" fill="#111827">shr-u</text>
<rect x="170" y="359" width="385" height="6" fill="#3b82f6" opacity="0.9"/>
<rect x="170" y="367" width="354" height="6" fill="#10b981" opacity="0.9"/>
<text x="738" y="370" font-family="Inter, Arial, sans-serif" font-size="11" fill="#374151">214.9M -> 197.4M (-8.1%)</text>
<text x="8" y="390" font-family="Inter, Arial, sans-serif" font-size="11" fill="#111827">shl</text>
<rect x="170" y="379" width="368" height="6" fill="#3b82f6" opacity="0.9"/>
<rect x="170" y="387" width="357" height="6" fill="#10b981" opacity="0.9"/>
<text x="738" y="390" font-family="Inter, Arial, sans-serif" font-size="11" fill="#374151">205.1M -> 199.2M (-2.9%)</text>
<text x="8" y="410" font-family="Inter, Arial, sans-serif" font-size="11" fill="#111827">store</text>
<rect x="170" y="399" width="374" height="6" fill="#3b82f6" opacity="0.9"/>
<rect x="170" y="407" width="344" height="6" fill="#10b981" opacity="0.9"/>
<text x="738" y="410" font-family="Inter, Arial, sans-serif" font-size="11" fill="#374151">208.7M -> 192.2M (-7.9%)</text>
<text x="8" y="430" font-family="Inter, Arial, sans-serif" font-size="11" fill="#111827">shr-s</text>
<rect x="170" y="419" width="332" height="6" fill="#3b82f6" opacity="0.9"/>
<rect x="170" y="427" width="332" height="6" fill="#10b981" opacity="0.9"/>
<text x="738" y="430" font-family="Inter, Arial, sans-serif" font-size="11" fill="#374151">185.5M -> 185.5M (-0.0%)</text>
<text x="8" y="450" font-family="Inter, Arial, sans-serif" font-size="11" fill="#111827">load-partial</text>
<rect x="170" y="439" width="106" height="6" fill="#3b82f6" opacity="0.9"/>
<rect x="170" y="447" width="103" height="6" fill="#10b981" opacity="0.9"/>
<text x="738" y="450" font-family="Inter, Arial, sans-serif" font-size="11" fill="#374151">59.1M -> 57.4M (-2.8%)</text>
<text x="8" y="470" font-family="Inter, Arial, sans-serif" font-size="11" fill="#111827">store-partial</text>
<rect x="170" y="459" width="97" height="6" fill="#3b82f6" opacity="0.9"/>
<rect x="170" y="467" width="97" height="6" fill="#10b981" opacity="0.9"/>
<text x="738" y="470" font-family="Inter, Arial, sans-serif" font-size="11" fill="#374151">54.2M -> 53.9M (-0.5%)</text>
</svg>
