<svg xmlns="http://www.w3.org/2000/svg" width="1090" height="816" viewBox="0 0 1090 816">
<rect x="0" y="0" width="1090" height="816" fill="#ffffff"/>
<text x="16" y="24" font-family="Inter, Arial, sans-serif" font-size="16" font-weight="700" fill="#111827">i8x8 vs i8x16 (SIMD)</text>
<text x="16" y="42" font-family="Inter, Arial, sans-serif" font-size="12" fill="#4b5563">Blue: i8x8, Green: i8x16</text>
<text x="8" y="70" font-family="Inter, Arial, sans-serif" font-size="11" fill="#111827">bitmask</text>
<rect x="170" y="59" width="560" height="6" fill="#3b82f6" opacity="0.9"/>
<rect x="170" y="67" width="416" height="6" fill="#10b981" opacity="0.9"/>
<text x="738" y="70" font-family="Inter, Arial, sans-serif" font-size="11" fill="#374151">369.4M -> 274.7M (-25.6%) | 2.955 -> 4.395 GB/s (48.7%)</text>
<text x="8" y="90" font-family="Inter, Arial, sans-serif" font-size="11" fill="#111827">splat</text>
<rect x="170" y="79" width="542" height="6" fill="#3b82f6" opacity="0.9"/>
<rect x="170" y="87" width="420" height="6" fill="#10b981" opacity="0.9"/>
<text x="738" y="90" font-family="Inter, Arial, sans-serif" font-size="11" fill="#374151">357.8M -> 277.2M (-22.5%) | 2.862 -> 4.436 GB/s (55.0%)</text>
<text x="8" y="110" font-family="Inter, Arial, sans-serif" font-size="11" fill="#111827">abs</text>
<rect x="170" y="99" width="522" height="6" fill="#3b82f6" opacity="0.9"/>
<rect x="170" y="107" width="449" height="6" fill="#10b981" opacity="0.9"/>
<text x="738" y="110" font-family="Inter, Arial, sans-serif" font-size="11" fill="#374151">344.2M -> 296.2M (-14.0%) | 2.754 -> 4.739 GB/s (72.1%)</text>
<text x="8" y="130" font-family="Inter, Arial, sans-serif" font-size="11" fill="#111827">neg</text>
<rect x="170" y="119" width="515" height="6" fill="#3b82f6" opacity="0.9"/>
<rect x="170" y="127" width="434" height="6" fill="#10b981" opacity="0.9"/>
<text x="738" y="130" font-family="Inter, Arial, sans-serif" font-size="11" fill="#374151">339.7M -> 286.0M (-15.8%) | 2.718 -> 4.576 GB/s (68.4%)</text>
<text x="8" y="150" font-family="Inter, Arial, sans-serif" font-size="11" fill="#111827">all-true</text>
<rect x="170" y="139" width="494" height="6" fill="#3b82f6" opacity="0.9"/>
<rect x="170" y="147" width="396" height="6" fill="#10b981" opacity="0.9"/>
<text x="738" y="150" font-family="Inter, Arial, sans-serif" font-size="11" fill="#374151">325.9M -> 261.4M (-19.8%) | 2.607 -> 4.183 GB/s (60.4%)</text>
<text x="8" y="170" font-family="Inter, Arial, sans-serif" font-size="11" fill="#111827">popcnt</text>
<rect x="170" y="159" width="471" height="6" fill="#3b82f6" opacity="0.9"/>
<rect x="170" y="167" width="354" height="6" fill="#10b981" opacity="0.9"/>
<text x="738" y="170" font-family="Inter, Arial, sans-serif" font-size="11" fill="#374151">310.7M -> 233.6M (-24.8%) | 2.485 -> 3.738 GB/s (50.4%)</text>
<text x="8" y="190" font-family="Inter, Arial, sans-serif" font-size="11" fill="#111827">eq</text>
<rect x="170" y="179" width="391" height="6" fill="#3b82f6" opacity="0.9"/>
<rect x="170" y="187" width="329" height="6" fill="#10b981" opacity="0.9"/>
<text x="738" y="190" font-family="Inter, Arial, sans-serif" font-size="11" fill="#374151">257.7M -> 217.0M (-15.8%) | 4.124 -> 6.944 GB/s (68.4%)</text>
<text x="8" y="210" font-family="Inter, Arial, sans-serif" font-size="11" fill="#111827">gt-s</text>
<rect x="170" y="199" width="387" height="6" fill="#3b82f6" opacity="0.9"/>
<rect x="170" y="207" width="341" height="6" fill="#10b981" opacity="0.9"/>
<text x="738" y="210" font-family="Inter, Arial, sans-serif" font-size="11" fill="#374151">255.1M -> 224.9M (-11.8%) | 4.081 -> 7.196 GB/s (76.3%)</text>
<text x="8" y="230" font-family="Inter, Arial, sans-serif" font-size="11" fill="#111827">lt-s</text>
<rect x="170" y="219" width="385" height="6" fill="#3b82f6" opacity="0.9"/>
<rect x="170" y="227" width="348" height="6" fill="#10b981" opacity="0.9"/>
<text x="738" y="230" font-family="Inter, Arial, sans-serif" font-size="11" fill="#374151">254.0M -> 229.6M (-9.6%) | 4.063 -> 7.349 GB/s (80.8%)</text>
<text x="8" y="250" font-family="Inter, Arial, sans-serif" font-size="11" fill="#111827">ne</text>
<rect x="170" y="239" width="385" height="6" fill="#3b82f6" opacity="0.9"/>
<rect x="170" y="247" width="314" height="6" fill="#10b981" opacity="0.9"/>
<text x="738" y="250" font-family="Inter, Arial, sans-serif" font-size="11" fill="#374151">253.7M -> 207.3M (-18.3%) | 4.060 -> 6.634 GB/s (63.4%)</text>
<text x="8" y="270" font-family="Inter, Arial, sans-serif" font-size="11" fill="#111827">extract-lane-u</text>
<rect x="170" y="259" width="385" height="6" fill="#3b82f6" opacity="0.9"/>
<rect x="170" y="267" width="411" height="6" fill="#10b981" opacity="0.9"/>
<text x="738" y="270" font-family="Inter, Arial, sans-serif" font-size="11" fill="#374151">253.7M -> 270.9M (6.8%) | 2.030 -> 4.334 GB/s (113.5%)</text>
<text x="8" y="290" font-family="Inter, Arial, sans-serif" font-size="11" fill="#111827">le-s</text>
<rect x="170" y="279" width="385" height="6" fill="#3b82f6" opacity="0.9"/>
<rect x="170" y="287" width="335" height="6" fill="#10b981" opacity="0.9"/>
<text x="738" y="290" font-family="Inter, Arial, sans-serif" font-size="11" fill="#374151">253.7M -> 221.0M (-12.9%) | 4.058 -> 7.072 GB/s (74.3%)</text>
<text x="8" y="310" font-family="Inter, Arial, sans-serif" font-size="11" fill="#111827">add</text>
<rect x="170" y="299" width="384" height="6" fill="#3b82f6" opacity="0.9"/>
<rect x="170" y="307" width="334" height="6" fill="#10b981" opacity="0.9"/>
<text x="738" y="310" font-family="Inter, Arial, sans-serif" font-size="11" fill="#374151">253.2M -> 220.2M (-13.0%) | 4.051 -> 7.047 GB/s (74.0%)</text>
<text x="8" y="330" font-family="Inter, Arial, sans-serif" font-size="11" fill="#111827">extract-lane-s</text>
<rect x="170" y="319" width="384" height="6" fill="#3b82f6" opacity="0.9"/>
<rect x="170" y="327" width="407" height="6" fill="#10b981" opacity="0.9"/>
<text x="738" y="330" font-family="Inter, Arial, sans-serif" font-size="11" fill="#374151">253.1M -> 268.2M (5.9%) | 2.025 -> 4.291 GB/s (111.9%)</text>
<text x="8" y="350" font-family="Inter, Arial, sans-serif" font-size="11" fill="#111827">swizzle</text>
<rect x="170" y="339" width="382" height="6" fill="#3b82f6" opacity="0.9"/>
<rect x="170" y="347" width="306" height="6" fill="#10b981" opacity="0.9"/>
<text x="738" y="350" font-family="Inter, Arial, sans-serif" font-size="11" fill="#374151">252.0M -> 201.6M (-20.0%) | 4.032 -> 6.452 GB/s (60.0%)</text>
<text x="8" y="370" font-family="Inter, Arial, sans-serif" font-size="11" fill="#111827">max-u</text>
<rect x="170" y="359" width="382" height="6" fill="#3b82f6" opacity="0.9"/>
<rect x="170" y="367" width="328" height="6" fill="#10b981" opacity="0.9"/>
<text x="738" y="370" font-family="Inter, Arial, sans-serif" font-size="11" fill="#374151">251.7M -> 216.6M (-14.0%) | 4.027 -> 6.930 GB/s (72.1%)</text>
<text x="8" y="390" font-family="Inter, Arial, sans-serif" font-size="11" fill="#111827">sub</text>
<rect x="170" y="379" width="381" height="6" fill="#3b82f6" opacity="0.9"/>
<rect x="170" y="387" width="329" height="6" fill="#10b981" opacity="0.9"/>
<text x="738" y="390" font-family="Inter, Arial, sans-serif" font-size="11" fill="#374151">251.4M -> 217.1M (-13.7%) | 4.023 -> 6.946 GB/s (72.7%)</text>
<text x="8" y="410" font-family="Inter, Arial, sans-serif" font-size="11" fill="#111827">sub-sat-u</text>
<rect x="170" y="399" width="381" height="6" fill="#3b82f6" opacity="0.9"/>
<rect x="170" y="407" width="200" height="6" fill="#10b981" opacity="0.9"/>
<text x="738" y="410" font-family="Inter, Arial, sans-serif" font-size="11" fill="#374151">251.2M -> 132.0M (-47.4%) | 4.019 -> 4.225 GB/s (5.1%)</text>
<text x="8" y="430" font-family="Inter, Arial, sans-serif" font-size="11" fill="#111827">ge-u</text>
<rect x="170" y="419" width="381" height="6" fill="#3b82f6" opacity="0.9"/>
<rect x="170" y="427" width="336" height="6" fill="#10b981" opacity="0.9"/>
<text x="738" y="430" font-family="Inter, Arial, sans-serif" font-size="11" fill="#374151">251.0M -> 221.6M (-11.7%) | 4.017 -> 7.091 GB/s (76.5%)</text>
<text x="8" y="450" font-family="Inter, Arial, sans-serif" font-size="11" fill="#111827">add-sat-u</text>
<rect x="170" y="439" width="380" height="6" fill="#3b82f6" opacity="0.9"/>
<rect x="170" y="447" width="209" height="6" fill="#10b981" opacity="0.9"/>
<text x="738" y="450" font-family="Inter, Arial, sans-serif" font-size="11" fill="#374151">250.3M -> 137.9M (-44.9%) | 4.005 -> 4.412 GB/s (10.2%)</text>
<text x="8" y="470" font-family="Inter, Arial, sans-serif" font-size="11" fill="#111827">ge-s</text>
<rect x="170" y="459" width="379" height="6" fill="#3b82f6" opacity="0.9"/>
<rect x="170" y="467" width="335" height="6" fill="#10b981" opacity="0.9"/>
<text x="738" y="470" font-family="Inter, Arial, sans-serif" font-size="11" fill="#374151">249.9M -> 221.3M (-11.5%) | 3.999 -> 7.081 GB/s (77.1%)</text>
<text x="8" y="490" font-family="Inter, Arial, sans-serif" font-size="11" fill="#111827">avgr-u</text>
<rect x="170" y="479" width="379" height="6" fill="#3b82f6" opacity="0.9"/>
<rect x="170" y="487" width="355" height="6" fill="#10b981" opacity="0.9"/>
<text x="738" y="490" font-family="Inter, Arial, sans-serif" font-size="11" fill="#374151">249.9M -> 234.3M (-6.2%) | 3.998 -> 7.499 GB/s (87.6%)</text>
<text x="8" y="510" font-family="Inter, Arial, sans-serif" font-size="11" fill="#111827">max-s</text>
<rect x="170" y="499" width="379" height="6" fill="#3b82f6" opacity="0.9"/>
<rect x="170" y="507" width="329" height="6" fill="#10b981" opacity="0.9"/>
<text x="738" y="510" font-family="Inter, Arial, sans-serif" font-size="11" fill="#374151">249.7M -> 217.1M (-13.1%) | 3.996 -> 6.947 GB/s (73.8%)</text>
<text x="8" y="530" font-family="Inter, Arial, sans-serif" font-size="11" fill="#111827">le-u</text>
<rect x="170" y="519" width="378" height="6" fill="#3b82f6" opacity="0.9"/>
<rect x="170" y="527" width="336" height="6" fill="#10b981" opacity="0.9"/>
<text x="738" y="530" font-family="Inter, Arial, sans-serif" font-size="11" fill="#374151">249.4M -> 221.8M (-11.1%) | 3.991 -> 7.098 GB/s (77.8%)</text>
<text x="8" y="550" font-family="Inter, Arial, sans-serif" font-size="11" fill="#111827">min-s</text>
<rect x="170" y="539" width="378" height="6" fill="#3b82f6" opacity="0.9"/>
<rect x="170" y="547" width="331" height="6" fill="#10b981" opacity="0.9"/>
<text x="738" y="550" font-family="Inter, Arial, sans-serif" font-size="11" fill="#374151">249.4M -> 218.0M (-12.6%) | 3.990 -> 6.976 GB/s (74.9%)</text>
<text x="8" y="570" font-family="Inter, Arial, sans-serif" font-size="11" fill="#111827">gt-u</text>
<rect x="170" y="559" width="377" height="6" fill="#3b82f6" opacity="0.9"/>
<rect x="170" y="567" width="330" height="6" fill="#10b981" opacity="0.9"/>
<text x="738" y="570" font-family="Inter, Arial, sans-serif" font-size="11" fill="#374151">248.5M -> 217.8M (-12.4%) | 3.977 -> 6.970 GB/s (75.3%)</text>
<text x="8" y="590" font-family="Inter, Arial, sans-serif" font-size="11" fill="#111827">lt-u</text>
<rect x="170" y="579" width="376" height="6" fill="#3b82f6" opacity="0.9"/>
<rect x="170" y="587" width="331" height="6" fill="#10b981" opacity="0.9"/>
<text x="738" y="590" font-family="Inter, Arial, sans-serif" font-size="11" fill="#374151">247.8M -> 218.2M (-11.9%) | 3.965 -> 6.984 GB/s (76.2%)</text>
<text x="8" y="610" font-family="Inter, Arial, sans-serif" font-size="11" fill="#111827">sub-sat-s</text>
<rect x="170" y="599" width="372" height="6" fill="#3b82f6" opacity="0.9"/>
<rect x="170" y="607" width="325" height="6" fill="#10b981" opacity="0.9"/>
<text x="738" y="610" font-family="Inter, Arial, sans-serif" font-size="11" fill="#374151">245.3M -> 214.3M (-12.6%) | 3.924 -> 6.858 GB/s (74.8%)</text>
<text x="8" y="630" font-family="Inter, Arial, sans-serif" font-size="11" fill="#111827">add-sat-s</text>
<rect x="170" y="619" width="371" height="6" fill="#3b82f6" opacity="0.9"/>
<rect x="170" y="627" width="352" height="6" fill="#10b981" opacity="0.9"/>
<text x="738" y="630" font-family="Inter, Arial, sans-serif" font-size="11" fill="#374151">244.9M -> 232.4M (-5.1%) | 3.918 -> 7.436 GB/s (89.8%)</text>
<text x="8" y="650" font-family="Inter, Arial, sans-serif" font-size="11" fill="#111827">relaxed-laneselect</text>
<rect x="170" y="639" width="340" height="6" fill="#3b82f6" opacity="0.9"/>
<rect x="170" y="647" width="253" height="6" fill="#10b981" opacity="0.9"/>
<text x="738" y="650" font-family="Inter, Arial, sans-serif" font-size="11" fill="#374151">224.5M -> 166.9M (-25.7%) | 5.387 -> 8.009 GB/s (48.7%)</text>
<text x="8" y="670" font-family="Inter, Arial, sans-serif" font-size="11" fill="#111827">shr-u</text>
<rect x="170" y="659" width="333" height="6" fill="#3b82f6" opacity="0.9"/>
<rect x="170" y="667" width="248" height="6" fill="#10b981" opacity="0.9"/>
<text x="738" y="670" font-family="Inter, Arial, sans-serif" font-size="11" fill="#374151">219.8M -> 163.5M (-25.6%) | 1.759 -> 2.616 GB/s (48.7%)</text>
<text x="8" y="690" font-family="Inter, Arial, sans-serif" font-size="11" fill="#111827">shr-s</text>
<rect x="170" y="679" width="333" height="6" fill="#3b82f6" opacity="0.9"/>
<rect x="170" y="687" width="248" height="6" fill="#10b981" opacity="0.9"/>
<text x="738" y="690" font-family="Inter, Arial, sans-serif" font-size="11" fill="#374151">219.4M -> 163.4M (-25.5%) | 1.755 -> 2.615 GB/s (49.0%)</text>
<text x="8" y="710" font-family="Inter, Arial, sans-serif" font-size="11" fill="#111827">shl</text>
<rect x="170" y="699" width="327" height="6" fill="#3b82f6" opacity="0.9"/>
<rect x="170" y="707" width="237" height="6" fill="#10b981" opacity="0.9"/>
<text x="738" y="710" font-family="Inter, Arial, sans-serif" font-size="11" fill="#374151">215.4M -> 156.2M (-27.5%) | 1.723 -> 2.499 GB/s (45.0%)</text>
<text x="8" y="730" font-family="Inter, Arial, sans-serif" font-size="11" fill="#111827">min-u</text>
<rect x="170" y="719" width="284" height="6" fill="#3b82f6" opacity="0.9"/>
<rect x="170" y="727" width="342" height="6" fill="#10b981" opacity="0.9"/>
<text x="738" y="730" font-family="Inter, Arial, sans-serif" font-size="11" fill="#374151">187.3M -> 225.6M (20.4%) | 2.997 -> 7.220 GB/s (140.9%)</text>
<text x="8" y="750" font-family="Inter, Arial, sans-serif" font-size="11" fill="#111827">replace-lane</text>
<rect x="170" y="739" width="271" height="6" fill="#3b82f6" opacity="0.9"/>
<rect x="170" y="747" width="294" height="6" fill="#10b981" opacity="0.9"/>
<text x="738" y="750" font-family="Inter, Arial, sans-serif" font-size="11" fill="#374151">178.7M -> 194.1M (8.6%) | 1.429 -> 3.106 GB/s (117.3%)</text>
<text x="8" y="770" font-family="Inter, Arial, sans-serif" font-size="11" fill="#111827">relaxed-swizzle</text>
<rect x="170" y="759" width="156" height="6" fill="#3b82f6" opacity="0.9"/>
<rect x="170" y="767" width="300" height="6" fill="#10b981" opacity="0.9"/>
<text x="738" y="770" font-family="Inter, Arial, sans-serif" font-size="11" fill="#374151">102.6M -> 197.6M (92.6%) | 1.641 -> 6.322 GB/s (285.2%)</text>
<text x="8" y="790" font-family="Inter, Arial, sans-serif" font-size="11" fill="#111827">shuffle</text>
<rect x="170" y="779" width="73" height="6" fill="#3b82f6" opacity="0.9"/>
<rect x="170" y="787" width="284" height="6" fill="#10b981" opacity="0.9"/>
<text x="738" y="790" font-family="Inter, Arial, sans-serif" font-size="11" fill="#374151">48.1M -> 187.1M (288.8%) | 0.770 -> 5.986 GB/s (677.7%)</text>
</svg>
