<svg xmlns="http://www.w3.org/2000/svg" width="1090" height="816" viewBox="0 0 1090 816">
<rect x="0" y="0" width="1090" height="816" fill="#ffffff"/>
<text x="16" y="24" font-family="Inter, Arial, sans-serif" font-size="16" font-weight="700" fill="#111827">i8x8 (SWAR) vs i8x16 (SIMD)</text>
<text x="16" y="42" font-family="Inter, Arial, sans-serif" font-size="12" fill="#4b5563">Blue: i8x8 (swar), Green: i8x16 (simd)</text>
<text x="8" y="70" font-family="Inter, Arial, sans-serif" font-size="11" fill="#111827">splat</text>
<rect x="170" y="59" width="560" height="6" fill="#3b82f6" opacity="0.9"/>
<rect x="170" y="67" width="449" height="6" fill="#10b981" opacity="0.9"/>
<text x="738" y="70" font-family="Inter, Arial, sans-serif" font-size="11" fill="#374151">335.5M -> 269.2M (-19.8%)</text>
<text x="8" y="90" font-family="Inter, Arial, sans-serif" font-size="11" fill="#111827">bitmask</text>
<rect x="170" y="79" width="530" height="6" fill="#3b82f6" opacity="0.9"/>
<rect x="170" y="87" width="446" height="6" fill="#10b981" opacity="0.9"/>
<text x="738" y="90" font-family="Inter, Arial, sans-serif" font-size="11" fill="#374151">317.8M -> 267.3M (-15.9%)</text>
<text x="8" y="110" font-family="Inter, Arial, sans-serif" font-size="11" fill="#111827">neg</text>
<rect x="170" y="99" width="504" height="6" fill="#3b82f6" opacity="0.9"/>
<rect x="170" y="107" width="454" height="6" fill="#10b981" opacity="0.9"/>
<text x="738" y="110" font-family="Inter, Arial, sans-serif" font-size="11" fill="#374151">302.2M -> 272.2M (-9.9%)</text>
<text x="8" y="130" font-family="Inter, Arial, sans-serif" font-size="11" fill="#111827">abs</text>
<rect x="170" y="119" width="469" height="6" fill="#3b82f6" opacity="0.9"/>
<rect x="170" y="127" width="463" height="6" fill="#10b981" opacity="0.9"/>
<text x="738" y="130" font-family="Inter, Arial, sans-serif" font-size="11" fill="#374151">280.8M -> 277.5M (-1.2%)</text>
<text x="8" y="150" font-family="Inter, Arial, sans-serif" font-size="11" fill="#111827">popcnt</text>
<rect x="170" y="139" width="496" height="6" fill="#3b82f6" opacity="0.9"/>
<rect x="170" y="147" width="396" height="6" fill="#10b981" opacity="0.9"/>
<text x="738" y="150" font-family="Inter, Arial, sans-serif" font-size="11" fill="#374151">297.3M -> 237.5M (-20.1%)</text>
<text x="8" y="170" font-family="Inter, Arial, sans-serif" font-size="11" fill="#111827">all-true</text>
<rect x="170" y="159" width="459" height="6" fill="#3b82f6" opacity="0.9"/>
<rect x="170" y="167" width="422" height="6" fill="#10b981" opacity="0.9"/>
<text x="738" y="170" font-family="Inter, Arial, sans-serif" font-size="11" fill="#374151">274.7M -> 253.0M (-7.9%)</text>
<text x="8" y="190" font-family="Inter, Arial, sans-serif" font-size="11" fill="#111827">extract-lane-u</text>
<rect x="170" y="179" width="414" height="6" fill="#3b82f6" opacity="0.9"/>
<rect x="170" y="187" width="457" height="6" fill="#10b981" opacity="0.9"/>
<text x="738" y="190" font-family="Inter, Arial, sans-serif" font-size="11" fill="#374151">248.0M -> 273.9M (10.4%)</text>
<text x="8" y="210" font-family="Inter, Arial, sans-serif" font-size="11" fill="#111827">extract-lane-s</text>
<rect x="170" y="199" width="413" height="6" fill="#3b82f6" opacity="0.9"/>
<rect x="170" y="207" width="443" height="6" fill="#10b981" opacity="0.9"/>
<text x="738" y="210" font-family="Inter, Arial, sans-serif" font-size="11" fill="#374151">247.2M -> 265.7M (7.5%)</text>
<text x="8" y="230" font-family="Inter, Arial, sans-serif" font-size="11" fill="#111827">add</text>
<rect x="170" y="219" width="389" height="6" fill="#3b82f6" opacity="0.9"/>
<rect x="170" y="227" width="372" height="6" fill="#10b981" opacity="0.9"/>
<text x="738" y="230" font-family="Inter, Arial, sans-serif" font-size="11" fill="#374151">233.3M -> 222.9M (-4.4%)</text>
<text x="8" y="250" font-family="Inter, Arial, sans-serif" font-size="11" fill="#111827">avgr-u</text>
<rect x="170" y="239" width="391" height="6" fill="#3b82f6" opacity="0.9"/>
<rect x="170" y="247" width="369" height="6" fill="#10b981" opacity="0.9"/>
<text x="738" y="250" font-family="Inter, Arial, sans-serif" font-size="11" fill="#374151">234.0M -> 221.1M (-5.5%)</text>
<text x="8" y="270" font-family="Inter, Arial, sans-serif" font-size="11" fill="#111827">sub</text>
<rect x="170" y="259" width="387" height="6" fill="#3b82f6" opacity="0.9"/>
<rect x="170" y="267" width="370" height="6" fill="#10b981" opacity="0.9"/>
<text x="738" y="270" font-family="Inter, Arial, sans-serif" font-size="11" fill="#374151">231.6M -> 221.9M (-4.2%)</text>
<text x="8" y="290" font-family="Inter, Arial, sans-serif" font-size="11" fill="#111827">eq</text>
<rect x="170" y="279" width="364" height="6" fill="#3b82f6" opacity="0.9"/>
<rect x="170" y="287" width="356" height="6" fill="#10b981" opacity="0.9"/>
<text x="738" y="290" font-family="Inter, Arial, sans-serif" font-size="11" fill="#374151">218.1M -> 213.3M (-2.2%)</text>
<text x="8" y="310" font-family="Inter, Arial, sans-serif" font-size="11" fill="#111827">ge-u</text>
<rect x="170" y="299" width="364" height="6" fill="#3b82f6" opacity="0.9"/>
<rect x="170" y="307" width="351" height="6" fill="#10b981" opacity="0.9"/>
<text x="738" y="310" font-family="Inter, Arial, sans-serif" font-size="11" fill="#374151">218.0M -> 210.4M (-3.5%)</text>
<text x="8" y="330" font-family="Inter, Arial, sans-serif" font-size="11" fill="#111827">ge-s</text>
<rect x="170" y="319" width="358" height="6" fill="#3b82f6" opacity="0.9"/>
<rect x="170" y="327" width="351" height="6" fill="#10b981" opacity="0.9"/>
<text x="738" y="330" font-family="Inter, Arial, sans-serif" font-size="11" fill="#374151">214.6M -> 210.2M (-2.0%)</text>
<text x="8" y="350" font-family="Inter, Arial, sans-serif" font-size="11" fill="#111827">min-u</text>
<rect x="170" y="339" width="338" height="6" fill="#3b82f6" opacity="0.9"/>
<rect x="170" y="347" width="371" height="6" fill="#10b981" opacity="0.9"/>
<text x="738" y="350" font-family="Inter, Arial, sans-serif" font-size="11" fill="#374151">202.5M -> 222.0M (9.6%)</text>
<text x="8" y="370" font-family="Inter, Arial, sans-serif" font-size="11" fill="#111827">max-u</text>
<rect x="170" y="359" width="335" height="6" fill="#3b82f6" opacity="0.9"/>
<rect x="170" y="367" width="369" height="6" fill="#10b981" opacity="0.9"/>
<text x="738" y="370" font-family="Inter, Arial, sans-serif" font-size="11" fill="#374151">200.6M -> 221.3M (10.3%)</text>
<text x="8" y="390" font-family="Inter, Arial, sans-serif" font-size="11" fill="#111827">ne</text>
<rect x="170" y="379" width="355" height="6" fill="#3b82f6" opacity="0.9"/>
<rect x="170" y="387" width="347" height="6" fill="#10b981" opacity="0.9"/>
<text x="738" y="390" font-family="Inter, Arial, sans-serif" font-size="11" fill="#374151">212.6M -> 207.9M (-2.2%)</text>
<text x="8" y="410" font-family="Inter, Arial, sans-serif" font-size="11" fill="#111827">gt-s</text>
<rect x="170" y="399" width="342" height="6" fill="#3b82f6" opacity="0.9"/>
<rect x="170" y="407" width="356" height="6" fill="#10b981" opacity="0.9"/>
<text x="738" y="410" font-family="Inter, Arial, sans-serif" font-size="11" fill="#374151">205.1M -> 213.3M (4.0%)</text>
<text x="8" y="430" font-family="Inter, Arial, sans-serif" font-size="11" fill="#111827">max-s</text>
<rect x="170" y="419" width="329" height="6" fill="#3b82f6" opacity="0.9"/>
<rect x="170" y="427" width="369" height="6" fill="#10b981" opacity="0.9"/>
<text x="738" y="430" font-family="Inter, Arial, sans-serif" font-size="11" fill="#374151">196.9M -> 221.3M (12.4%)</text>
<text x="8" y="450" font-family="Inter, Arial, sans-serif" font-size="11" fill="#111827">add-sat-u</text>
<rect x="170" y="439" width="328" height="6" fill="#3b82f6" opacity="0.9"/>
<rect x="170" y="447" width="368" height="6" fill="#10b981" opacity="0.9"/>
<text x="738" y="450" font-family="Inter, Arial, sans-serif" font-size="11" fill="#374151">196.5M -> 220.6M (12.3%)</text>
<text x="8" y="470" font-family="Inter, Arial, sans-serif" font-size="11" fill="#111827">sub-sat-s</text>
<rect x="170" y="459" width="330" height="6" fill="#3b82f6" opacity="0.9"/>
<rect x="170" y="467" width="366" height="6" fill="#10b981" opacity="0.9"/>
<text x="738" y="470" font-family="Inter, Arial, sans-serif" font-size="11" fill="#374151">197.8M -> 219.2M (10.8%)</text>
<text x="8" y="490" font-family="Inter, Arial, sans-serif" font-size="11" fill="#111827">add-sat-s</text>
<rect x="170" y="479" width="326" height="6" fill="#3b82f6" opacity="0.9"/>
<rect x="170" y="487" width="368" height="6" fill="#10b981" opacity="0.9"/>
<text x="738" y="490" font-family="Inter, Arial, sans-serif" font-size="11" fill="#374151">195.3M -> 220.3M (12.8%)</text>
<text x="8" y="510" font-family="Inter, Arial, sans-serif" font-size="11" fill="#111827">gt-u</text>
<rect x="170" y="499" width="351" height="6" fill="#3b82f6" opacity="0.9"/>
<rect x="170" y="507" width="343" height="6" fill="#10b981" opacity="0.9"/>
<text x="738" y="510" font-family="Inter, Arial, sans-serif" font-size="11" fill="#374151">210.1M -> 205.4M (-2.2%)</text>
<text x="8" y="530" font-family="Inter, Arial, sans-serif" font-size="11" fill="#111827">le-u</text>
<rect x="170" y="519" width="342" height="6" fill="#3b82f6" opacity="0.9"/>
<rect x="170" y="527" width="352" height="6" fill="#10b981" opacity="0.9"/>
<text x="738" y="530" font-family="Inter, Arial, sans-serif" font-size="11" fill="#374151">204.7M -> 210.7M (2.9%)</text>
<text x="8" y="550" font-family="Inter, Arial, sans-serif" font-size="11" fill="#111827">min-s</text>
<rect x="170" y="539" width="320" height="6" fill="#3b82f6" opacity="0.9"/>
<rect x="170" y="547" width="372" height="6" fill="#10b981" opacity="0.9"/>
<text x="738" y="550" font-family="Inter, Arial, sans-serif" font-size="11" fill="#374151">191.8M -> 222.9M (16.2%)</text>
<text x="8" y="570" font-family="Inter, Arial, sans-serif" font-size="11" fill="#111827">lt-s</text>
<rect x="170" y="559" width="331" height="6" fill="#3b82f6" opacity="0.9"/>
<rect x="170" y="567" width="358" height="6" fill="#10b981" opacity="0.9"/>
<text x="738" y="570" font-family="Inter, Arial, sans-serif" font-size="11" fill="#374151">198.4M -> 214.4M (8.1%)</text>
<text x="8" y="590" font-family="Inter, Arial, sans-serif" font-size="11" fill="#111827">lt-u</text>
<rect x="170" y="579" width="342" height="6" fill="#3b82f6" opacity="0.9"/>
<rect x="170" y="587" width="345" height="6" fill="#10b981" opacity="0.9"/>
<text x="738" y="590" font-family="Inter, Arial, sans-serif" font-size="11" fill="#374151">205.0M -> 206.5M (0.7%)</text>
<text x="8" y="610" font-family="Inter, Arial, sans-serif" font-size="11" fill="#111827">le-s</text>
<rect x="170" y="599" width="337" height="6" fill="#3b82f6" opacity="0.9"/>
<rect x="170" y="607" width="350" height="6" fill="#10b981" opacity="0.9"/>
<text x="738" y="610" font-family="Inter, Arial, sans-serif" font-size="11" fill="#374151">201.6M -> 209.7M (4.0%)</text>
<text x="8" y="630" font-family="Inter, Arial, sans-serif" font-size="11" fill="#111827">sub-sat-u</text>
<rect x="170" y="619" width="288" height="6" fill="#3b82f6" opacity="0.9"/>
<rect x="170" y="627" width="367" height="6" fill="#10b981" opacity="0.9"/>
<text x="738" y="630" font-family="Inter, Arial, sans-serif" font-size="11" fill="#374151">172.8M -> 219.7M (27.1%)</text>
<text x="8" y="650" font-family="Inter, Arial, sans-serif" font-size="11" fill="#111827">shl</text>
<rect x="170" y="639" width="372" height="6" fill="#3b82f6" opacity="0.9"/>
<rect x="170" y="647" width="260" height="6" fill="#10b981" opacity="0.9"/>
<text x="738" y="650" font-family="Inter, Arial, sans-serif" font-size="11" fill="#374151">222.7M -> 156.0M (-29.9%)</text>
<text x="8" y="670" font-family="Inter, Arial, sans-serif" font-size="11" fill="#111827">shr-u</text>
<rect x="170" y="659" width="357" height="6" fill="#3b82f6" opacity="0.9"/>
<rect x="170" y="667" width="270" height="6" fill="#10b981" opacity="0.9"/>
<text x="738" y="670" font-family="Inter, Arial, sans-serif" font-size="11" fill="#374151">214.0M -> 161.5M (-24.5%)</text>
<text x="8" y="690" font-family="Inter, Arial, sans-serif" font-size="11" fill="#111827">replace-lane</text>
<rect x="170" y="679" width="288" height="6" fill="#3b82f6" opacity="0.9"/>
<rect x="170" y="687" width="325" height="6" fill="#10b981" opacity="0.9"/>
<text x="738" y="690" font-family="Inter, Arial, sans-serif" font-size="11" fill="#374151">172.4M -> 194.9M (13.1%)</text>
<text x="8" y="710" font-family="Inter, Arial, sans-serif" font-size="11" fill="#111827">narrow-i16x8-u</text>
<rect x="170" y="699" width="224" height="6" fill="#3b82f6" opacity="0.9"/>
<rect x="170" y="707" width="338" height="6" fill="#10b981" opacity="0.9"/>
<text x="738" y="710" font-family="Inter, Arial, sans-serif" font-size="11" fill="#374151">134.3M -> 202.3M (50.7%)</text>
<text x="8" y="730" font-family="Inter, Arial, sans-serif" font-size="11" fill="#111827">narrow-i16x8-s</text>
<rect x="170" y="719" width="199" height="6" fill="#3b82f6" opacity="0.9"/>
<rect x="170" y="727" width="337" height="6" fill="#10b981" opacity="0.9"/>
<text x="738" y="730" font-family="Inter, Arial, sans-serif" font-size="11" fill="#374151">119.2M -> 201.9M (69.4%)</text>
<text x="8" y="750" font-family="Inter, Arial, sans-serif" font-size="11" fill="#111827">shr-s</text>
<rect x="170" y="739" width="258" height="6" fill="#3b82f6" opacity="0.9"/>
<rect x="170" y="747" width="272" height="6" fill="#10b981" opacity="0.9"/>
<text x="738" y="750" font-family="Inter, Arial, sans-serif" font-size="11" fill="#374151">154.8M -> 162.9M (5.2%)</text>
<text x="8" y="770" font-family="Inter, Arial, sans-serif" font-size="11" fill="#111827">swizzle</text>
<rect x="170" y="759" width="144" height="6" fill="#3b82f6" opacity="0.9"/>
<rect x="170" y="767" width="346" height="6" fill="#10b981" opacity="0.9"/>
<text x="738" y="770" font-family="Inter, Arial, sans-serif" font-size="11" fill="#374151">86.2M -> 207.1M (140.4%)</text>
<text x="8" y="790" font-family="Inter, Arial, sans-serif" font-size="11" fill="#111827">shuffle</text>
<rect x="170" y="779" width="87" height="6" fill="#3b82f6" opacity="0.9"/>
<rect x="170" y="787" width="323" height="6" fill="#10b981" opacity="0.9"/>
<text x="738" y="790" font-family="Inter, Arial, sans-serif" font-size="11" fill="#374151">52.3M -> 193.5M (270.0%)</text>
</svg>
