<svg xmlns="http://www.w3.org/2000/svg" width="1150" height="1096" viewBox="0 0 1150 1096">
<rect x="0" y="0" width="1150" height="1096" fill="#ffffff"/>
<text x="16" y="24" font-family="Inter, Arial, sans-serif" font-size="16" font-weight="700" fill="#111827">i16x4 (SWAR) vs i16x8 (SIMD)</text>
<text x="16" y="42" font-family="Inter, Arial, sans-serif" font-size="12" fill="#4b5563">Blue: i16x4 (swar), Green: i16x8 (simd)</text>
<text x="8" y="70" font-family="Inter, Arial, sans-serif" font-size="11" fill="#111827">splat</text>
<rect x="230" y="59" width="539" height="6" fill="#3b82f6" opacity="0.9"/>
<rect x="230" y="67" width="390" height="6" fill="#10b981" opacity="0.9"/>
<text x="798" y="70" font-family="Inter, Arial, sans-serif" font-size="11" fill="#374151">309.4M -> 224.0M (-27.6%)</text>
<text x="8" y="90" font-family="Inter, Arial, sans-serif" font-size="11" fill="#111827">load</text>
<rect x="230" y="79" width="560" height="6" fill="#3b82f6" opacity="0.9"/>
<rect x="230" y="87" width="367" height="6" fill="#10b981" opacity="0.9"/>
<text x="798" y="90" font-family="Inter, Arial, sans-serif" font-size="11" fill="#374151">321.3M -> 210.6M (-34.4%)</text>
<text x="8" y="110" font-family="Inter, Arial, sans-serif" font-size="11" fill="#111827">neg</text>
<rect x="230" y="99" width="548" height="6" fill="#3b82f6" opacity="0.9"/>
<rect x="230" y="107" width="346" height="6" fill="#10b981" opacity="0.9"/>
<text x="798" y="110" font-family="Inter, Arial, sans-serif" font-size="11" fill="#374151">314.7M -> 198.5M (-36.9%)</text>
<text x="8" y="130" font-family="Inter, Arial, sans-serif" font-size="11" fill="#111827">extend-low-i8x16-u</text>
<rect x="230" y="119" width="486" height="6" fill="#3b82f6" opacity="0.9"/>
<rect x="230" y="127" width="357" height="6" fill="#10b981" opacity="0.9"/>
<text x="798" y="130" font-family="Inter, Arial, sans-serif" font-size="11" fill="#374151">278.8M -> 205.1M (-26.4%)</text>
<text x="8" y="150" font-family="Inter, Arial, sans-serif" font-size="11" fill="#111827">abs</text>
<rect x="230" y="139" width="493" height="6" fill="#3b82f6" opacity="0.9"/>
<rect x="230" y="147" width="349" height="6" fill="#10b981" opacity="0.9"/>
<text x="798" y="150" font-family="Inter, Arial, sans-serif" font-size="11" fill="#374151">282.8M -> 200.4M (-29.2%)</text>
<text x="8" y="170" font-family="Inter, Arial, sans-serif" font-size="11" fill="#111827">all-true</text>
<rect x="230" y="159" width="490" height="6" fill="#3b82f6" opacity="0.9"/>
<rect x="230" y="167" width="345" height="6" fill="#10b981" opacity="0.9"/>
<text x="798" y="170" font-family="Inter, Arial, sans-serif" font-size="11" fill="#374151">281.4M -> 197.8M (-29.7%)</text>
<text x="8" y="190" font-family="Inter, Arial, sans-serif" font-size="11" fill="#111827">extend-high-i8x16-u</text>
<rect x="230" y="179" width="481" height="6" fill="#3b82f6" opacity="0.9"/>
<rect x="230" y="187" width="354" height="6" fill="#10b981" opacity="0.9"/>
<text x="798" y="190" font-family="Inter, Arial, sans-serif" font-size="11" fill="#374151">276.1M -> 202.9M (-26.5%)</text>
<text x="8" y="210" font-family="Inter, Arial, sans-serif" font-size="11" fill="#111827">bitmask</text>
<rect x="230" y="199" width="468" height="6" fill="#3b82f6" opacity="0.9"/>
<rect x="230" y="207" width="364" height="6" fill="#10b981" opacity="0.9"/>
<text x="798" y="210" font-family="Inter, Arial, sans-serif" font-size="11" fill="#374151">268.5M -> 209.0M (-22.1%)</text>
<text x="8" y="230" font-family="Inter, Arial, sans-serif" font-size="11" fill="#111827">extend-low-i8x16-s</text>
<rect x="230" y="219" width="429" height="6" fill="#3b82f6" opacity="0.9"/>
<rect x="230" y="227" width="361" height="6" fill="#10b981" opacity="0.9"/>
<text x="798" y="230" font-family="Inter, Arial, sans-serif" font-size="11" fill="#374151">246.1M -> 206.9M (-15.9%)</text>
<text x="8" y="250" font-family="Inter, Arial, sans-serif" font-size="11" fill="#111827">extend-high-i8x16-s</text>
<rect x="230" y="239" width="423" height="6" fill="#3b82f6" opacity="0.9"/>
<rect x="230" y="247" width="347" height="6" fill="#10b981" opacity="0.9"/>
<text x="798" y="250" font-family="Inter, Arial, sans-serif" font-size="11" fill="#374151">242.9M -> 199.4M (-17.9%)</text>
<text x="8" y="270" font-family="Inter, Arial, sans-serif" font-size="11" fill="#111827">extadd-pairwise-i8x16-u</text>
<rect x="230" y="259" width="381" height="6" fill="#3b82f6" opacity="0.9"/>
<rect x="230" y="267" width="387" height="6" fill="#10b981" opacity="0.9"/>
<text x="798" y="270" font-family="Inter, Arial, sans-serif" font-size="11" fill="#374151">218.6M -> 222.2M (1.6%)</text>
<text x="8" y="290" font-family="Inter, Arial, sans-serif" font-size="11" fill="#111827">extract-lane-s</text>
<rect x="230" y="279" width="401" height="6" fill="#3b82f6" opacity="0.9"/>
<rect x="230" y="287" width="342" height="6" fill="#10b981" opacity="0.9"/>
<text x="798" y="290" font-family="Inter, Arial, sans-serif" font-size="11" fill="#374151">230.0M -> 196.2M (-14.7%)</text>
<text x="8" y="310" font-family="Inter, Arial, sans-serif" font-size="11" fill="#111827">extract-lane-u</text>
<rect x="230" y="299" width="401" height="6" fill="#3b82f6" opacity="0.9"/>
<rect x="230" y="307" width="342" height="6" fill="#10b981" opacity="0.9"/>
<text x="798" y="310" font-family="Inter, Arial, sans-serif" font-size="11" fill="#374151">230.1M -> 196.0M (-14.8%)</text>
<text x="8" y="330" font-family="Inter, Arial, sans-serif" font-size="11" fill="#111827">extadd-pairwise-i8x16-s</text>
<rect x="230" y="319" width="372" height="6" fill="#3b82f6" opacity="0.9"/>
<rect x="230" y="327" width="369" height="6" fill="#10b981" opacity="0.9"/>
<text x="798" y="330" font-family="Inter, Arial, sans-serif" font-size="11" fill="#374151">213.5M -> 211.6M (-0.9%)</text>
<text x="8" y="350" font-family="Inter, Arial, sans-serif" font-size="11" fill="#111827">add</text>
<rect x="230" y="339" width="413" height="6" fill="#3b82f6" opacity="0.9"/>
<rect x="230" y="347" width="274" height="6" fill="#10b981" opacity="0.9"/>
<text x="798" y="350" font-family="Inter, Arial, sans-serif" font-size="11" fill="#374151">237.2M -> 157.0M (-33.8%)</text>
<text x="8" y="370" font-family="Inter, Arial, sans-serif" font-size="11" fill="#111827">sub</text>
<rect x="230" y="359" width="412" height="6" fill="#3b82f6" opacity="0.9"/>
<rect x="230" y="367" width="273" height="6" fill="#10b981" opacity="0.9"/>
<text x="798" y="370" font-family="Inter, Arial, sans-serif" font-size="11" fill="#374151">236.4M -> 156.7M (-33.7%)</text>
<text x="8" y="390" font-family="Inter, Arial, sans-serif" font-size="11" fill="#111827">eq</text>
<rect x="230" y="379" width="395" height="6" fill="#3b82f6" opacity="0.9"/>
<rect x="230" y="387" width="287" height="6" fill="#10b981" opacity="0.9"/>
<text x="798" y="390" font-family="Inter, Arial, sans-serif" font-size="11" fill="#374151">226.6M -> 164.8M (-27.3%)</text>
<text x="8" y="410" font-family="Inter, Arial, sans-serif" font-size="11" fill="#111827">ne</text>
<rect x="230" y="399" width="386" height="6" fill="#3b82f6" opacity="0.9"/>
<rect x="230" y="407" width="278" height="6" fill="#10b981" opacity="0.9"/>
<text x="798" y="410" font-family="Inter, Arial, sans-serif" font-size="11" fill="#374151">221.6M -> 159.7M (-27.9%)</text>
<text x="8" y="430" font-family="Inter, Arial, sans-serif" font-size="11" fill="#111827">store</text>
<rect x="230" y="419" width="385" height="6" fill="#3b82f6" opacity="0.9"/>
<rect x="230" y="427" width="261" height="6" fill="#10b981" opacity="0.9"/>
<text x="798" y="430" font-family="Inter, Arial, sans-serif" font-size="11" fill="#374151">221.0M -> 149.7M (-32.2%)</text>
<text x="8" y="450" font-family="Inter, Arial, sans-serif" font-size="11" fill="#111827">avgr-u</text>
<rect x="230" y="439" width="368" height="6" fill="#3b82f6" opacity="0.9"/>
<rect x="230" y="447" width="275" height="6" fill="#10b981" opacity="0.9"/>
<text x="798" y="450" font-family="Inter, Arial, sans-serif" font-size="11" fill="#374151">211.2M -> 157.6M (-25.4%)</text>
<text x="8" y="470" font-family="Inter, Arial, sans-serif" font-size="11" fill="#111827">add-sat-s</text>
<rect x="230" y="459" width="350" height="6" fill="#3b82f6" opacity="0.9"/>
<rect x="230" y="467" width="282" height="6" fill="#10b981" opacity="0.9"/>
<text x="798" y="470" font-family="Inter, Arial, sans-serif" font-size="11" fill="#374151">200.9M -> 161.9M (-19.4%)</text>
<text x="8" y="490" font-family="Inter, Arial, sans-serif" font-size="11" fill="#111827">min-u</text>
<rect x="230" y="479" width="360" height="6" fill="#3b82f6" opacity="0.9"/>
<rect x="230" y="487" width="270" height="6" fill="#10b981" opacity="0.9"/>
<text x="798" y="490" font-family="Inter, Arial, sans-serif" font-size="11" fill="#374151">206.3M -> 155.0M (-24.9%)</text>
<text x="8" y="510" font-family="Inter, Arial, sans-serif" font-size="11" fill="#111827">add-sat-u</text>
<rect x="230" y="499" width="348" height="6" fill="#3b82f6" opacity="0.9"/>
<rect x="230" y="507" width="278" height="6" fill="#10b981" opacity="0.9"/>
<text x="798" y="510" font-family="Inter, Arial, sans-serif" font-size="11" fill="#374151">199.9M -> 159.2M (-20.3%)</text>
<text x="8" y="530" font-family="Inter, Arial, sans-serif" font-size="11" fill="#111827">sub-sat-s</text>
<rect x="230" y="519" width="343" height="6" fill="#3b82f6" opacity="0.9"/>
<rect x="230" y="527" width="283" height="6" fill="#10b981" opacity="0.9"/>
<text x="798" y="530" font-family="Inter, Arial, sans-serif" font-size="11" fill="#374151">196.5M -> 162.2M (-17.5%)</text>
<text x="8" y="550" font-family="Inter, Arial, sans-serif" font-size="11" fill="#111827">extmul-high-i8x16-u</text>
<rect x="230" y="539" width="309" height="6" fill="#3b82f6" opacity="0.9"/>
<rect x="230" y="547" width="314" height="6" fill="#10b981" opacity="0.9"/>
<text x="798" y="550" font-family="Inter, Arial, sans-serif" font-size="11" fill="#374151">177.0M -> 180.2M (1.8%)</text>
<text x="8" y="570" font-family="Inter, Arial, sans-serif" font-size="11" fill="#111827">lt-s</text>
<rect x="230" y="559" width="331" height="6" fill="#3b82f6" opacity="0.9"/>
<rect x="230" y="567" width="284" height="6" fill="#10b981" opacity="0.9"/>
<text x="798" y="570" font-family="Inter, Arial, sans-serif" font-size="11" fill="#374151">190.1M -> 163.1M (-14.2%)</text>
<text x="8" y="590" font-family="Inter, Arial, sans-serif" font-size="11" fill="#111827">gt-s</text>
<rect x="230" y="579" width="330" height="6" fill="#3b82f6" opacity="0.9"/>
<rect x="230" y="587" width="284" height="6" fill="#10b981" opacity="0.9"/>
<text x="798" y="590" font-family="Inter, Arial, sans-serif" font-size="11" fill="#374151">189.1M -> 163.2M (-13.7%)</text>
<text x="8" y="610" font-family="Inter, Arial, sans-serif" font-size="11" fill="#111827">min-s</text>
<rect x="230" y="599" width="342" height="6" fill="#3b82f6" opacity="0.9"/>
<rect x="230" y="607" width="270" height="6" fill="#10b981" opacity="0.9"/>
<text x="798" y="610" font-family="Inter, Arial, sans-serif" font-size="11" fill="#374151">196.5M -> 154.7M (-21.3%)</text>
<text x="8" y="630" font-family="Inter, Arial, sans-serif" font-size="11" fill="#111827">mul</text>
<rect x="230" y="619" width="337" height="6" fill="#3b82f6" opacity="0.9"/>
<rect x="230" y="627" width="273" height="6" fill="#10b981" opacity="0.9"/>
<text x="798" y="630" font-family="Inter, Arial, sans-serif" font-size="11" fill="#374151">193.5M -> 156.6M (-19.1%)</text>
<text x="8" y="650" font-family="Inter, Arial, sans-serif" font-size="11" fill="#111827">sub-sat-u</text>
<rect x="230" y="639" width="326" height="6" fill="#3b82f6" opacity="0.9"/>
<rect x="230" y="647" width="284" height="6" fill="#10b981" opacity="0.9"/>
<text x="798" y="650" font-family="Inter, Arial, sans-serif" font-size="11" fill="#374151">187.0M -> 162.9M (-12.9%)</text>
<text x="8" y="670" font-family="Inter, Arial, sans-serif" font-size="11" fill="#111827">gt-u</text>
<rect x="230" y="659" width="328" height="6" fill="#3b82f6" opacity="0.9"/>
<rect x="230" y="667" width="275" height="6" fill="#10b981" opacity="0.9"/>
<text x="798" y="670" font-family="Inter, Arial, sans-serif" font-size="11" fill="#374151">188.0M -> 158.0M (-16.0%)</text>
<text x="8" y="690" font-family="Inter, Arial, sans-serif" font-size="11" fill="#111827">ge-u</text>
<rect x="230" y="679" width="323" height="6" fill="#3b82f6" opacity="0.9"/>
<rect x="230" y="687" width="280" height="6" fill="#10b981" opacity="0.9"/>
<text x="798" y="690" font-family="Inter, Arial, sans-serif" font-size="11" fill="#374151">185.2M -> 160.6M (-13.2%)</text>
<text x="8" y="710" font-family="Inter, Arial, sans-serif" font-size="11" fill="#111827">le-s</text>
<rect x="230" y="699" width="322" height="6" fill="#3b82f6" opacity="0.9"/>
<rect x="230" y="707" width="280" height="6" fill="#10b981" opacity="0.9"/>
<text x="798" y="710" font-family="Inter, Arial, sans-serif" font-size="11" fill="#374151">184.9M -> 160.8M (-13.0%)</text>
<text x="8" y="730" font-family="Inter, Arial, sans-serif" font-size="11" fill="#111827">le-u</text>
<rect x="230" y="719" width="324" height="6" fill="#3b82f6" opacity="0.9"/>
<rect x="230" y="727" width="279" height="6" fill="#10b981" opacity="0.9"/>
<text x="798" y="730" font-family="Inter, Arial, sans-serif" font-size="11" fill="#374151">185.7M -> 159.9M (-13.9%)</text>
<text x="8" y="750" font-family="Inter, Arial, sans-serif" font-size="11" fill="#111827">ge-s</text>
<rect x="230" y="739" width="322" height="6" fill="#3b82f6" opacity="0.9"/>
<rect x="230" y="747" width="279" height="6" fill="#10b981" opacity="0.9"/>
<text x="798" y="750" font-family="Inter, Arial, sans-serif" font-size="11" fill="#374151">184.8M -> 160.2M (-13.3%)</text>
<text x="8" y="770" font-family="Inter, Arial, sans-serif" font-size="11" fill="#111827">extmul-low-i8x16-u</text>
<rect x="230" y="759" width="293" height="6" fill="#3b82f6" opacity="0.9"/>
<rect x="230" y="767" width="307" height="6" fill="#10b981" opacity="0.9"/>
<text x="798" y="770" font-family="Inter, Arial, sans-serif" font-size="11" fill="#374151">167.9M -> 176.0M (4.8%)</text>
<text x="8" y="790" font-family="Inter, Arial, sans-serif" font-size="11" fill="#111827">lt-u</text>
<rect x="230" y="779" width="323" height="6" fill="#3b82f6" opacity="0.9"/>
<rect x="230" y="787" width="273" height="6" fill="#10b981" opacity="0.9"/>
<text x="798" y="790" font-family="Inter, Arial, sans-serif" font-size="11" fill="#374151">185.3M -> 156.5M (-15.6%)</text>
<text x="8" y="810" font-family="Inter, Arial, sans-serif" font-size="11" fill="#111827">max-u</text>
<rect x="230" y="799" width="319" height="6" fill="#3b82f6" opacity="0.9"/>
<rect x="230" y="807" width="275" height="6" fill="#10b981" opacity="0.9"/>
<text x="798" y="810" font-family="Inter, Arial, sans-serif" font-size="11" fill="#374151">183.1M -> 157.8M (-13.8%)</text>
<text x="8" y="830" font-family="Inter, Arial, sans-serif" font-size="11" fill="#111827">extmul-low-i8x16-s</text>
<rect x="230" y="819" width="290" height="6" fill="#3b82f6" opacity="0.9"/>
<rect x="230" y="827" width="302" height="6" fill="#10b981" opacity="0.9"/>
<text x="798" y="830" font-family="Inter, Arial, sans-serif" font-size="11" fill="#374151">166.1M -> 173.5M (4.5%)</text>
<text x="8" y="850" font-family="Inter, Arial, sans-serif" font-size="11" fill="#111827">max-s</text>
<rect x="230" y="839" width="310" height="6" fill="#3b82f6" opacity="0.9"/>
<rect x="230" y="847" width="269" height="6" fill="#10b981" opacity="0.9"/>
<text x="798" y="850" font-family="Inter, Arial, sans-serif" font-size="11" fill="#374151">177.9M -> 154.3M (-13.3%)</text>
<text x="8" y="870" font-family="Inter, Arial, sans-serif" font-size="11" fill="#111827">extmul-high-i8x16-s</text>
<rect x="230" y="859" width="272" height="6" fill="#3b82f6" opacity="0.9"/>
<rect x="230" y="867" width="298" height="6" fill="#10b981" opacity="0.9"/>
<text x="798" y="870" font-family="Inter, Arial, sans-serif" font-size="11" fill="#374151">155.9M -> 171.2M (9.8%)</text>
<text x="8" y="890" font-family="Inter, Arial, sans-serif" font-size="11" fill="#111827">narrow-i32x4-s</text>
<rect x="230" y="879" width="286" height="6" fill="#3b82f6" opacity="0.9"/>
<rect x="230" y="887" width="275" height="6" fill="#10b981" opacity="0.9"/>
<text x="798" y="890" font-family="Inter, Arial, sans-serif" font-size="11" fill="#374151">164.4M -> 157.7M (-4.0%)</text>
<text x="8" y="910" font-family="Inter, Arial, sans-serif" font-size="11" fill="#111827">narrow-i32x4-u</text>
<rect x="230" y="899" width="284" height="6" fill="#3b82f6" opacity="0.9"/>
<rect x="230" y="907" width="273" height="6" fill="#10b981" opacity="0.9"/>
<text x="798" y="910" font-family="Inter, Arial, sans-serif" font-size="11" fill="#374151">163.2M -> 156.8M (-3.9%)</text>
<text x="8" y="930" font-family="Inter, Arial, sans-serif" font-size="11" fill="#111827">shl</text>
<rect x="230" y="919" width="297" height="6" fill="#3b82f6" opacity="0.9"/>
<rect x="230" y="927" width="249" height="6" fill="#10b981" opacity="0.9"/>
<text x="798" y="930" font-family="Inter, Arial, sans-serif" font-size="11" fill="#374151">170.2M -> 142.8M (-16.1%)</text>
<text x="8" y="950" font-family="Inter, Arial, sans-serif" font-size="11" fill="#111827">shr-u</text>
<rect x="230" y="939" width="292" height="6" fill="#3b82f6" opacity="0.9"/>
<rect x="230" y="947" width="246" height="6" fill="#10b981" opacity="0.9"/>
<text x="798" y="950" font-family="Inter, Arial, sans-serif" font-size="11" fill="#374151">167.6M -> 141.3M (-15.7%)</text>
<text x="8" y="970" font-family="Inter, Arial, sans-serif" font-size="11" fill="#111827">shr-s</text>
<rect x="230" y="959" width="273" height="6" fill="#3b82f6" opacity="0.9"/>
<rect x="230" y="967" width="247" height="6" fill="#10b981" opacity="0.9"/>
<text x="798" y="970" font-family="Inter, Arial, sans-serif" font-size="11" fill="#374151">156.8M -> 141.7M (-9.6%)</text>
<text x="8" y="990" font-family="Inter, Arial, sans-serif" font-size="11" fill="#111827">q15mulr-sat-s</text>
<rect x="230" y="979" width="211" height="6" fill="#3b82f6" opacity="0.9"/>
<rect x="230" y="987" width="304" height="6" fill="#10b981" opacity="0.9"/>
<text x="798" y="990" font-family="Inter, Arial, sans-serif" font-size="11" fill="#374151">121.1M -> 174.3M (44.0%)</text>
<text x="8" y="1010" font-family="Inter, Arial, sans-serif" font-size="11" fill="#111827">replace-lane</text>
<rect x="230" y="999" width="277" height="6" fill="#3b82f6" opacity="0.9"/>
<rect x="230" y="1007" width="236" height="6" fill="#10b981" opacity="0.9"/>
<text x="798" y="1010" font-family="Inter, Arial, sans-serif" font-size="11" fill="#374151">159.1M -> 135.2M (-15.0%)</text>
<text x="8" y="1030" font-family="Inter, Arial, sans-serif" font-size="11" fill="#111827">shuffle</text>
<rect x="230" y="1019" width="71" height="6" fill="#3b82f6" opacity="0.9"/>
<rect x="230" y="1027" width="326" height="6" fill="#10b981" opacity="0.9"/>
<text x="798" y="1030" font-family="Inter, Arial, sans-serif" font-size="11" fill="#374151">41.0M -> 187.3M (356.8%)</text>
<text x="8" y="1050" font-family="Inter, Arial, sans-serif" font-size="11" fill="#111827">load-partial</text>
<rect x="230" y="1039" width="98" height="6" fill="#3b82f6" opacity="0.9"/>
<rect x="230" y="1047" width="65" height="6" fill="#10b981" opacity="0.9"/>
<text x="798" y="1050" font-family="Inter, Arial, sans-serif" font-size="11" fill="#374151">56.4M -> 37.1M (-34.1%)</text>
<text x="8" y="1070" font-family="Inter, Arial, sans-serif" font-size="11" fill="#111827">store-partial</text>
<rect x="230" y="1059" width="92" height="6" fill="#3b82f6" opacity="0.9"/>
<rect x="230" y="1067" width="57" height="6" fill="#10b981" opacity="0.9"/>
<text x="798" y="1070" font-family="Inter, Arial, sans-serif" font-size="11" fill="#374151">52.5M -> 33.0M (-37.2%)</text>
</svg>
