<svg xmlns="http://www.w3.org/2000/svg" width="1030" height="876" viewBox="0 0 1030 876">
<rect x="0" y="0" width="1030" height="876" fill="#ffffff"/>
<text x="16" y="24" font-family="Inter, Arial, sans-serif" font-size="16" font-weight="700" fill="#111827">i8x8 SIMD vs SWAR</text>
<text x="16" y="42" font-family="Inter, Arial, sans-serif" font-size="12" fill="#4b5563">Blue: SIMD, Green: SWAR</text>
<text x="8" y="70" font-family="Inter, Arial, sans-serif" font-size="11" fill="#111827">splat</text>
<rect x="170" y="59" width="534" height="6" fill="#3b82f6" opacity="0.9"/>
<rect x="170" y="67" width="560" height="6" fill="#10b981" opacity="0.9"/>
<text x="738" y="70" font-family="Inter, Arial, sans-serif" font-size="11" fill="#374151">293.0M -> 307.5M (4.9%)</text>
<text x="8" y="90" font-family="Inter, Arial, sans-serif" font-size="11" fill="#111827">bitmask</text>
<rect x="170" y="79" width="551" height="6" fill="#3b82f6" opacity="0.9"/>
<rect x="170" y="87" width="518" height="6" fill="#10b981" opacity="0.9"/>
<text x="738" y="90" font-family="Inter, Arial, sans-serif" font-size="11" fill="#374151">302.4M -> 284.5M (-5.9%)</text>
<text x="8" y="110" font-family="Inter, Arial, sans-serif" font-size="11" fill="#111827">neg</text>
<rect x="170" y="99" width="518" height="6" fill="#3b82f6" opacity="0.9"/>
<rect x="170" y="107" width="499" height="6" fill="#10b981" opacity="0.9"/>
<text x="738" y="110" font-family="Inter, Arial, sans-serif" font-size="11" fill="#374151">284.5M -> 273.9M (-3.7%)</text>
<text x="8" y="130" font-family="Inter, Arial, sans-serif" font-size="11" fill="#111827">abs</text>
<rect x="170" y="119" width="526" height="6" fill="#3b82f6" opacity="0.9"/>
<rect x="170" y="127" width="467" height="6" fill="#10b981" opacity="0.9"/>
<text x="738" y="130" font-family="Inter, Arial, sans-serif" font-size="11" fill="#374151">288.7M -> 256.4M (-11.2%)</text>
<text x="8" y="150" font-family="Inter, Arial, sans-serif" font-size="11" fill="#111827">all-true</text>
<rect x="170" y="139" width="516" height="6" fill="#3b82f6" opacity="0.9"/>
<rect x="170" y="147" width="453" height="6" fill="#10b981" opacity="0.9"/>
<text x="738" y="150" font-family="Inter, Arial, sans-serif" font-size="11" fill="#374151">283.5M -> 248.6M (-12.3%)</text>
<text x="8" y="170" font-family="Inter, Arial, sans-serif" font-size="11" fill="#111827">popcnt</text>
<rect x="170" y="159" width="475" height="6" fill="#3b82f6" opacity="0.9"/>
<rect x="170" y="167" width="437" height="6" fill="#10b981" opacity="0.9"/>
<text x="738" y="170" font-family="Inter, Arial, sans-serif" font-size="11" fill="#374151">260.5M -> 239.9M (-7.9%)</text>
<text x="8" y="190" font-family="Inter, Arial, sans-serif" font-size="11" fill="#111827">extract-lane-s</text>
<rect x="170" y="179" width="399" height="6" fill="#3b82f6" opacity="0.9"/>
<rect x="170" y="187" width="408" height="6" fill="#10b981" opacity="0.9"/>
<text x="738" y="190" font-family="Inter, Arial, sans-serif" font-size="11" fill="#374151">219.0M -> 224.1M (2.3%)</text>
<text x="8" y="210" font-family="Inter, Arial, sans-serif" font-size="11" fill="#111827">extract-lane-u</text>
<rect x="170" y="199" width="400" height="6" fill="#3b82f6" opacity="0.9"/>
<rect x="170" y="207" width="401" height="6" fill="#10b981" opacity="0.9"/>
<text x="738" y="210" font-family="Inter, Arial, sans-serif" font-size="11" fill="#374151">219.9M -> 220.4M (0.3%)</text>
<text x="8" y="230" font-family="Inter, Arial, sans-serif" font-size="11" fill="#111827">add</text>
<rect x="170" y="219" width="393" height="6" fill="#3b82f6" opacity="0.9"/>
<rect x="170" y="227" width="379" height="6" fill="#10b981" opacity="0.9"/>
<text x="738" y="230" font-family="Inter, Arial, sans-serif" font-size="11" fill="#374151">216.0M -> 208.1M (-3.6%)</text>
<text x="8" y="250" font-family="Inter, Arial, sans-serif" font-size="11" fill="#111827">avgr-u</text>
<rect x="170" y="239" width="386" height="6" fill="#3b82f6" opacity="0.9"/>
<rect x="170" y="247" width="385" height="6" fill="#10b981" opacity="0.9"/>
<text x="738" y="250" font-family="Inter, Arial, sans-serif" font-size="11" fill="#374151">212.1M -> 211.1M (-0.5%)</text>
<text x="8" y="270" font-family="Inter, Arial, sans-serif" font-size="11" fill="#111827">eq</text>
<rect x="170" y="259" width="402" height="6" fill="#3b82f6" opacity="0.9"/>
<rect x="170" y="267" width="363" height="6" fill="#10b981" opacity="0.9"/>
<text x="738" y="270" font-family="Inter, Arial, sans-serif" font-size="11" fill="#374151">220.7M -> 199.0M (-9.8%)</text>
<text x="8" y="290" font-family="Inter, Arial, sans-serif" font-size="11" fill="#111827">sub</text>
<rect x="170" y="279" width="387" height="6" fill="#3b82f6" opacity="0.9"/>
<rect x="170" y="287" width="372" height="6" fill="#10b981" opacity="0.9"/>
<text x="738" y="290" font-family="Inter, Arial, sans-serif" font-size="11" fill="#374151">212.6M -> 204.0M (-4.0%)</text>
<text x="8" y="310" font-family="Inter, Arial, sans-serif" font-size="11" fill="#111827">ne</text>
<rect x="170" y="299" width="391" height="6" fill="#3b82f6" opacity="0.9"/>
<rect x="170" y="307" width="363" height="6" fill="#10b981" opacity="0.9"/>
<text x="738" y="310" font-family="Inter, Arial, sans-serif" font-size="11" fill="#374151">214.9M -> 199.3M (-7.3%)</text>
<text x="8" y="330" font-family="Inter, Arial, sans-serif" font-size="11" fill="#111827">lt-s</text>
<rect x="170" y="319" width="400" height="6" fill="#3b82f6" opacity="0.9"/>
<rect x="170" y="327" width="331" height="6" fill="#10b981" opacity="0.9"/>
<text x="738" y="330" font-family="Inter, Arial, sans-serif" font-size="11" fill="#374151">219.6M -> 182.0M (-17.1%)</text>
<text x="8" y="350" font-family="Inter, Arial, sans-serif" font-size="11" fill="#111827">le-u</text>
<rect x="170" y="339" width="394" height="6" fill="#3b82f6" opacity="0.9"/>
<rect x="170" y="347" width="333" height="6" fill="#10b981" opacity="0.9"/>
<text x="738" y="350" font-family="Inter, Arial, sans-serif" font-size="11" fill="#374151">216.1M -> 182.7M (-15.5%)</text>
<text x="8" y="370" font-family="Inter, Arial, sans-serif" font-size="11" fill="#111827">lt-u</text>
<rect x="170" y="359" width="385" height="6" fill="#3b82f6" opacity="0.9"/>
<rect x="170" y="367" width="338" height="6" fill="#10b981" opacity="0.9"/>
<text x="738" y="370" font-family="Inter, Arial, sans-serif" font-size="11" fill="#374151">211.5M -> 185.7M (-12.2%)</text>
<text x="8" y="390" font-family="Inter, Arial, sans-serif" font-size="11" fill="#111827">le-s</text>
<rect x="170" y="379" width="393" height="6" fill="#3b82f6" opacity="0.9"/>
<rect x="170" y="387" width="329" height="6" fill="#10b981" opacity="0.9"/>
<text x="738" y="390" font-family="Inter, Arial, sans-serif" font-size="11" fill="#374151">215.8M -> 180.7M (-16.3%)</text>
<text x="8" y="410" font-family="Inter, Arial, sans-serif" font-size="11" fill="#111827">min-u</text>
<rect x="170" y="399" width="388" height="6" fill="#3b82f6" opacity="0.9"/>
<rect x="170" y="407" width="332" height="6" fill="#10b981" opacity="0.9"/>
<text x="738" y="410" font-family="Inter, Arial, sans-serif" font-size="11" fill="#374151">213.1M -> 182.5M (-14.3%)</text>
<text x="8" y="430" font-family="Inter, Arial, sans-serif" font-size="11" fill="#111827">max-u</text>
<rect x="170" y="419" width="386" height="6" fill="#3b82f6" opacity="0.9"/>
<rect x="170" y="427" width="333" height="6" fill="#10b981" opacity="0.9"/>
<text x="738" y="430" font-family="Inter, Arial, sans-serif" font-size="11" fill="#374151">211.7M -> 182.8M (-13.6%)</text>
<text x="8" y="450" font-family="Inter, Arial, sans-serif" font-size="11" fill="#111827">gt-s</text>
<rect x="170" y="439" width="385" height="6" fill="#3b82f6" opacity="0.9"/>
<rect x="170" y="447" width="331" height="6" fill="#10b981" opacity="0.9"/>
<text x="738" y="450" font-family="Inter, Arial, sans-serif" font-size="11" fill="#374151">211.1M -> 181.5M (-14.0%)</text>
<text x="8" y="470" font-family="Inter, Arial, sans-serif" font-size="11" fill="#111827">add-sat-s</text>
<rect x="170" y="459" width="385" height="6" fill="#3b82f6" opacity="0.9"/>
<rect x="170" y="467" width="330" height="6" fill="#10b981" opacity="0.9"/>
<text x="738" y="470" font-family="Inter, Arial, sans-serif" font-size="11" fill="#374151">211.4M -> 181.1M (-14.3%)</text>
<text x="8" y="490" font-family="Inter, Arial, sans-serif" font-size="11" fill="#111827">max-s</text>
<rect x="170" y="479" width="390" height="6" fill="#3b82f6" opacity="0.9"/>
<rect x="170" y="487" width="324" height="6" fill="#10b981" opacity="0.9"/>
<text x="738" y="490" font-family="Inter, Arial, sans-serif" font-size="11" fill="#374151">214.0M -> 177.7M (-17.0%)</text>
<text x="8" y="510" font-family="Inter, Arial, sans-serif" font-size="11" fill="#111827">min-s</text>
<rect x="170" y="499" width="388" height="6" fill="#3b82f6" opacity="0.9"/>
<rect x="170" y="507" width="324" height="6" fill="#10b981" opacity="0.9"/>
<text x="738" y="510" font-family="Inter, Arial, sans-serif" font-size="11" fill="#374151">213.2M -> 177.7M (-16.6%)</text>
<text x="8" y="530" font-family="Inter, Arial, sans-serif" font-size="11" fill="#111827">sub-sat-u</text>
<rect x="170" y="519" width="380" height="6" fill="#3b82f6" opacity="0.9"/>
<rect x="170" y="527" width="331" height="6" fill="#10b981" opacity="0.9"/>
<text x="738" y="530" font-family="Inter, Arial, sans-serif" font-size="11" fill="#374151">208.7M -> 181.6M (-13.0%)</text>
<text x="8" y="550" font-family="Inter, Arial, sans-serif" font-size="11" fill="#111827">add-sat-u</text>
<rect x="170" y="539" width="385" height="6" fill="#3b82f6" opacity="0.9"/>
<rect x="170" y="547" width="324" height="6" fill="#10b981" opacity="0.9"/>
<text x="738" y="550" font-family="Inter, Arial, sans-serif" font-size="11" fill="#374151">211.5M -> 178.1M (-15.8%)</text>
<text x="8" y="570" font-family="Inter, Arial, sans-serif" font-size="11" fill="#111827">sub-sat-s</text>
<rect x="170" y="559" width="382" height="6" fill="#3b82f6" opacity="0.9"/>
<rect x="170" y="567" width="325" height="6" fill="#10b981" opacity="0.9"/>
<text x="738" y="570" font-family="Inter, Arial, sans-serif" font-size="11" fill="#374151">209.9M -> 178.7M (-14.9%)</text>
<text x="8" y="590" font-family="Inter, Arial, sans-serif" font-size="11" fill="#111827">ge-u</text>
<rect x="170" y="579" width="377" height="6" fill="#3b82f6" opacity="0.9"/>
<rect x="170" y="587" width="331" height="6" fill="#10b981" opacity="0.9"/>
<text x="738" y="590" font-family="Inter, Arial, sans-serif" font-size="11" fill="#374151">207.1M -> 181.5M (-12.4%)</text>
<text x="8" y="610" font-family="Inter, Arial, sans-serif" font-size="11" fill="#111827">ge-s</text>
<rect x="170" y="599" width="376" height="6" fill="#3b82f6" opacity="0.9"/>
<rect x="170" y="607" width="325" height="6" fill="#10b981" opacity="0.9"/>
<text x="738" y="610" font-family="Inter, Arial, sans-serif" font-size="11" fill="#374151">206.5M -> 178.7M (-13.5%)</text>
<text x="8" y="630" font-family="Inter, Arial, sans-serif" font-size="11" fill="#111827">shl</text>
<rect x="170" y="619" width="335" height="6" fill="#3b82f6" opacity="0.9"/>
<rect x="170" y="627" width="363" height="6" fill="#10b981" opacity="0.9"/>
<text x="738" y="630" font-family="Inter, Arial, sans-serif" font-size="11" fill="#374151">184.1M -> 199.3M (8.3%)</text>
<text x="8" y="650" font-family="Inter, Arial, sans-serif" font-size="11" fill="#111827">gt-u</text>
<rect x="170" y="639" width="368" height="6" fill="#3b82f6" opacity="0.9"/>
<rect x="170" y="647" width="329" height="6" fill="#10b981" opacity="0.9"/>
<text x="738" y="650" font-family="Inter, Arial, sans-serif" font-size="11" fill="#374151">202.0M -> 180.6M (-10.6%)</text>
<text x="8" y="670" font-family="Inter, Arial, sans-serif" font-size="11" fill="#111827">shr-u</text>
<rect x="170" y="659" width="337" height="6" fill="#3b82f6" opacity="0.9"/>
<rect x="170" y="667" width="352" height="6" fill="#10b981" opacity="0.9"/>
<text x="738" y="670" font-family="Inter, Arial, sans-serif" font-size="11" fill="#374151">185.0M -> 193.3M (4.5%)</text>
<text x="8" y="690" font-family="Inter, Arial, sans-serif" font-size="11" fill="#111827">relaxed-laneselect</text>
<rect x="170" y="679" width="312" height="6" fill="#3b82f6" opacity="0.9"/>
<rect x="170" y="687" width="320" height="6" fill="#10b981" opacity="0.9"/>
<text x="738" y="690" font-family="Inter, Arial, sans-serif" font-size="11" fill="#374151">171.3M -> 175.5M (2.4%)</text>
<text x="8" y="710" font-family="Inter, Arial, sans-serif" font-size="11" fill="#111827">shr-s</text>
<rect x="170" y="699" width="342" height="6" fill="#3b82f6" opacity="0.9"/>
<rect x="170" y="707" width="243" height="6" fill="#10b981" opacity="0.9"/>
<text x="738" y="710" font-family="Inter, Arial, sans-serif" font-size="11" fill="#374151">187.7M -> 133.5M (-28.9%)</text>
<text x="8" y="730" font-family="Inter, Arial, sans-serif" font-size="11" fill="#111827">mul</text>
<rect x="170" y="719" width="311" height="6" fill="#3b82f6" opacity="0.9"/>
<rect x="170" y="727" width="247" height="6" fill="#10b981" opacity="0.9"/>
<text x="738" y="730" font-family="Inter, Arial, sans-serif" font-size="11" fill="#374151">170.6M -> 135.5M (-20.6%)</text>
<text x="8" y="750" font-family="Inter, Arial, sans-serif" font-size="11" fill="#111827">relaxed-swizzle</text>
<rect x="170" y="739" width="376" height="6" fill="#3b82f6" opacity="0.9"/>
<rect x="170" y="747" width="172" height="6" fill="#10b981" opacity="0.9"/>
<text x="738" y="750" font-family="Inter, Arial, sans-serif" font-size="11" fill="#374151">206.4M -> 94.4M (-54.3%)</text>
<text x="8" y="770" font-family="Inter, Arial, sans-serif" font-size="11" fill="#111827">swizzle</text>
<rect x="170" y="759" width="383" height="6" fill="#3b82f6" opacity="0.9"/>
<rect x="170" y="767" width="146" height="6" fill="#10b981" opacity="0.9"/>
<text x="738" y="770" font-family="Inter, Arial, sans-serif" font-size="11" fill="#374151">210.5M -> 80.2M (-61.9%)</text>
<text x="8" y="790" font-family="Inter, Arial, sans-serif" font-size="11" fill="#111827">replace-lane</text>
<rect x="170" y="779" width="228" height="6" fill="#3b82f6" opacity="0.9"/>
<rect x="170" y="787" width="274" height="6" fill="#10b981" opacity="0.9"/>
<text x="738" y="790" font-family="Inter, Arial, sans-serif" font-size="11" fill="#374151">125.0M -> 150.3M (20.2%)</text>
<text x="8" y="810" font-family="Inter, Arial, sans-serif" font-size="11" fill="#111827">narrow-i16x4-u</text>
<rect x="170" y="799" width="381" height="6" fill="#3b82f6" opacity="0.9"/>
<rect x="170" y="807" width="52" height="6" fill="#10b981" opacity="0.9"/>
<text x="738" y="810" font-family="Inter, Arial, sans-serif" font-size="11" fill="#374151">209.3M -> 28.6M (-86.3%)</text>
<text x="8" y="830" font-family="Inter, Arial, sans-serif" font-size="11" fill="#111827">narrow-i16x4-s</text>
<rect x="170" y="819" width="382" height="6" fill="#3b82f6" opacity="0.9"/>
<rect x="170" y="827" width="51" height="6" fill="#10b981" opacity="0.9"/>
<text x="738" y="830" font-family="Inter, Arial, sans-serif" font-size="11" fill="#374151">209.6M -> 28.2M (-86.5%)</text>
<text x="8" y="850" font-family="Inter, Arial, sans-serif" font-size="11" fill="#111827">shuffle</text>
<rect x="170" y="839" width="113" height="6" fill="#3b82f6" opacity="0.9"/>
<rect x="170" y="847" width="73" height="6" fill="#10b981" opacity="0.9"/>
<text x="738" y="850" font-family="Inter, Arial, sans-serif" font-size="11" fill="#374151">61.8M -> 40.1M (-35.0%)</text>
</svg>
