<svg xmlns="http://www.w3.org/2000/svg" width="1090" height="816" viewBox="0 0 1090 816">
<rect x="0" y="0" width="1090" height="816" fill="#ffffff"/>
<text x="16" y="24" font-family="Inter, Arial, sans-serif" font-size="16" font-weight="700" fill="#111827">i8x8 (SWAR) vs i8x16 (SIMD)</text>
<text x="16" y="42" font-family="Inter, Arial, sans-serif" font-size="12" fill="#4b5563">Blue: i8x8 (swar), Green: i8x16 (simd)</text>
<text x="8" y="70" font-family="Inter, Arial, sans-serif" font-size="11" fill="#111827">splat</text>
<rect x="170" y="59" width="560" height="6" fill="#3b82f6" opacity="0.9"/>
<rect x="170" y="67" width="487" height="6" fill="#10b981" opacity="0.9"/>
<text x="738" y="70" font-family="Inter, Arial, sans-serif" font-size="11" fill="#374151">309.6M -> 269.2M (-13.1%)</text>
<text x="8" y="90" font-family="Inter, Arial, sans-serif" font-size="11" fill="#111827">bitmask</text>
<rect x="170" y="79" width="557" height="6" fill="#3b82f6" opacity="0.9"/>
<rect x="170" y="87" width="483" height="6" fill="#10b981" opacity="0.9"/>
<text x="738" y="90" font-family="Inter, Arial, sans-serif" font-size="11" fill="#374151">307.8M -> 267.3M (-13.2%)</text>
<text x="8" y="110" font-family="Inter, Arial, sans-serif" font-size="11" fill="#111827">neg</text>
<rect x="170" y="99" width="541" height="6" fill="#3b82f6" opacity="0.9"/>
<rect x="170" y="107" width="492" height="6" fill="#10b981" opacity="0.9"/>
<text x="738" y="110" font-family="Inter, Arial, sans-serif" font-size="11" fill="#374151">299.1M -> 272.2M (-9.0%)</text>
<text x="8" y="130" font-family="Inter, Arial, sans-serif" font-size="11" fill="#111827">abs</text>
<rect x="170" y="119" width="509" height="6" fill="#3b82f6" opacity="0.9"/>
<rect x="170" y="127" width="502" height="6" fill="#10b981" opacity="0.9"/>
<text x="738" y="130" font-family="Inter, Arial, sans-serif" font-size="11" fill="#374151">281.3M -> 277.5M (-1.4%)</text>
<text x="8" y="150" font-family="Inter, Arial, sans-serif" font-size="11" fill="#111827">all-true</text>
<rect x="170" y="139" width="488" height="6" fill="#3b82f6" opacity="0.9"/>
<rect x="170" y="147" width="458" height="6" fill="#10b981" opacity="0.9"/>
<text x="738" y="150" font-family="Inter, Arial, sans-serif" font-size="11" fill="#374151">269.9M -> 253.0M (-6.3%)</text>
<text x="8" y="170" font-family="Inter, Arial, sans-serif" font-size="11" fill="#111827">extract-lane-u</text>
<rect x="170" y="159" width="416" height="6" fill="#3b82f6" opacity="0.9"/>
<rect x="170" y="167" width="495" height="6" fill="#10b981" opacity="0.9"/>
<text x="738" y="170" font-family="Inter, Arial, sans-serif" font-size="11" fill="#374151">230.0M -> 273.9M (19.1%)</text>
<text x="8" y="190" font-family="Inter, Arial, sans-serif" font-size="11" fill="#111827">popcnt</text>
<rect x="170" y="179" width="468" height="6" fill="#3b82f6" opacity="0.9"/>
<rect x="170" y="187" width="430" height="6" fill="#10b981" opacity="0.9"/>
<text x="738" y="190" font-family="Inter, Arial, sans-serif" font-size="11" fill="#374151">258.8M -> 237.5M (-8.2%)</text>
<text x="8" y="210" font-family="Inter, Arial, sans-serif" font-size="11" fill="#111827">extract-lane-s</text>
<rect x="170" y="199" width="415" height="6" fill="#3b82f6" opacity="0.9"/>
<rect x="170" y="207" width="481" height="6" fill="#10b981" opacity="0.9"/>
<text x="738" y="210" font-family="Inter, Arial, sans-serif" font-size="11" fill="#374151">229.2M -> 265.7M (15.9%)</text>
<text x="8" y="230" font-family="Inter, Arial, sans-serif" font-size="11" fill="#111827">avgr-u</text>
<rect x="170" y="219" width="430" height="6" fill="#3b82f6" opacity="0.9"/>
<rect x="170" y="227" width="400" height="6" fill="#10b981" opacity="0.9"/>
<text x="738" y="230" font-family="Inter, Arial, sans-serif" font-size="11" fill="#374151">238.0M -> 221.1M (-7.1%)</text>
<text x="8" y="250" font-family="Inter, Arial, sans-serif" font-size="11" fill="#111827">add</text>
<rect x="170" y="239" width="407" height="6" fill="#3b82f6" opacity="0.9"/>
<rect x="170" y="247" width="403" height="6" fill="#10b981" opacity="0.9"/>
<text x="738" y="250" font-family="Inter, Arial, sans-serif" font-size="11" fill="#374151">224.9M -> 222.9M (-0.9%)</text>
<text x="8" y="270" font-family="Inter, Arial, sans-serif" font-size="11" fill="#111827">sub</text>
<rect x="170" y="259" width="404" height="6" fill="#3b82f6" opacity="0.9"/>
<rect x="170" y="267" width="401" height="6" fill="#10b981" opacity="0.9"/>
<text x="738" y="270" font-family="Inter, Arial, sans-serif" font-size="11" fill="#374151">223.4M -> 221.9M (-0.7%)</text>
<text x="8" y="290" font-family="Inter, Arial, sans-serif" font-size="11" fill="#111827">eq</text>
<rect x="170" y="279" width="384" height="6" fill="#3b82f6" opacity="0.9"/>
<rect x="170" y="287" width="386" height="6" fill="#10b981" opacity="0.9"/>
<text x="738" y="290" font-family="Inter, Arial, sans-serif" font-size="11" fill="#374151">212.4M -> 213.3M (0.4%)</text>
<text x="8" y="310" font-family="Inter, Arial, sans-serif" font-size="11" fill="#111827">ne</text>
<rect x="170" y="299" width="383" height="6" fill="#3b82f6" opacity="0.9"/>
<rect x="170" y="307" width="376" height="6" fill="#10b981" opacity="0.9"/>
<text x="738" y="310" font-family="Inter, Arial, sans-serif" font-size="11" fill="#374151">211.6M -> 207.9M (-1.8%)</text>
<text x="8" y="330" font-family="Inter, Arial, sans-serif" font-size="11" fill="#111827">min-s</text>
<rect x="170" y="319" width="349" height="6" fill="#3b82f6" opacity="0.9"/>
<rect x="170" y="327" width="403" height="6" fill="#10b981" opacity="0.9"/>
<text x="738" y="330" font-family="Inter, Arial, sans-serif" font-size="11" fill="#374151">192.7M -> 222.9M (15.6%)</text>
<text x="8" y="350" font-family="Inter, Arial, sans-serif" font-size="11" fill="#111827">sub-sat-u</text>
<rect x="170" y="339" width="352" height="6" fill="#3b82f6" opacity="0.9"/>
<rect x="170" y="347" width="397" height="6" fill="#10b981" opacity="0.9"/>
<text x="738" y="350" font-family="Inter, Arial, sans-serif" font-size="11" fill="#374151">194.8M -> 219.7M (12.7%)</text>
<text x="8" y="370" font-family="Inter, Arial, sans-serif" font-size="11" fill="#111827">max-u</text>
<rect x="170" y="359" width="347" height="6" fill="#3b82f6" opacity="0.9"/>
<rect x="170" y="367" width="400" height="6" fill="#10b981" opacity="0.9"/>
<text x="738" y="370" font-family="Inter, Arial, sans-serif" font-size="11" fill="#374151">191.9M -> 221.3M (15.3%)</text>
<text x="8" y="390" font-family="Inter, Arial, sans-serif" font-size="11" fill="#111827">min-u</text>
<rect x="170" y="379" width="343" height="6" fill="#3b82f6" opacity="0.9"/>
<rect x="170" y="387" width="402" height="6" fill="#10b981" opacity="0.9"/>
<text x="738" y="390" font-family="Inter, Arial, sans-serif" font-size="11" fill="#374151">189.8M -> 222.0M (17.0%)</text>
<text x="8" y="410" font-family="Inter, Arial, sans-serif" font-size="11" fill="#111827">max-s</text>
<rect x="170" y="399" width="342" height="6" fill="#3b82f6" opacity="0.9"/>
<rect x="170" y="407" width="400" height="6" fill="#10b981" opacity="0.9"/>
<text x="738" y="410" font-family="Inter, Arial, sans-serif" font-size="11" fill="#374151">188.9M -> 221.3M (17.1%)</text>
<text x="8" y="430" font-family="Inter, Arial, sans-serif" font-size="11" fill="#111827">add-sat-s</text>
<rect x="170" y="419" width="343" height="6" fill="#3b82f6" opacity="0.9"/>
<rect x="170" y="427" width="398" height="6" fill="#10b981" opacity="0.9"/>
<text x="738" y="430" font-family="Inter, Arial, sans-serif" font-size="11" fill="#374151">189.7M -> 220.3M (16.1%)</text>
<text x="8" y="450" font-family="Inter, Arial, sans-serif" font-size="11" fill="#111827">add-sat-u</text>
<rect x="170" y="439" width="342" height="6" fill="#3b82f6" opacity="0.9"/>
<rect x="170" y="447" width="399" height="6" fill="#10b981" opacity="0.9"/>
<text x="738" y="450" font-family="Inter, Arial, sans-serif" font-size="11" fill="#374151">189.3M -> 220.6M (16.6%)</text>
<text x="8" y="470" font-family="Inter, Arial, sans-serif" font-size="11" fill="#111827">ge-u</text>
<rect x="170" y="459" width="360" height="6" fill="#3b82f6" opacity="0.9"/>
<rect x="170" y="467" width="381" height="6" fill="#10b981" opacity="0.9"/>
<text x="738" y="470" font-family="Inter, Arial, sans-serif" font-size="11" fill="#374151">199.0M -> 210.4M (5.7%)</text>
<text x="8" y="490" font-family="Inter, Arial, sans-serif" font-size="11" fill="#111827">lt-s</text>
<rect x="170" y="479" width="351" height="6" fill="#3b82f6" opacity="0.9"/>
<rect x="170" y="487" width="388" height="6" fill="#10b981" opacity="0.9"/>
<text x="738" y="490" font-family="Inter, Arial, sans-serif" font-size="11" fill="#374151">194.2M -> 214.4M (10.4%)</text>
<text x="8" y="510" font-family="Inter, Arial, sans-serif" font-size="11" fill="#111827">gt-s</text>
<rect x="170" y="499" width="352" height="6" fill="#3b82f6" opacity="0.9"/>
<rect x="170" y="507" width="386" height="6" fill="#10b981" opacity="0.9"/>
<text x="738" y="510" font-family="Inter, Arial, sans-serif" font-size="11" fill="#374151">194.7M -> 213.3M (9.5%)</text>
<text x="8" y="530" font-family="Inter, Arial, sans-serif" font-size="11" fill="#111827">sub-sat-s</text>
<rect x="170" y="519" width="340" height="6" fill="#3b82f6" opacity="0.9"/>
<rect x="170" y="527" width="396" height="6" fill="#10b981" opacity="0.9"/>
<text x="738" y="530" font-family="Inter, Arial, sans-serif" font-size="11" fill="#374151">188.2M -> 219.2M (16.4%)</text>
<text x="8" y="550" font-family="Inter, Arial, sans-serif" font-size="11" fill="#111827">le-u</text>
<rect x="170" y="539" width="354" height="6" fill="#3b82f6" opacity="0.9"/>
<rect x="170" y="547" width="381" height="6" fill="#10b981" opacity="0.9"/>
<text x="738" y="550" font-family="Inter, Arial, sans-serif" font-size="11" fill="#374151">195.5M -> 210.7M (7.7%)</text>
<text x="8" y="570" font-family="Inter, Arial, sans-serif" font-size="11" fill="#111827">ge-s</text>
<rect x="170" y="559" width="352" height="6" fill="#3b82f6" opacity="0.9"/>
<rect x="170" y="567" width="380" height="6" fill="#10b981" opacity="0.9"/>
<text x="738" y="570" font-family="Inter, Arial, sans-serif" font-size="11" fill="#374151">194.7M -> 210.2M (8.0%)</text>
<text x="8" y="590" font-family="Inter, Arial, sans-serif" font-size="11" fill="#111827">le-s</text>
<rect x="170" y="579" width="353" height="6" fill="#3b82f6" opacity="0.9"/>
<rect x="170" y="587" width="379" height="6" fill="#10b981" opacity="0.9"/>
<text x="738" y="590" font-family="Inter, Arial, sans-serif" font-size="11" fill="#374151">195.2M -> 209.7M (7.4%)</text>
<text x="8" y="610" font-family="Inter, Arial, sans-serif" font-size="11" fill="#111827">lt-u</text>
<rect x="170" y="599" width="358" height="6" fill="#3b82f6" opacity="0.9"/>
<rect x="170" y="607" width="373" height="6" fill="#10b981" opacity="0.9"/>
<text x="738" y="610" font-family="Inter, Arial, sans-serif" font-size="11" fill="#374151">198.2M -> 206.5M (4.2%)</text>
<text x="8" y="630" font-family="Inter, Arial, sans-serif" font-size="11" fill="#111827">gt-u</text>
<rect x="170" y="619" width="353" height="6" fill="#3b82f6" opacity="0.9"/>
<rect x="170" y="627" width="371" height="6" fill="#10b981" opacity="0.9"/>
<text x="738" y="630" font-family="Inter, Arial, sans-serif" font-size="11" fill="#374151">195.3M -> 205.4M (5.2%)</text>
<text x="8" y="650" font-family="Inter, Arial, sans-serif" font-size="11" fill="#111827">shl</text>
<rect x="170" y="639" width="412" height="6" fill="#3b82f6" opacity="0.9"/>
<rect x="170" y="647" width="282" height="6" fill="#10b981" opacity="0.9"/>
<text x="738" y="650" font-family="Inter, Arial, sans-serif" font-size="11" fill="#374151">227.9M -> 156.0M (-31.5%)</text>
<text x="8" y="670" font-family="Inter, Arial, sans-serif" font-size="11" fill="#111827">shr-u</text>
<rect x="170" y="659" width="377" height="6" fill="#3b82f6" opacity="0.9"/>
<rect x="170" y="667" width="292" height="6" fill="#10b981" opacity="0.9"/>
<text x="738" y="670" font-family="Inter, Arial, sans-serif" font-size="11" fill="#374151">208.6M -> 161.5M (-22.6%)</text>
<text x="8" y="690" font-family="Inter, Arial, sans-serif" font-size="11" fill="#111827">replace-lane</text>
<rect x="170" y="679" width="290" height="6" fill="#3b82f6" opacity="0.9"/>
<rect x="170" y="687" width="353" height="6" fill="#10b981" opacity="0.9"/>
<text x="738" y="690" font-family="Inter, Arial, sans-serif" font-size="11" fill="#374151">160.6M -> 194.9M (21.4%)</text>
<text x="8" y="710" font-family="Inter, Arial, sans-serif" font-size="11" fill="#111827">narrow-i16x8-u</text>
<rect x="170" y="699" width="216" height="6" fill="#3b82f6" opacity="0.9"/>
<rect x="170" y="707" width="366" height="6" fill="#10b981" opacity="0.9"/>
<text x="738" y="710" font-family="Inter, Arial, sans-serif" font-size="11" fill="#374151">119.6M -> 202.3M (69.1%)</text>
<text x="8" y="730" font-family="Inter, Arial, sans-serif" font-size="11" fill="#111827">narrow-i16x8-s</text>
<rect x="170" y="719" width="204" height="6" fill="#3b82f6" opacity="0.9"/>
<rect x="170" y="727" width="365" height="6" fill="#10b981" opacity="0.9"/>
<text x="738" y="730" font-family="Inter, Arial, sans-serif" font-size="11" fill="#374151">112.6M -> 201.9M (79.3%)</text>
<text x="8" y="750" font-family="Inter, Arial, sans-serif" font-size="11" fill="#111827">shr-s</text>
<rect x="170" y="739" width="257" height="6" fill="#3b82f6" opacity="0.9"/>
<rect x="170" y="747" width="295" height="6" fill="#10b981" opacity="0.9"/>
<text x="738" y="750" font-family="Inter, Arial, sans-serif" font-size="11" fill="#374151">142.2M -> 162.9M (14.5%)</text>
<text x="8" y="770" font-family="Inter, Arial, sans-serif" font-size="11" fill="#111827">swizzle</text>
<rect x="170" y="759" width="152" height="6" fill="#3b82f6" opacity="0.9"/>
<rect x="170" y="767" width="375" height="6" fill="#10b981" opacity="0.9"/>
<text x="738" y="770" font-family="Inter, Arial, sans-serif" font-size="11" fill="#374151">84.1M -> 207.1M (146.3%)</text>
<text x="8" y="790" font-family="Inter, Arial, sans-serif" font-size="11" fill="#111827">shuffle</text>
<rect x="170" y="779" width="79" height="6" fill="#3b82f6" opacity="0.9"/>
<rect x="170" y="787" width="350" height="6" fill="#10b981" opacity="0.9"/>
<text x="738" y="790" font-family="Inter, Arial, sans-serif" font-size="11" fill="#374151">43.7M -> 193.5M (343.1%)</text>
</svg>
